<svg width="24" height="25" viewBox="0 0 24 25" fill="none" xmlns="http://www.w3.org/2000/svg">
<path fill-rule="evenodd" clip-rule="evenodd" d="M15.2083 4.84633C15.2083 4.13268 15.4542 3.44826 15.8918 2.94364C16.3293 2.43901 16.9228 2.15552 17.5417 2.15552C18.1605 2.15552 18.754 2.43901 19.1916 2.94364C19.6292 3.44826 19.875 4.13268 19.875 4.84633C19.875 5.55998 19.6292 6.2444 19.1916 6.74902C18.754 7.25365 18.1605 7.53714 17.5417 7.53714C16.9228 7.53714 16.3293 7.25365 15.8918 6.74902C15.4542 6.2444 15.2083 5.55998 15.2083 4.84633ZM17.5417 3.50092C17.2322 3.50092 16.9355 3.64267 16.7167 3.89498C16.4979 4.1473 16.375 4.48951 16.375 4.84633C16.375 5.20315 16.4979 5.54536 16.7167 5.79768C16.9355 6.04999 17.2322 6.19174 17.5417 6.19174C17.8511 6.19174 18.1478 6.04999 18.3666 5.79768C18.5854 5.54536 18.7083 5.20315 18.7083 4.84633C18.7083 4.48951 18.5854 4.1473 18.3666 3.89498C18.1478 3.64267 17.8511 3.50092 17.5417 3.50092ZM3.83333 8.20985C3.7373 8.20977 3.64274 8.23704 3.55804 8.28923C3.47334 8.34142 3.40112 8.41692 3.3478 8.50903C3.29447 8.60113 3.26169 8.707 3.25237 8.81722C3.24304 8.92744 3.25746 9.03861 3.29433 9.14087C2.76285 9.39639 2.30884 9.82762 1.98953 10.3802C1.67022 10.9328 1.49988 11.582 1.5 12.2461V13.5915C1.49984 14.2461 1.66533 14.8866 1.97618 15.4343C2.28703 15.9821 2.72973 16.4133 3.25 16.6751V20.9912C3.24979 21.4248 3.3707 21.847 3.59482 22.1952C3.81895 22.5434 4.13436 22.7991 4.49435 22.9244C4.85433 23.0497 5.23974 23.0379 5.59348 22.8909C5.94722 22.7438 6.25048 22.4693 6.45833 22.1079C6.66619 22.4693 6.96945 22.7438 7.32319 22.8909C7.67693 23.0379 8.06233 23.0497 8.42232 22.9244C8.7823 22.7991 9.09772 22.5434 9.32184 22.1952C9.54597 21.847 9.66688 21.4248 9.66667 20.9912V16.6751C10.1869 16.4133 10.6296 15.9821 10.9405 15.4343C11.2513 14.8866 11.4168 14.2461 11.4167 13.5915V12.2461C11.4168 11.582 11.2465 10.9328 10.9271 10.3802C10.6078 9.82762 10.1538 9.39639 9.62233 9.14087C9.65921 9.03861 9.67362 8.92744 9.6643 8.81722C9.65497 8.707 9.62219 8.60113 9.56887 8.50903C9.51555 8.41692 9.44333 8.34142 9.35863 8.28923C9.27393 8.23704 9.17937 8.20977 9.08333 8.20985H3.83333ZM4.41667 16.1975V14.879C4.67212 14.828 4.91681 14.7214 5.13767 14.5649C5.51392 14.2924 5.749 13.8955 5.89425 13.4489C6.036 13.0156 6.09958 12.5158 6.13167 11.9931C6.16433 11.4664 6.16667 10.8684 6.16667 10.228H6.75C6.75 10.8684 6.75233 11.4657 6.785 11.9931C6.81708 12.5158 6.88067 13.0156 7.02183 13.4489C7.16767 13.8955 7.40275 14.2924 7.779 14.5655C7.99483 14.7216 8.23692 14.8225 8.5 14.879V20.9912C8.49921 21.1648 8.44026 21.3313 8.33546 21.456C8.23066 21.5806 8.08814 21.6537 7.93769 21.66C7.78725 21.6662 7.64053 21.6052 7.52822 21.4895C7.41591 21.3739 7.34671 21.2127 7.33508 21.0396L7.0405 16.2823C7.03007 16.1125 6.96424 15.9536 6.85626 15.8376C6.74829 15.7216 6.6062 15.6571 6.45862 15.6571C6.31105 15.6571 6.16896 15.7216 6.06099 15.8376C5.95301 15.9536 5.88718 16.1125 5.87675 16.2823L5.58217 21.0396C5.57267 21.2146 5.5043 21.3784 5.39163 21.4961C5.27897 21.6138 5.1309 21.6762 4.97897 21.6699C4.82703 21.6636 4.68324 21.5891 4.57821 21.4623C4.47319 21.3356 4.41522 21.1665 4.41667 20.9912V16.1975ZM2.66667 13.5915C2.66667 14.1888 2.89183 14.7263 3.25 15.0956V11.5734H4.41667V13.4859C4.45478 13.467 4.48783 13.4473 4.51583 13.4267C4.62842 13.3453 4.72408 13.2154 4.80283 12.9759C4.88508 12.7217 4.93875 12.3732 4.96792 11.8976C4.99708 11.4267 5 10.8751 5 10.228H4.41667C3.95254 10.228 3.50742 10.4406 3.17923 10.819C2.85104 11.1975 2.66667 11.7108 2.66667 12.2461V13.5915ZM10.25 13.5915C10.25 14.1888 10.0248 14.7263 9.66667 15.0956V11.5734H8.5V13.4859C8.46538 13.4698 8.43217 13.45 8.40083 13.4267C8.28825 13.3453 8.19258 13.2154 8.11383 12.9759C8.03158 12.7217 7.97792 12.3732 7.94875 11.8976C7.91958 11.4267 7.91667 10.8751 7.91667 10.228H8.5C8.96413 10.228 9.40925 10.4406 9.73744 10.819C10.0656 11.1975 10.25 11.7108 10.25 12.2461V13.5915ZM14.3777 9.14087C13.8462 9.39639 13.3922 9.82762 13.0729 10.3802C12.7535 10.9328 12.5832 11.582 12.5833 12.2461V13.5915C12.5833 14.7835 13.1212 15.8302 13.9308 16.4269L13.2168 17.6479C12.7309 18.478 13.1742 19.6216 14.0551 19.7252C14.9867 19.8342 16.4444 19.9822 17.5417 19.9822C18.6383 19.9822 20.0967 19.8342 21.0282 19.7252C21.9091 19.6216 22.3524 18.478 21.8665 17.6479L21.1525 16.4269C21.5656 16.1229 21.9056 15.7037 22.1411 15.2082C22.3766 14.7126 22.5 14.1566 22.5 13.5915V12.2461C22.5001 11.582 22.3298 10.9328 22.0105 10.3802C21.6912 9.82762 21.2372 9.39639 20.7057 9.14087C20.7425 9.03861 20.757 8.92744 20.7476 8.81722C20.7383 8.707 20.7055 8.60113 20.6522 8.50903C20.5989 8.41692 20.5267 8.34142 20.442 8.28923C20.3573 8.23704 20.2627 8.20977 20.1667 8.20985H14.9167C14.8206 8.20977 14.7261 8.23704 14.6414 8.28923C14.5567 8.34142 14.4845 8.41692 14.4311 8.50903C14.3778 8.60113 14.345 8.707 14.3357 8.81722C14.3264 8.92744 14.3408 9.03861 14.3777 9.14087ZM13.75 12.2461C13.75 11.7108 13.9344 11.1975 14.2626 10.819C14.5908 10.4406 15.0359 10.228 15.5 10.228H16.0833C16.0833 10.8751 16.0804 11.426 16.0512 11.8976C16.0221 12.3732 15.9684 12.7217 15.8862 12.9753C15.8074 13.2154 15.7117 13.3453 15.5997 13.426C15.5714 13.4471 15.5381 13.467 15.5 13.4859V12.2461H14.3333V15.0956C13.9752 14.7256 13.75 14.1888 13.75 13.5915V12.2461ZM15.7129 15.7878L15.5 15.7098V14.879C15.7554 14.828 16.0001 14.7214 16.221 14.5649C16.5972 14.2924 16.8323 13.8955 16.9776 13.4489C17.1193 13.0156 17.1829 12.5158 17.215 11.9931C17.2477 11.4664 17.25 10.8684 17.25 10.228H17.8333C17.8333 10.8684 17.8357 11.4657 17.8683 11.9931C17.9004 12.5158 17.964 13.0156 18.1057 13.4489C18.2516 13.8955 18.4861 14.2924 18.8623 14.5655C19.0782 14.7216 19.3202 14.8225 19.5833 14.879V15.7098L19.3704 15.7878L20.8929 18.3885C19.9625 18.4975 18.5677 18.6367 17.5417 18.6367C16.5156 18.6367 15.1208 18.4975 14.191 18.3885L15.7129 15.7878ZM20.75 15.0956C21.1082 14.7256 21.3333 14.1888 21.3333 13.5915V12.2461C21.3333 11.7108 21.149 11.1975 20.8208 10.819C20.4926 10.4406 20.0475 10.228 19.5833 10.228H19C19 10.8751 19.0029 11.426 19.0321 11.8976C19.0612 12.3732 19.1149 12.7217 19.1972 12.9753C19.2759 13.2154 19.3716 13.3453 19.4836 13.426C19.512 13.4471 19.5452 13.467 19.5833 13.4859V12.2461H20.75V15.0956Z" fill="#3579F6"/>
<path d="M16.5325 21.088C15.8942 21.0473 15.2577 20.9739 14.625 20.8681V21.6639C14.6252 21.9093 14.703 22.1462 14.8437 22.3303C14.9845 22.5144 15.1786 22.633 15.3897 22.6639C15.6009 22.6948 15.8145 22.636 15.9907 22.4983C16.1669 22.3607 16.2936 22.1537 16.347 21.9161L16.5325 21.088ZM18.5497 21.0833L18.7363 21.9161C18.7897 22.1537 18.9164 22.3607 19.0926 22.4983C19.2688 22.636 19.4825 22.6948 19.6936 22.6639C19.9047 22.633 20.0988 22.5144 20.2396 22.3303C20.3804 22.1462 20.4581 21.9093 20.4583 21.6639V20.8586C19.8251 20.9645 19.1883 21.0394 18.5497 21.0833Z" fill="#3579F6"/>
<path fill-rule="evenodd" clip-rule="evenodd" d="M6.45833 2.15552C5.83949 2.15552 5.246 2.43901 4.80842 2.94364C4.37083 3.44826 4.125 4.13268 4.125 4.84633C4.125 5.55998 4.37083 6.2444 4.80842 6.74902C5.246 7.25365 5.83949 7.53714 6.45833 7.53714C7.07717 7.53714 7.67066 7.25365 8.10825 6.74902C8.54583 6.2444 8.79167 5.55998 8.79167 4.84633C8.79167 4.13268 8.54583 3.44826 8.10825 2.94364C7.67066 2.43901 7.07717 2.15552 6.45833 2.15552ZM5.29167 4.84633C5.29167 4.48951 5.41458 4.1473 5.63338 3.89498C5.85217 3.64267 6.14891 3.50092 6.45833 3.50092C6.76775 3.50092 7.0645 3.64267 7.28329 3.89498C7.50208 4.1473 7.625 4.48951 7.625 4.84633C7.625 5.20315 7.50208 5.54536 7.28329 5.79768C7.0645 6.04999 6.76775 6.19174 6.45833 6.19174C6.14891 6.19174 5.85217 6.04999 5.63338 5.79768C5.41458 5.54536 5.29167 5.20315 5.29167 4.84633Z" fill="#3579F6"/>
</svg>
