<svg width="19" height="18" viewBox="0 0 19 18" fill="none" xmlns="http://www.w3.org/2000/svg">
<path d="M1 8.68254C1 5.54004 1 3.96837 1.97667 2.99254C2.95333 2.0167 4.52417 2.01587 7.66667 2.01587H11C14.1425 2.01587 15.7142 2.01587 16.69 2.99254C17.6658 3.9692 17.6667 5.54004 17.6667 8.68254V10.3492C17.6667 13.4917 17.6667 15.0634 16.69 16.0392C15.7133 17.015 14.1425 17.0159 11 17.0159H7.66667C4.52417 17.0159 2.9525 17.0159 1.97667 16.0392C1.00083 15.0625 1 13.4917 1 10.3492V8.68254Z" stroke="#3579F6" stroke-width="1.25"/>
<path d="M5.1665 2.01587V0.765869M13.4998 2.01587V0.765869" stroke="#3579F6" stroke-width="1.25" stroke-linecap="round"/>
<path d="M6.8335 10.7659L8.0835 9.51587V12.8492" stroke="#3579F6" stroke-width="1.25" stroke-linecap="round" stroke-linejoin="round"/>
<path d="M1.4165 6.18262H17.2498M10.1665 12.016V10.3493C10.1665 10.1283 10.2543 9.91631 10.4106 9.76003C10.5669 9.60375 10.7788 9.51595 10.9998 9.51595C11.2209 9.51595 11.4328 9.60375 11.5891 9.76003C11.7454 9.91631 11.8332 10.1283 11.8332 10.3493V12.016C11.8332 12.237 11.7454 12.4489 11.5891 12.6052C11.4328 12.7615 11.2209 12.8493 10.9998 12.8493C10.7788 12.8493 10.5669 12.7615 10.4106 12.6052C10.2543 12.4489 10.1665 12.237 10.1665 12.016Z" stroke="#3579F6" stroke-width="1.25" stroke-linecap="round"/>
</svg>
