<svg width="48" height="44" viewBox="0 0 48 44" fill="none" xmlns="http://www.w3.org/2000/svg">
<g id="ready-stock_16090102 1">
<path id="Vector" d="M18.8164 19.3843C18.5997 18.3739 18.6657 17.3786 18.9974 16.6537C19.1535 16.3127 19.5761 16.1898 19.9412 16.3791C20.3065 16.5684 20.4762 16.9984 20.3202 17.3393C20.1056 17.8082 20.0693 18.5159 20.2228 19.2324C20.3059 19.6201 20.0585 19.9685 19.6702 20.0105C19.6528 20.0123 19.6354 20.0136 19.618 20.0142C19.2481 20.0271 18.8958 19.7547 18.8164 19.3842L18.8164 19.3843ZM44.9406 40.393C44.3846 41.6761 43.3273 42.6174 41.9636 43.0435L41.963 43.0437C41.507 43.1857 41.0393 43.2623 40.5708 43.2786C38.239 43.36 35.885 41.9508 34.8218 39.7053L27.0204 43.6909C27.019 43.6917 27.0175 43.6921 27.0161 43.6928C26.9994 43.7012 26.982 43.7086 26.9644 43.7156C26.96 43.7174 26.9558 43.7195 26.9514 43.7211C26.9317 43.7283 26.9115 43.7345 26.8908 43.74C26.8882 43.7407 26.8856 43.7417 26.883 43.7423C26.8613 43.7478 26.8389 43.7521 26.816 43.7555C26.8144 43.7557 26.813 43.7561 26.8115 43.7564C26.7874 43.7597 26.7629 43.7619 26.7378 43.7627C26.7127 43.7636 26.6879 43.7632 26.6631 43.7615C26.6616 43.7614 26.6601 43.7611 26.6587 43.761C26.635 43.7592 26.6115 43.7565 26.5883 43.7526C26.5857 43.7522 26.583 43.7514 26.5803 43.7509C26.5582 43.7469 26.5363 43.7421 26.5147 43.7363C26.5099 43.735 26.5051 43.7332 26.5003 43.7318C26.4809 43.7261 26.4617 43.7201 26.4429 43.7129C26.4412 43.7123 26.4395 43.7119 26.4378 43.7112L10.3364 37.5109C10.0643 37.4061 9.86392 37.1596 9.82483 36.8814L8.48725 27.3641L5.26386 26.1228C5.05962 26.0441 4.89215 25.8838 4.80639 25.6849C4.72064 25.486 4.72559 25.2691 4.81974 25.0923L7.567 19.935C7.6279 19.8209 7.72037 19.7339 7.83032 19.6778L7.83007 19.6773L17.0969 14.9435C17.4952 14.324 18.0167 13.8716 18.6286 13.6131C18.5286 12.5179 18.5836 11.4249 18.7889 10.3512C17.2253 11.449 15.4276 12.0354 13.4064 12.106C12.0858 12.1521 10.6702 11.9784 9.16223 11.5841C8.90427 11.5166 8.68965 11.3201 8.60154 11.0706C8.51353 10.8213 8.56605 10.5584 8.73876 10.3841C10.5024 8.60376 12.2268 7.45863 14.0108 6.88345C15.9009 6.27406 17.8988 6.31405 19.958 6.99662C20.1642 6.59711 20.3927 6.20329 20.6441 5.81656C22.0405 3.66935 24.1047 1.82154 26.3076 0.747035C26.6478 0.581067 27.0899 0.732751 27.2949 1.08572C27.4999 1.43869 27.3905 1.85938 27.0502 2.02526C26.1764 2.45146 25.3187 3.01229 24.5192 3.68413C28.1786 3.14036 31.6896 4.3603 34.9813 7.32719C35.1835 7.50941 35.2798 7.77539 35.2331 8.0219C35.1863 8.26831 35.0036 8.45653 34.756 8.51323C33.4758 8.80689 32.288 8.97284 31.1764 9.01166C30.0922 9.04952 29.0807 8.96648 28.1268 8.76299C26.0559 8.32127 24.2244 7.28392 22.6734 5.67938C22.4484 6.12796 22.3109 6.6178 22.2643 7.14783C22.1114 8.88395 22.9546 10.8006 23.7212 11.9584C24.498 11.7579 25.3984 11.8675 26.3288 12.2876C27.4716 12.8037 28.5368 13.7398 29.328 14.9234C29.3444 14.9477 29.3595 14.9724 29.3755 14.9967L38.7243 18.5984L38.7242 18.5989C38.8487 18.6468 38.9647 18.7265 39.057 18.8355L43.2173 23.7515C43.3599 23.92 43.4254 24.1345 43.3961 24.3373C43.3668 24.5401 43.2458 24.7104 43.0657 24.8025L40.2232 26.2548L41.1314 32.7165C41.3865 32.8043 41.639 32.9093 41.8869 33.0327C43.259 33.715 44.3319 34.8565 44.9079 36.247C45.485 37.6367 45.4967 39.1092 44.9406 40.3927L44.9406 40.393ZM19.0795 8.1638C16.1754 7.38333 13.4918 8.14526 10.7747 10.5209C14.1752 11.0999 16.9096 10.3234 19.0795 8.1638ZM38.8876 26.9375L28.8583 32.0616C28.7701 32.1066 28.6738 32.1301 28.576 32.1335C28.346 32.1415 28.1072 32.0388 27.9431 31.845L25.3481 28.7807L27.1979 41.9423L34.3572 38.2847C33.8879 35.7918 35.2037 33.3972 37.644 32.6341C38.2927 32.432 38.9736 32.3596 39.6568 32.4108L38.8876 26.9374L38.8876 26.9375ZM38.3942 20.1478L25.4224 26.7742L28.6054 30.5328L41.575 23.9063L38.3942 20.1477L38.3942 20.1478ZM30.2488 16.7967C30.4474 17.4067 30.5508 18.0167 30.5481 18.5982C30.5423 19.8745 30.0381 20.8699 29.1283 21.401C28.7115 21.6434 28.2409 21.7706 27.741 21.7881C26.9438 21.8159 26.0716 21.5644 25.2222 21.0585C25.1566 21.6964 25.0017 22.2964 24.7574 22.8312C24.2088 24.032 23.2815 24.7768 22.1388 24.9427L24.2048 25.7383L36.782 19.3135L30.2489 16.7967L30.2488 16.7967ZM16.3612 16.9775L9.95389 20.2507L18.5728 23.5697C18.5538 23.5511 18.5344 23.5335 18.5154 23.5146C17.5193 22.5198 16.7924 21.1439 16.4684 19.6405C16.269 18.7187 16.2354 17.8105 16.3613 16.9776L16.3612 16.9775ZM23.8359 13.4837C23.3981 13.7382 23.1249 14.2159 23.0488 14.8462C24.0347 15.8392 24.7552 17.2062 25.0782 18.6997C25.128 18.9308 25.1662 19.1609 25.1954 19.3894C26.3006 20.3062 27.524 20.62 28.3033 20.1667C28.8194 19.8655 29.106 19.2544 29.1097 18.4466C29.1138 17.5481 28.773 16.5412 28.1501 15.6111C27.5276 14.6798 26.7083 13.952 25.843 13.5612C25.0648 13.2098 24.3522 13.1823 23.8358 13.4837L23.8359 13.4837ZM22.5247 12.6128C21.8919 11.6436 21.1482 10.1443 20.8966 8.5275C20.2634 10.0191 19.9323 11.657 20.0412 13.3658C20.6198 13.3907 21.2018 13.5594 21.7622 13.8644C21.9177 13.3658 22.175 12.9423 22.5246 12.6129L22.5247 12.6128ZM24.1305 5.21792C26.3951 7.28862 29.2481 7.99285 32.9579 7.39802C30.1337 5.24819 27.2265 4.53052 24.1305 5.21792ZM18.1107 16.1945C17.6956 17.1029 17.6117 18.2721 17.8744 19.4864L17.8745 19.4872C18.1364 20.7027 18.7096 21.8005 19.4885 22.5784C20.1993 23.2881 20.9919 23.6353 21.7197 23.5554C23.2902 23.3835 24.1844 21.2303 23.6722 18.8536C23.1729 16.5457 21.4982 14.7219 19.964 14.7754C19.9182 14.777 19.8726 14.7803 19.827 14.7853C19.0989 14.865 18.4893 15.3654 18.1106 16.1945L18.1107 16.1945ZM6.48968 25.1317L21.1884 30.7919L23.2888 26.8487L8.59013 21.1885L6.48967 25.1316L6.48968 25.1317ZM11.1855 36.3746L25.7734 41.9921L23.9236 28.8305L22.2112 32.0452C22.103 32.2484 21.8952 32.3668 21.6652 32.3748C21.5674 32.3782 21.4655 32.3617 21.3656 32.3232L10.001 27.9469L11.1855 36.3746ZM43.5832 36.6604C43.1567 35.6305 42.3623 34.7854 41.3464 34.2802C40.6694 33.9435 39.9478 33.7845 39.2428 33.8092C38.89 33.8215 38.5415 33.8798 38.2045 33.9847C36.1209 34.6363 35.1429 36.8951 36.025 39.0196C36.9053 41.1432 39.3177 42.3423 41.4032 41.693C42.4132 41.3774 43.196 40.6803 43.6078 39.7302C44.0195 38.7801 44.0107 37.6899 43.5832 36.6604ZM41.1176 35.9681L39.1722 38.1815L38.1674 37.3398C37.8502 37.0741 37.3993 37.0904 37.1603 37.3759C36.9212 37.6615 36.9844 38.1083 37.3016 38.374L38.8682 39.6864C39.0264 39.8189 39.2181 39.8815 39.4003 39.8751C39.5779 39.8689 39.7464 39.7974 39.8659 39.6613L42.247 36.9521C42.493 36.6723 42.4394 36.2252 42.1275 35.9534C41.8156 35.6817 41.3634 35.6882 41.1175 35.968L41.1176 35.9681Z" fill="white"/>
</g>
</svg>
