<svg width="48" height="43" viewBox="0 0 48 43" fill="none" xmlns="http://www.w3.org/2000/svg">
<g id="pay_1570917 1" clip-path="url(#clip0_77_14486)">
<path id="Vector" d="M39.1763 30.3501L37.2944 29.3797C36.7209 29.0844 36.0919 28.9399 35.4748 28.9611L32.8608 29.0524C32.3255 29.0701 31.8023 29.157 31.3038 29.3104L23.7222 31.6803C22.8942 31.946 22.2919 32.6056 22.1073 33.4493L14.6577 29.9775C14.0514 29.6804 13.3786 29.5958 12.7609 29.7387C12.5274 29.789 12.3059 29.8727 12.1028 29.9872C11.6431 30.238 11.2876 30.6297 11.0833 31.1094C10.9044 31.5271 10.8454 31.995 10.9116 32.4665C11.0396 33.4296 11.6798 34.3038 12.5881 34.7569L26.0387 41.6843C26.6247 41.9964 27.2707 42.1499 27.905 42.1277L37.514 41.7922C37.9433 41.7775 38.3572 41.6822 38.7341 41.5118L40.6251 40.659L40.7684 41.6786L47.5881 41.4404L45.6887 27.9254L38.8689 28.1635L39.1763 30.3501ZM38.0563 40.2725C37.8307 40.3743 37.5827 40.4313 37.326 40.4406L27.7151 40.7762C27.3308 40.7893 26.9391 40.6953 26.585 40.5047L13.1162 33.5693C12.6597 33.3422 12.3379 32.9031 12.2733 32.4196C12.241 32.1827 12.2712 31.9475 12.3612 31.7375C12.4643 31.4995 12.6424 31.3052 12.8716 31.1812C12.9725 31.1253 13.0819 31.0843 13.1972 31.0597C13.2812 31.0409 13.3676 31.0296 13.4552 31.0265C13.6896 31.0177 13.9285 31.0703 14.1482 31.1787L22.2256 34.9386C22.24 34.9795 22.2457 35.0201 22.2625 35.061C22.7513 36.2293 23.9463 37.0108 25.1803 36.9691C25.5551 36.9215 25.9217 36.8417 26.2762 36.7312L33.0977 34.605L32.5625 33.3116L25.7629 35.4288C25.4619 35.5106 25.072 35.6058 24.9901 35.6156C24.3742 35.6381 23.7767 35.2491 23.5318 34.6662C23.4983 34.5851 23.4736 34.5017 23.457 34.4174C23.457 34.4174 23.4287 34.254 23.426 34.1964C23.3985 33.6293 23.7314 33.1409 24.2618 32.9695L31.8412 30.6076C32.2281 30.487 32.6348 30.4184 33.0507 30.4039L35.6647 30.3126C36.035 30.2997 36.4123 30.3867 36.7561 30.564L39.3976 31.9254L40.4207 39.2052L38.0563 40.2725ZM40.4228 29.4674L44.5147 29.3245L46.0342 40.1365L41.9424 40.2794L40.4228 29.4674Z" fill="white"/>
<path id="Vector_2" d="M29.859 6.74784L25.6913 3.25101C24.3819 2.1465 22.729 1.55964 21.101 1.62113L12.527 1.92054C11.998 1.93968 11.4934 2.08031 11.0523 2.33047L9.63035 3.14143C9.34546 3.30489 9.01539 3.3897 8.67083 3.38814L7.97448 3.38825L7.79145 2.08591L0.971683 2.32406L3.06104 17.1906L9.8808 16.9524L9.59589 14.9252L10.7554 14.8847L11.2059 15.1405C12.4672 15.8598 13.8718 16.2418 15.2638 16.2436L16.4763 24.8709L45.1193 23.8707L42.65 6.30116L29.859 6.74784ZM8.32691 15.6486L4.23505 15.7915L2.52558 3.62793L6.61744 3.48504L8.32691 15.6486ZM11.8028 13.9897L10.9744 13.5189L9.40595 13.5737L8.16452 4.74041L8.81073 4.74072C9.38465 4.74091 9.9343 4.59936 10.41 4.3291L11.8306 3.51819C12.0952 3.36736 12.3989 3.28315 12.7169 3.27204L21.2909 2.97263C22.5571 2.92477 23.843 3.38121 24.8612 4.23991L27.9303 6.81519L22.3026 7.01171L20.4168 5.42963L19.5871 6.41852L25.0754 11.0241C25.6848 11.5333 25.807 12.3912 25.3488 12.9404C24.8902 13.4892 24.0246 13.5211 23.4153 13.0118L18.8314 9.16549L18.4108 9.58768C17.2484 10.743 15.3253 10.8387 13.8236 9.81551L13.3837 9.5119L12.6718 10.5918L13.1165 10.8989C13.581 11.2153 14.087 11.4609 14.6148 11.6261L15.0737 14.8914C13.9506 14.8812 12.8196 14.5696 11.8028 13.9897ZM21.4151 13.0184L22.5874 14.0023C23.8022 15.0077 25.5173 14.9495 26.441 13.8711C25.6558 15.442 26.338 17.4723 27.9899 18.4806C29.6418 19.4889 31.6789 19.1184 32.6145 17.6397C33.5501 16.1607 33.0535 14.0964 31.4867 12.9535C29.9203 11.8105 27.8378 11.993 26.7597 13.3676C27.1237 12.6264 27.08 11.72 26.6423 10.9346L35.7747 10.6157C36.3071 12.3057 37.8382 13.5905 39.595 13.8212L39.9906 16.6364C38.3156 16.987 37.1587 18.3657 37.1043 20.0762L23.3516 20.5564C22.8192 18.8664 21.2881 17.5816 19.5313 17.3509L19.1357 14.5357C20.0875 14.339 20.8975 13.7997 21.4151 13.0184ZM27.5172 15.6575C27.3599 14.5379 28.1484 13.5982 29.2782 13.5588C30.4081 13.5193 31.4517 14.3951 31.6091 15.5146C31.7664 16.6341 30.9779 17.5738 29.8481 17.6133C28.7182 17.6528 27.6746 16.777 27.5172 15.6575ZM43.5654 22.5668L17.6503 23.4718L16.0186 11.8616C17.1111 11.9044 18.1506 11.5935 18.9783 10.9774L20.3038 12.0896C19.8888 12.7965 19.1349 13.2323 18.2716 13.2641L17.5897 13.2879L18.3494 18.6939L19.0314 18.6701C20.5379 18.6175 21.9294 19.7851 22.1392 21.2778L22.2342 21.9536L38.6016 21.382L38.5066 20.7063C38.2968 19.2136 39.3482 17.9606 40.8547 17.908L41.5366 17.8842L40.7769 12.4782L40.0949 12.502C38.5884 12.5546 37.1969 11.387 36.9871 9.89425L36.8921 9.2185L25.4104 9.61945L23.8565 8.31558L41.476 7.70029L43.5654 22.5668Z" fill="white"/>
</g>
<defs>
<clipPath id="clip0_77_14486">
<rect width="40.9436" height="40.9436" fill="white" transform="matrix(0.999391 -0.0348995 0.139173 0.990268 0.97168 2.3241)"/>
</clipPath>
</defs>
</svg>
