<svg width="47" height="43" viewBox="0 0 47 43" fill="none" xmlns="http://www.w3.org/2000/svg">
<g id="analytics_6104042 1" clip-path="url(#clip0_77_14466)">
<g id="07-Analytics">
<path id="Vector" d="M20.8815 34.6701L9.37313 35.072C8.86452 35.0892 8.34881 34.9058 7.93915 34.5621C7.52949 34.2183 7.25934 33.7423 7.18796 33.2384L3.89367 9.79827L35.8613 8.68193L36.4846 13.1166C36.5082 13.2846 36.5982 13.4434 36.7348 13.558C36.8714 13.6726 37.0434 13.7337 37.213 13.7277C37.3825 13.7218 37.5358 13.6494 37.639 13.5264C37.7422 13.4034 37.7869 13.2399 37.7633 13.0719L36.6949 5.46969C36.5759 4.62994 36.1256 3.83659 35.4428 3.2637C34.7601 2.6908 33.9006 2.38513 33.0529 2.41374L4.92138 3.39612C4.07399 3.4267 3.3084 3.78912 2.79256 4.40387C2.27672 5.01862 2.05275 5.83551 2.16978 6.67534L5.90926 33.2831C6.02828 34.1228 6.47855 34.9162 7.1613 35.4891C7.84405 36.062 8.70353 36.3676 9.5512 36.339L21.0596 35.9371C21.2291 35.9312 21.3824 35.8588 21.4856 35.7358C21.5888 35.6128 21.6335 35.4493 21.6099 35.2813C21.5863 35.1133 21.4963 34.9545 21.3597 34.8399C21.2231 34.7252 21.0511 34.6642 20.8815 34.6701ZM5.09945 4.66315L33.231 3.68078C33.7396 3.66357 34.2553 3.84696 34.665 4.1907C35.0746 4.53445 35.3448 5.01048 35.4162 5.51435L35.6833 7.4149L3.7156 8.53124L3.44849 6.63068C3.37823 6.12678 3.51259 5.63662 3.82211 5.26776C4.13162 4.8989 4.59099 4.68146 5.09945 4.66315ZM6.00591 6.54138C5.9883 6.41608 6.00858 6.29229 6.06419 6.18565C6.1198 6.07902 6.20824 5.99433 6.31833 5.9423C6.42842 5.89027 6.55521 5.87324 6.68267 5.89335C6.81012 5.91346 6.93253 5.96982 7.03439 6.0553C7.13626 6.14078 7.21302 6.25153 7.25496 6.37356C7.2969 6.49559 7.30214 6.62341 7.27002 6.74086C7.23789 6.85831 7.16985 6.96011 7.07449 7.0334C6.97914 7.10668 6.86075 7.14815 6.73429 7.15257C6.56473 7.15849 6.39272 7.09742 6.25612 6.9828C6.11953 6.86818 6.02952 6.7094 6.00591 6.54138ZM9.84203 6.40742C9.82442 6.28212 9.8447 6.15833 9.90031 6.05169C9.95592 5.94506 10.0444 5.86037 10.1545 5.80834C10.2645 5.75631 10.3913 5.73928 10.5188 5.75939C10.6462 5.7795 10.7686 5.83586 10.8705 5.92134C10.9724 6.00682 11.0491 6.11757 11.0911 6.2396C11.133 6.36163 11.1383 6.48945 11.1061 6.6069C11.074 6.72435 11.006 6.82615 10.9106 6.89944C10.8153 6.97272 10.6969 7.01419 10.5704 7.01861C10.4008 7.02453 10.2288 6.96346 10.0922 6.84884C9.95565 6.73422 9.86564 6.57544 9.84203 6.40742ZM13.6781 6.27346C13.6605 6.14816 13.6808 6.02437 13.7364 5.91773C13.792 5.8111 13.8805 5.72641 13.9906 5.67438C14.1007 5.62235 14.2275 5.60532 14.3549 5.62543C14.4824 5.64554 14.6048 5.7019 14.7066 5.78738C14.8085 5.87285 14.8853 5.98361 14.9272 6.10564C14.9691 6.22767 14.9744 6.35549 14.9423 6.47294C14.9101 6.59039 14.8421 6.69219 14.7467 6.76548C14.6514 6.83876 14.533 6.88023 14.4065 6.88465C14.237 6.89057 14.065 6.8295 13.9284 6.71488C13.7918 6.60026 13.7018 6.44148 13.6781 6.27346ZM42.2956 22.463L37.1808 22.6416C37.0112 22.6476 36.8579 22.72 36.7547 22.843C36.6515 22.966 36.6068 23.1295 36.6304 23.2975L38.9453 39.7689C38.969 39.937 39.059 40.0957 39.1956 40.2104C39.3322 40.325 39.5042 40.386 39.6737 40.3801L44.7886 40.2015C44.9581 40.1956 45.1114 40.1232 45.2146 40.0002C45.3178 39.8772 45.3625 39.7137 45.3389 39.5457L43.024 23.0742C43.0004 22.9062 42.9104 22.7474 42.7738 22.6328C42.6372 22.5182 42.4652 22.4571 42.2956 22.463ZM43.9711 38.9568L40.135 39.0908L37.9982 23.8863L41.8343 23.7524L43.9711 38.9568ZM35.1576 26.532L30.0427 26.7107C29.8732 26.7166 29.7199 26.789 29.6167 26.912C29.5135 27.035 29.4688 27.1985 29.4924 27.3665L31.2731 40.0369C31.2967 40.2049 31.3867 40.3637 31.5233 40.4783C31.6599 40.5929 31.8319 40.654 32.0015 40.648L37.1163 40.4694C37.2859 40.4635 37.4391 40.3911 37.5423 40.2681C37.6455 40.1451 37.6903 39.9816 37.6666 39.8136L35.8859 27.1432C35.8623 26.9752 35.7723 26.8164 35.6357 26.7018C35.4991 26.5872 35.3271 26.5261 35.1576 26.532ZM36.2989 39.2247L32.4628 39.3587L30.8601 27.9554L34.6963 27.8214L36.2989 39.2247ZM28.0195 30.6011L22.9047 30.7797C22.7351 30.7856 22.5819 30.858 22.4787 30.981C22.3755 31.104 22.3308 31.2675 22.3544 31.4355L23.6009 40.3048C23.6245 40.4728 23.7145 40.6316 23.8511 40.7462C23.9877 40.8608 24.1597 40.9219 24.3293 40.916L29.4441 40.7373C29.6136 40.7314 29.7669 40.659 29.8701 40.536C29.9733 40.413 30.018 40.2495 29.9944 40.0815L28.7479 31.2123C28.7243 31.0442 28.6343 30.8855 28.4977 30.7708C28.3611 30.6562 28.1891 30.5952 28.0195 30.6011ZM28.6267 39.4926L24.7905 39.6266L23.7221 32.0244L27.5582 31.8904L28.6267 39.4926ZM7.69757 18.5782C7.87367 19.8312 8.42078 21.0429 9.26973 22.0602C10.1187 23.0775 11.2313 23.8546 12.467 24.2933C13.7026 24.732 15.0058 24.8126 16.2117 24.5248C17.4175 24.2371 18.472 23.5939 19.2416 22.6767C20.0112 21.7595 20.4615 20.6094 20.5355 19.3719C20.6095 18.1344 20.3038 16.865 19.6572 15.7243C19.0106 14.5836 18.0521 13.6228 16.9029 12.9634C15.7536 12.304 14.4653 11.9756 13.2008 12.0198C11.5059 12.0808 9.97469 12.8056 8.94299 14.0352C7.9113 15.2647 7.4634 16.8985 7.69757 18.5782ZM14.8034 23.4231C13.5026 23.4691 12.1814 23.022 11.109 22.1729C10.0366 21.3238 9.29351 20.1365 9.03121 18.8528C8.76891 17.5692 9.00707 16.2858 9.69719 15.264C10.3873 14.2422 11.4775 13.5588 12.7457 13.3531L13.4518 18.3773C13.4754 18.5453 13.5654 18.7041 13.702 18.8187C13.8386 18.9333 14.0106 18.9944 14.1801 18.9885L19.2506 18.8114C19.266 20.0405 18.823 21.1867 18.0044 22.0355C17.1859 22.8843 16.0479 23.3776 14.8034 23.4231ZM19.0725 17.5444L14.6414 17.6991L14.0244 13.3085C15.1694 13.4113 16.2865 13.883 17.2002 14.6497C18.1139 15.4164 18.7724 16.4345 19.0725 17.5444ZM20.5415 27.6791C20.5651 27.8471 20.5204 28.0106 20.4172 28.1336C20.3139 28.2566 20.1607 28.329 19.9911 28.3349L9.76148 28.6922C9.59192 28.6981 9.41992 28.637 9.28332 28.5224C9.14672 28.4078 9.05671 28.249 9.0331 28.081C9.00948 27.9129 9.0542 27.7495 9.1574 27.6265C9.26061 27.5035 9.41385 27.431 9.58341 27.4251L19.8131 27.0679C19.9826 27.062 20.1546 27.123 20.2912 27.2377C20.4278 27.3523 20.5178 27.5111 20.5415 27.6791ZM10.2957 32.4933C10.1261 32.4992 9.95413 32.4381 9.81753 32.3235C9.68093 32.2089 9.59092 32.0501 9.56731 31.8821C9.54369 31.714 9.58841 31.5506 9.69161 31.4276C9.79482 31.3046 9.94806 31.2321 10.1176 31.2262L15.8718 31.0253C16.0414 31.0194 16.2134 31.0804 16.35 31.195C16.4866 31.3097 16.5766 31.4685 16.6002 31.6365C16.6238 31.8045 16.5791 31.968 16.4759 32.091C16.3727 32.214 16.2194 32.2864 16.0499 32.2923L10.2957 32.4933ZM21.6014 12.363C21.5778 12.195 21.6225 12.0315 21.7257 11.9085C21.8289 11.7855 21.9821 11.7131 22.1517 11.7072L31.742 11.3723C31.9116 11.3664 32.0836 11.4274 32.2202 11.5421C32.3568 11.6567 32.4468 11.8155 32.4704 11.9835C32.494 12.1515 32.4493 12.315 32.3461 12.438C32.2429 12.561 32.0896 12.6334 31.9201 12.6393L22.3298 12.9742C22.1602 12.9801 21.9882 12.9191 21.8516 12.8045C21.715 12.6898 21.625 12.5311 21.6014 12.363ZM22.1356 16.1641C22.112 15.9961 22.1567 15.8326 22.2599 15.7096C22.3631 15.5866 22.5163 15.5142 22.6859 15.5083L32.2762 15.1734C32.4458 15.1675 32.6178 15.2285 32.7544 15.3432C32.891 15.4578 32.981 15.6166 33.0046 15.7846C33.0282 15.9526 32.9835 16.1161 32.8803 16.2391C32.7771 16.3621 32.6239 16.4345 32.4543 16.4404L22.864 16.7753C22.6944 16.7812 22.5224 16.7202 22.3858 16.6056C22.2492 16.4909 22.1592 16.3322 22.1356 16.1641ZM22.6698 19.9652C22.6462 19.7972 22.6909 19.6337 22.7941 19.5107C22.8973 19.3877 23.0506 19.3153 23.2201 19.3094L27.0562 19.1754C27.2258 19.1695 27.3978 19.2306 27.5344 19.3452C27.671 19.4598 27.761 19.6186 27.7846 19.7866C27.8082 19.9546 27.7635 20.1181 27.6603 20.2411C27.5571 20.3641 27.4039 20.4365 27.2343 20.4425L23.3982 20.5764C23.2286 20.5824 23.0566 20.5213 22.92 20.4067C22.7834 20.292 22.6934 20.1333 22.6698 19.9652ZM36.1123 15.0394L39.9485 14.9055C40.118 14.8996 40.29 14.9606 40.4266 15.0752C40.5632 15.1899 40.6532 15.3486 40.6768 15.5167L41.2111 19.3178C41.2347 19.4858 41.19 19.6493 41.0868 19.7723C40.9835 19.8953 40.8303 19.9677 40.6607 19.9736C40.4912 19.9795 40.3192 19.9185 40.1826 19.8038C40.046 19.6892 39.956 19.5304 39.9323 19.3624L39.6131 17.0907L33.9486 23.8412C33.8976 23.9021 33.8337 23.9513 33.7606 23.9858C33.6875 24.0204 33.6066 24.0397 33.5227 24.0426C33.4387 24.0455 33.3533 24.0321 33.2712 24.0029C33.1892 23.9738 33.1122 23.9296 33.0446 23.8728L30.646 21.8602L24.4313 29.2666C24.3275 29.3878 24.1746 29.4587 24.0059 29.4638C23.8373 29.469 23.6665 29.4079 23.5307 29.294C23.395 29.1801 23.3052 29.0225 23.2809 28.8555C23.2567 28.6885 23.3 28.5256 23.4013 28.4024L30.0051 20.5322C30.0562 20.4713 30.1201 20.4222 30.1932 20.3876C30.2663 20.3531 30.3471 20.3338 30.4311 20.3309C30.5151 20.3279 30.6005 20.3414 30.6825 20.3705C30.7646 20.3997 30.8416 20.4439 30.9092 20.5007L33.3078 22.5133L38.5831 16.2264L36.2904 16.3065C36.1208 16.3124 35.9488 16.2513 35.8122 16.1367C35.6756 16.0221 35.5856 15.8633 35.562 15.6953C35.5384 15.5273 35.5831 15.3638 35.6863 15.2408C35.7895 15.1178 35.9428 15.0454 36.1123 15.0394Z" fill="white"/>
</g>
</g>
<defs>
<clipPath id="clip0_77_14466">
<rect width="40.9436" height="40.9436" fill="white" transform="matrix(0.999391 -0.0348995 0.139173 0.990268 0.267578 2.28522)"/>
</clipPath>
</defs>
</svg>
