<svg width="47" height="43" viewBox="0 0 47 43" fill="none" xmlns="http://www.w3.org/2000/svg">
<g id="chart_15693740 1" clip-path="url(#clip0_77_14474)">
<g id="Group">
<path id="Vector" d="M10.7017 22.6985C10.8798 23.9655 11.8267 24.7601 13.1143 24.7788L16.375 24.6649C17.5898 24.6225 18.3691 23.7677 18.2 22.564C17.6658 18.7629 17.5144 17.6859 16.9802 13.8848C16.811 12.6811 15.8641 11.8866 14.6493 11.929L11.3247 12.0451C10.1099 12.0875 9.39452 12.9401 9.56369 14.1438L9.8486 16.1711L10.7017 22.6985ZM11.0892 14.0269C11.0358 13.6467 11.2187 13.5767 11.4656 13.5044L14.7902 13.3883C15.1099 13.3772 15.2555 13.4994 15.3001 13.8162L16.5198 22.4953C16.5644 22.8121 16.5182 22.941 16.0707 22.9567L12.8739 23.0683C12.4903 23.0817 12.3446 22.9595 12.2823 22.516L11.3563 15.9274C11.294 15.4839 11.2317 15.0405 11.0892 14.0269Z" fill="white"/>
<path id="Vector_2" d="M28.9875 22.0601C29.1656 23.3272 30.1125 24.1217 31.4001 24.1404L34.6608 24.0265C35.8756 23.9841 36.655 23.1293 36.4858 21.9256C35.9516 18.1245 35.1414 12.3595 34.6071 8.55839C34.438 7.35471 33.4911 6.56016 32.2763 6.60258L28.9517 6.71868C27.7369 6.7611 27.0215 7.6137 27.1906 8.81738L27.805 13.1886L28.9875 22.0601ZM28.7162 8.70044C28.6628 8.32033 28.8457 8.25029 29.0925 8.178L32.4171 8.0619C32.7368 8.05074 32.8825 8.17298 32.927 8.48974L34.8057 21.857C34.8502 22.1737 34.804 22.3026 34.3565 22.3183L31.1597 22.4299C30.7761 22.4433 30.6304 22.3211 30.5681 21.8776L29.3127 12.945C29.0634 11.1712 28.8765 9.84078 28.7162 8.70044Z" fill="white"/>
<path id="Vector_3" d="M22.1847 24.3985L25.4454 24.2846C26.7241 24.2399 27.4395 23.3873 27.2615 22.1203L27.0033 20.2831L26.6649 17.8757C26.4958 16.6721 25.5489 15.8775 24.3252 15.8566L21.0005 15.9727C19.7858 16.0151 19.0704 16.8677 19.2484 18.1347L19.845 22.3793C19.9591 23.6486 20.906 24.4431 22.1847 24.3985ZM20.7829 18.0812C20.7206 17.6377 20.9035 17.5676 21.1592 17.5587L24.4838 17.4426C24.8675 17.4292 24.9492 17.5537 25.0026 17.9338L25.3409 20.3412L25.5991 22.1784C25.6526 22.5585 25.5425 22.6896 25.1589 22.703L21.9621 22.8147C21.5785 22.8281 21.4328 22.7058 21.3794 22.3257L20.7829 18.0812Z" fill="white"/>
<path id="Vector_4" d="M35.3772 2.61069L6.35058 3.62432C3.40955 3.72702 1.37337 6.15364 1.77403 9.00447L4.60535 29.1503C5.01491 32.0645 7.70995 34.3259 10.651 34.2232L24.3971 33.7432L25.0025 38.0511L19.2483 38.252C18.8008 38.2677 18.4706 38.6612 18.5329 39.1046C18.5952 39.5481 19.0323 39.9148 19.4798 39.8992L26.0012 39.6714L32.5866 39.4415C33.0341 39.4259 33.3643 39.0323 33.302 38.5889C33.2397 38.1454 32.8026 37.7787 32.3551 37.7943L26.6009 37.9953L25.9955 33.6874L39.7416 33.2073C42.6826 33.1046 44.7188 30.678 44.3092 27.7638L41.4779 7.61798C41.0133 4.76939 38.3183 2.50798 35.3772 2.61069ZM42.6469 27.8219C42.9318 29.8491 41.501 31.5543 39.455 31.6258L10.4284 32.6394C8.38245 32.7109 6.48864 31.1218 6.20373 29.0945L3.37242 8.94866C3.0875 6.9214 4.51833 5.21621 6.56426 5.14476L35.5909 4.13113C37.6368 4.05968 39.5307 5.64878 39.8156 7.67603L42.6469 27.8219Z" fill="white"/>
<path id="Vector_5" d="M37.9113 26.5869L10.547 27.5424C10.0994 27.5581 9.76924 27.9516 9.83157 28.395C9.89389 28.8385 10.3309 29.2052 10.7785 29.1896L38.1428 28.234C38.5903 28.2184 38.9205 27.8249 38.8582 27.3814C38.7959 26.9379 38.3589 26.5712 37.9113 26.5869Z" fill="white"/>
</g>
</g>
<defs>
<clipPath id="clip0_77_14474">
<rect width="40.9436" height="40.9436" fill="white" transform="matrix(0.999391 -0.0348995 0.139173 0.990268 0.120117 1.80463)"/>
</clipPath>
</defs>
</svg>
