<svg width="11" height="11" viewBox="0 0 11 11" fill="none" xmlns="http://www.w3.org/2000/svg">
<path id="Vector" d="M4.09652 0.33555C4.09875 0.123439 4.44425 0.0265627 4.55467 0.207754C5.07393 1.05703 5.95007 2.30056 6.91366 2.84711C7.87719 3.39173 9.3962 3.50446 10.3911 3.51212C10.6032 3.51435 10.6982 3.85993 10.517 3.97034C9.6677 4.48961 8.42609 5.36568 7.87954 6.32927C7.33299 7.29287 7.22219 8.81181 7.21452 9.80671C7.21229 10.0188 6.86479 10.1138 6.7563 9.93258C6.23704 9.0833 5.36097 7.8417 4.39545 7.29522C3.43185 6.74867 1.91291 6.63786 0.919944 6.63013C0.707833 6.6279 0.610886 6.28047 0.792145 6.17198C1.64142 5.65272 2.88495 4.77658 3.43143 3.81106C3.97606 2.84753 4.08878 1.32852 4.09652 0.33555Z" fill="#3579F6"/>
</svg>
