<svg width="33" height="33" viewBox="0 0 33 33" fill="none" xmlns="http://www.w3.org/2000/svg">
<path d="M16.5 28.808C23.1274 28.808 28.5 23.4354 28.5 16.808C28.5 10.1806 23.1274 4.80798 16.5 4.80798C9.87258 4.80798 4.5 10.1806 4.5 16.808C4.5 23.4354 9.87258 28.808 16.5 28.808Z" fill="white"/>
<path fill-rule="evenodd" clip-rule="evenodd" d="M19.9649 18.808C19.2733 20.0036 17.9806 20.808 16.5 20.808C14.2909 20.808 12.5 19.0171 12.5 16.808C12.5 14.5989 14.2909 12.808 16.5 12.808C17.9806 12.808 19.2733 13.6124 19.9649 14.808H23.2101C22.3496 11.9165 19.671 9.80798 16.5 9.80798C12.634 9.80798 9.5 12.942 9.5 16.808C9.5 20.674 12.634 23.808 16.5 23.808C19.671 23.808 22.3496 21.6995 23.2101 18.808H19.9649Z" fill="#3579F6"/>
</svg>
