<svg width="24" height="25" viewBox="0 0 24 25" fill="none" xmlns="http://www.w3.org/2000/svg">
<g clip-path="url(#clip0_1024_23225)">
<path d="M20.6461 5.48337H19.7323V3.93692C19.7323 3.74279 19.5749 3.58545 19.3808 3.58545H15.1632C14.9691 3.58545 14.8117 3.74279 14.8117 3.93692V5.48337H13.8979C13.7038 5.48337 13.5465 5.64071 13.5465 5.83484V9.06834H10.1724V6.88924C10.1724 6.69511 10.015 6.53777 9.8209 6.53777H8.69621V5.34278C8.69621 5.14865 8.53887 4.99132 8.34474 4.99132H6.86858V3.93692C6.86858 3.74279 6.71124 3.58545 6.51711 3.58545C6.32298 3.58545 6.16565 3.74279 6.16565 3.93692V4.99132H4.68948C4.49535 4.99132 4.33802 5.14865 4.33802 5.34278V6.53777H3.35391C3.15978 6.53777 3.00244 6.69511 3.00244 6.88924V11.9504C3.00244 12.1445 3.15978 12.3018 3.35391 12.3018C3.54804 12.3018 3.70538 12.1445 3.70538 11.9504V7.24071H9.46944V9.06834H7.14975C6.95562 9.06834 6.79829 9.22567 6.79829 9.4198V18.1665C5.65272 18.3986 4.78765 19.413 4.78765 20.626C4.78765 20.71 4.79218 20.794 4.80055 20.8776H3.70538V14.7621C3.70538 14.568 3.54804 14.4106 3.35391 14.4106C3.15978 14.4106 3.00244 14.568 3.00244 14.7621V21.2291C3.00244 21.4232 3.15978 21.5806 3.35391 21.5806H20.6461C20.8402 21.5806 20.9976 21.4232 20.9976 21.2291V5.83484C20.9976 5.64071 20.8402 5.48337 20.6461 5.48337ZM5.04095 6.53777V5.69425H7.99327V6.53777H5.04095ZM15.5147 4.28838H19.0293V5.48337H15.5147V4.28838ZM13.5465 9.77127V18.1594C13.4605 18.152 13.3739 18.148 13.2867 18.148C12.3155 18.148 11.4047 18.6101 10.8268 19.3754C10.4568 19.1136 10.0058 18.9591 9.51914 18.9591C9.40985 18.9591 9.30057 18.9671 9.19252 18.9827C8.76293 18.4881 8.15363 18.1797 7.50122 18.126V17.6441H12.2905C12.4846 17.6441 12.642 17.4868 12.642 17.2927C12.642 17.0985 12.4846 16.9412 12.2905 16.9412H7.50122V15.6759H12.2905C12.4846 15.6759 12.642 15.5186 12.642 15.3245C12.642 15.1303 12.4846 14.973 12.2905 14.973H7.50122V13.7077H12.2905C12.4846 13.7077 12.642 13.5504 12.642 13.3562C12.642 13.1621 12.4846 13.0048 12.2905 13.0048H7.50122V11.7395H10.8846C11.0788 11.7395 11.2361 11.5822 11.2361 11.388C11.2361 11.1939 11.0788 11.0366 10.8846 11.0366H7.50122V9.77127H13.5465ZM9.8209 20.8776H5.50829C5.49649 20.7943 5.49058 20.7101 5.49058 20.626C5.49058 19.7133 6.17114 18.9569 7.05145 18.8367C7.08262 18.8458 7.11557 18.8509 7.14975 18.8509C7.20124 18.8509 7.25011 18.8395 7.29418 18.8196H7.29693C7.87671 18.8196 8.42547 19.1015 8.76472 19.5738C8.84888 19.6909 8.99592 19.7447 9.13582 19.7096C9.26103 19.6781 9.38994 19.6621 9.51914 19.6621C10.2624 19.6621 10.8864 20.1822 11.0465 20.8776H9.8209ZM13.8979 20.8776H11.7618C11.7034 20.5039 11.5538 20.1603 11.3362 19.87C11.7785 19.2366 12.5074 18.8509 13.2868 18.8509C14.126 18.8509 14.912 19.3014 15.3381 20.0264C15.4118 20.1519 15.5556 20.219 15.6988 20.195C15.7569 20.1854 15.8152 20.1805 15.872 20.1805C16.327 20.1805 16.7152 20.4718 16.86 20.8776H13.8979ZM20.2946 20.8776H19.3105V7.52188C19.3105 7.32775 19.1532 7.17041 18.959 7.17041C18.7649 7.17041 18.6076 7.32775 18.6076 7.52188V20.8776H17.6235V7.52188C17.6235 7.32775 17.4661 7.17041 17.272 7.17041C17.0779 7.17041 16.9205 7.32775 16.9205 7.52188V19.8271C16.6442 19.6198 16.3048 19.4924 15.9364 19.4792V7.52188C15.9364 7.32775 15.7791 7.17041 15.585 7.17041C15.3908 7.17041 15.2335 7.32775 15.2335 7.52188V18.8439C14.9412 18.606 14.6073 18.4227 14.2494 18.3041V6.18631H20.2946V20.8776Z" fill="#3579F6"/>
<path d="M12.3872 11.458C12.5104 11.458 12.6315 11.4078 12.7186 11.3207C12.8058 11.2335 12.856 11.1125 12.856 10.9893C12.856 10.866 12.8058 10.745 12.7186 10.6578C12.6315 10.5707 12.5104 10.5205 12.3872 10.5205C12.2634 10.5205 12.1429 10.5707 12.0558 10.6578C11.9683 10.745 11.9185 10.866 11.9185 10.9893C11.9185 11.1125 11.9683 11.2335 12.0558 11.3207C12.1429 11.4078 12.2634 11.458 12.3872 11.458Z" fill="#3579F6"/>
<path d="M0.468506 14.083C0.591736 14.083 0.712769 14.0328 0.799927 13.9457C0.887085 13.8585 0.937256 13.7375 0.937256 13.6143C0.937256 13.491 0.887085 13.37 0.799927 13.2828C0.712769 13.1957 0.591736 13.1455 0.468506 13.1455C0.345276 13.1455 0.224243 13.1957 0.137085 13.2828C0.0499267 13.37 -0.000244141 13.491 -0.000244141 13.6143C-0.000244141 13.7375 0.0499267 13.8585 0.137085 13.9457C0.224243 14.0328 0.345276 14.083 0.468506 14.083Z" fill="#3579F6"/>
</g>
<defs>
<clipPath id="clip0_1024_23225">
<rect width="24" height="24" fill="white" transform="translate(0 0.583008)"/>
</clipPath>
</defs>
</svg>
