<svg width="20" height="21" viewBox="0 0 20 21" fill="none" xmlns="http://www.w3.org/2000/svg">
<g clip-path="url(#clip0_1024_23200)">
<path d="M8.39917 14.3445H9.0228V14.9291H8.39917V14.3445Z" fill="#3579F6"/>
<path d="M9.64648 14.3445H10.2701V14.9291H9.64648V14.3445Z" fill="#3579F6"/>
<path d="M10.8938 14.3445H11.5174V14.9291H10.8938V14.3445Z" fill="#3579F6"/>
<path d="M16.8501 9.16105C16.2903 8.09293 15.4758 7.15526 14.4947 6.44947L14.1532 6.92405C14.8393 7.41761 15.437 8.03376 15.9117 8.73176H13.9495C13.7617 8.2136 13.5364 7.72931 13.2753 7.28856C13.7519 6.36547 13.9926 5.48564 13.9926 4.65863C13.9926 2.43421 12.1829 0.624512 9.95853 0.624512C7.73411 0.624512 5.92441 2.43421 5.92441 4.65863C5.92441 5.48564 6.16517 6.36547 6.64178 7.28852C6.38071 7.72931 6.15535 8.21356 5.96763 8.73172H4.00538C4.48008 8.03372 5.07783 7.41758 5.76386 6.92401L5.42242 6.44943C4.44129 7.15522 3.62679 8.09289 3.06697 9.16102C2.48843 10.2649 2.18262 11.5114 2.18262 12.7658C2.18262 17.0535 5.67086 20.5417 9.95853 20.5417C14.2462 20.5417 17.7344 17.0535 17.7344 12.7658C17.7344 11.5114 17.4286 10.2649 16.8501 9.16105ZM9.6662 19.9384C8.71641 19.8173 7.8229 19.1079 7.1242 17.9102C6.92405 17.5671 6.74643 17.1952 6.59263 16.8H9.6662V19.9384ZM10.2509 19.9384V16.8H13.3244C13.1706 17.1953 12.993 17.5671 12.7929 17.9102C12.0942 19.1079 11.2006 19.8173 10.2509 19.9384ZM10.2509 16.2153V15.5722H9.6662V16.2153H6.38792C6.08593 15.2527 5.91451 14.1786 5.88906 13.0582H9.6662V13.7013H10.2509V13.0582H14.028C14.0025 14.1786 13.8311 15.2527 13.5291 16.2153H10.2509ZM2.7737 13.0582H5.30428C5.32857 14.1701 5.49063 15.2417 5.77723 16.2153H3.65022C3.13178 15.271 2.81954 14.1983 2.7737 13.0582ZM8.01225 9.31638C8.72927 10.1826 9.41063 10.8051 9.6662 11.029V12.4735H5.88921C5.9154 11.3627 6.09006 10.282 6.39186 9.31638H8.01225ZM11.9048 9.31638H13.5252C13.827 10.282 14.0016 11.3627 14.0278 12.4735H10.2509V11.029C10.5064 10.8051 11.1878 10.1826 11.9048 9.31638ZM14.6128 13.0582H17.1433C17.0975 14.1983 16.7853 15.271 16.2668 16.2153H14.1398C14.4264 15.2417 14.5885 14.1701 14.6128 13.0582ZM16.2692 9.31638C16.2904 9.355 16.3118 9.39347 16.3323 9.43249C16.8221 10.3671 17.0997 11.4128 17.1431 12.4735H14.6128C14.5887 11.3577 14.427 10.2877 14.141 9.31638H16.2692ZM13.3217 8.73172H12.3636C12.5758 8.44591 12.7674 8.16344 12.9384 7.88464C13.0786 8.15104 13.2067 8.43425 13.3217 8.73172ZM9.95853 1.20917C11.8606 1.20917 13.408 2.75659 13.408 4.65863C13.408 7.21026 10.7024 9.83294 9.95841 10.5057C9.21418 9.83341 6.50906 7.2133 6.50906 4.65863C6.50906 2.75659 8.05649 1.20917 9.95853 1.20917ZM6.9787 7.88464C7.14969 8.16344 7.3413 8.44587 7.55349 8.73172H6.59532C6.71034 8.43425 6.83846 8.15104 6.9787 7.88464ZM3.58481 9.43249C3.60524 9.39351 3.62668 9.355 3.64788 9.31638H5.77606C5.49005 10.2877 5.32841 11.3577 5.30432 12.4735H2.77398C2.81732 11.4128 3.09491 10.3671 3.58481 9.43249ZM4.00834 16.8H5.96896C6.15106 17.3033 6.36836 17.7749 6.61921 18.2048C6.94681 18.7664 7.31706 19.2338 7.71856 19.5994C6.19456 19.0987 4.89366 18.1016 4.00834 16.8ZM12.1985 19.5994C12.6 19.2338 12.9702 18.7664 13.2978 18.2048C13.5487 17.7749 13.766 17.3033 13.9481 16.8H15.9087C15.0234 18.1016 13.7225 19.0987 12.1985 19.5994Z" fill="#3579F6"/>
<path d="M12.7451 4.65868C12.7451 3.12201 11.4949 1.87183 9.95824 1.87183C8.42157 1.87183 7.17139 3.12201 7.17139 4.65868C7.17139 6.19535 8.42157 7.44553 9.95824 7.44553C11.4949 7.44553 12.7451 6.19535 12.7451 4.65868ZM9.95824 2.45648C10.7183 2.45648 11.3896 2.84356 11.7855 3.43091H8.13096C8.52689 2.84356 9.19819 2.45648 9.95824 2.45648ZM7.85208 4.01556H12.0644C12.1267 4.2191 12.1604 4.43499 12.1604 4.65868C12.1604 4.88237 12.1267 5.09826 12.0644 5.3018H7.85208C7.7898 5.09826 7.75604 4.88237 7.75604 4.65868C7.75604 4.43499 7.7898 4.2191 7.85208 4.01556ZM8.13096 5.88646H11.7855C11.3896 6.4738 10.7183 6.86088 9.95824 6.86088C9.19819 6.86088 8.52689 6.4738 8.13096 5.88646Z" fill="#3579F6"/>
</g>
<defs>
<clipPath id="clip0_1024_23200">
<rect width="19.9172" height="19.9172" fill="white" transform="translate(0 0.624512)"/>
</clipPath>
</defs>
</svg>
