<svg width="58" height="58" viewBox="0 0 58 58" fill="none" xmlns="http://www.w3.org/2000/svg">
<path d="M26.8981 2.18178C26.1956 2.18622 25.8354 2.25736 25.8354 3.85356C25.8354 5.44975 25.9866 54.4827 25.9866 55.0163C25.9866 55.5498 26.5202 55.7766 27.4316 55.7766H31.1576C31.7667 55.7766 31.9935 55.3986 31.9179 54.4071C31.8423 53.4201 31.8334 3.92914 31.8334 3.32446C31.8334 2.71977 31.5577 2.24402 30.584 2.20845C29.7926 2.18622 27.734 2.17733 26.8981 2.18178Z" fill="#02AB47"/>
<path d="M20.5043 20.088C20.5043 20.088 20.3931 17.3046 22.3583 15.5039C24.168 13.8455 25.8575 13.97 25.8575 13.97L25.8753 16.7311C25.8753 16.7311 26.9068 16.3754 28.6498 16.4465C30.3927 16.5177 31.8288 17.1268 31.8288 17.1268V14.2279C31.8288 14.2279 32.7936 14.1834 34.252 15.8996C34.9812 16.7578 35.5814 18.5451 35.7815 19.4788C36.0349 20.6793 36.4751 21.2351 37.6356 21.3196C38.796 21.4041 39.6764 21.3952 40.3922 21.3685C41.4104 21.3329 38.218 15.7885 38.218 15.7885C38.218 15.7885 34.6522 10.413 33.4917 10.3774C32.3268 10.3419 25.1239 10.5241 24.4347 10.8887C23.7456 11.2533 19.2326 14.419 19.2326 14.419L18.6146 19.3277C18.6146 19.3277 20.3264 21.3285 20.3264 21.1817C20.322 21.035 20.5043 20.088 20.5043 20.088ZM17.0407 20.088L13.6437 17.4202C13.6437 17.4202 12.919 22.9247 15.6623 26.2416C17.672 28.6647 20.0285 29.6607 22.1005 30.5722C24.039 31.4214 25.9109 32.0083 25.9109 32.0083L25.9198 35.2629L31.8555 38.4198L31.8466 34.1469C31.8466 34.1469 34.1008 35.3696 35.2302 36.5701C36.3595 37.7706 36.4662 39.2601 36.5018 40.2071C36.5374 41.1542 36.0661 42.6437 36.0661 42.6437L35.4125 45.5515L42.9799 37.9129L25.1239 26.0548L17.0407 20.088Z" fill="#2F7C31"/>
<path d="M14.0571 37.168C14.0571 37.168 13.15 37.9461 13.4124 40.058C13.6525 42.0188 14.7596 45.0778 18.0676 47.7678C21.3756 50.4577 25.9818 50.9735 25.9818 50.9735V53.2188L31.8953 53.2099L31.8864 50.9824C31.8864 50.9824 35.4167 50.8357 38.4001 48.9416C41.5214 46.963 43.8023 42.9258 43.6734 39.1332C43.6289 37.8038 42.7841 38.0127 42.7841 38.0127C42.7841 38.0127 31.9264 47.4032 31.1973 47.4743C30.4681 47.5455 23.4119 46.3094 23.4119 46.3094L16.8315 39.1465L14.0571 37.168Z" fill="#2F7C31"/>
<path d="M16.8312 36.3819C14.617 36.5998 13.8478 37.0355 13.8122 37.6935C13.7766 38.3471 15.7019 49.7784 29.1606 49.5872C42.0724 49.4049 43.6019 41.5484 43.7086 38.4939C43.842 34.8213 41.6723 31.7667 36.7992 28.89C33.1666 26.7514 24.3942 23.5412 22.9403 22.6342C21.602 21.7983 19.739 19.9442 19.9925 17.1787C20.2459 14.4131 23.2649 11.6876 28.8316 11.7231C34.3982 11.7587 36.5902 15.6358 37.0171 16.7785C37.7018 18.6237 37.5684 21.0291 38.5821 21.3448C39.0534 21.4915 40.4362 21.4381 41.2365 21.327C42.0368 21.2158 43.1751 20.6023 43.2373 18.9972C43.3085 17.1431 41.3833 6.7745 28.507 6.88565C16.2132 6.98792 13.1853 14.5287 13.661 18.8549C14.1057 22.9588 17.4492 26.8181 22.8336 29.0012C28.218 31.1843 37.7462 33.8387 37.6395 38.7473C37.5417 43.1535 32.433 44.7097 28.218 44.4963C23.9629 44.2784 21.6331 41.8063 20.7617 38.894C19.9213 36.1062 18.3207 36.2396 16.8312 36.3819Z" fill="#02AB47"/>
<path d="M18.8722 37.7736C18.4187 36.9289 15.3864 37.0578 14.9995 38.4895C14.6083 39.9167 15.9955 42.1443 16.9248 41.9531C18.2008 41.6863 17.1204 40.1568 17.6184 39.5744C18.1119 38.983 19.4324 38.8185 18.8722 37.7736ZM28.6094 2.94192C27.7246 2.91969 26.7331 2.91079 26.6798 4.10238C26.6309 5.25395 26.7109 6.13875 27.1555 6.18321C27.6624 6.23657 28.3782 5.1428 28.6895 4.66705C29.0896 4.07126 29.5654 2.96859 28.6094 2.94192ZM21.8112 9.95806C21.4688 9.46453 19.5747 9.06881 16.947 12.3146C14.3193 15.5603 15.2885 17.2721 15.8888 17.3477C16.7069 17.4499 17.1604 16.7786 17.6628 15.6759C18.3787 14.1064 19.2323 13.1504 20.5662 12.1412C21.7044 11.2786 22.3981 10.8073 21.8112 9.95806Z" fill="#7ADC8A"/>
</svg>
