<svg width="20" height="21" viewBox="0 0 20 21" fill="none" xmlns="http://www.w3.org/2000/svg">
<path d="M10.0002 7.6731C10.7499 7.67316 11.4692 7.97112 11.9993 8.50122C12.5293 9.03135 12.8274 9.7506 12.8274 10.5002C12.8273 11.2499 12.5294 11.9692 11.9993 12.4993C11.4692 13.0294 10.7499 13.3273 10.0002 13.3274C9.2506 13.3274 8.53135 13.0293 8.00122 12.4993C7.47112 11.9692 7.17316 11.2499 7.1731 10.5002C7.1731 9.7505 7.47107 9.03137 8.00122 8.50122C8.53137 7.97107 9.2505 7.6731 10.0002 7.6731ZM10.0002 8.71118C9.52591 8.71118 9.071 8.90019 8.7356 9.2356C8.40019 9.571 8.21118 10.0259 8.21118 10.5002C8.21124 10.9745 8.40025 11.4295 8.7356 11.7649C9.07098 12.1002 9.52602 12.2883 10.0002 12.2883C10.4745 12.2883 10.9295 12.1002 11.2649 11.7649C11.6002 11.4295 11.7883 10.9745 11.7883 10.5002C11.7883 10.026 11.6002 9.57098 11.2649 9.2356C10.9295 8.90025 10.4745 8.71124 10.0002 8.71118Z" stroke="#3579F6" stroke-width="0.5"/>
<path d="M2.69238 10.5001C2.69238 10.2961 2.77343 10.1004 2.91769 9.95615C3.06194 9.81189 3.2576 9.73084 3.46161 9.73084H5.00008C5.20409 9.73084 5.39974 9.81189 5.544 9.95615C5.68826 10.1004 5.76931 10.2961 5.76931 10.5001C5.76931 10.7041 5.68826 10.8997 5.544 11.044C5.39974 11.1883 5.20409 11.2693 5.00008 11.2693H3.46161C3.2576 11.2693 3.06194 11.1883 2.91769 11.044C2.77343 10.8997 2.69238 10.7041 2.69238 10.5001ZM14.2308 10.5001C14.2308 10.2961 14.3119 10.1004 14.4561 9.95615C14.6004 9.81189 14.7961 9.73084 15.0001 9.73084H16.5385C16.7425 9.73084 16.9382 9.81189 17.0825 9.95615C17.2267 10.1004 17.3078 10.2961 17.3078 10.5001C17.3078 10.7041 17.2267 10.8997 17.0825 11.044C16.9382 11.1883 16.7425 11.2693 16.5385 11.2693H15.0001C14.7961 11.2693 14.6004 11.1883 14.4561 11.044C14.3119 10.8997 14.2308 10.7041 14.2308 10.5001ZM13.077 13.577C13.2213 13.4328 13.4169 13.3518 13.6208 13.3518C13.8248 13.3518 14.0204 13.4328 14.1647 13.577L15.2524 14.6647C15.3259 14.7356 15.3845 14.8205 15.4248 14.9144C15.4651 15.0082 15.4863 15.1092 15.4872 15.2113C15.4881 15.3134 15.4686 15.4147 15.4299 15.5093C15.3913 15.6038 15.3341 15.6897 15.2619 15.7619C15.1897 15.8341 15.1038 15.8913 15.0093 15.9299C14.9147 15.9686 14.8134 15.9881 14.7113 15.9872C14.6092 15.9863 14.5082 15.9651 14.4144 15.9248C14.3205 15.8845 14.2356 15.8259 14.1647 15.7524L13.077 14.6647C12.9328 14.5204 12.8518 14.3248 12.8518 14.1208C12.8518 13.9169 12.9328 13.7213 13.077 13.577ZM4.61546 5.11546C4.75971 4.97125 4.95533 4.89024 5.15931 4.89024C5.36328 4.89024 5.5589 4.97125 5.70315 5.11546L6.79084 6.20315C6.86431 6.27411 6.92292 6.35899 6.96323 6.45284C7.00354 6.54669 7.02476 6.64763 7.02565 6.74977C7.02654 6.8519 7.00708 6.9532 6.9684 7.04773C6.92972 7.14227 6.8726 7.22815 6.80038 7.30038C6.72815 7.3726 6.64227 7.42972 6.54773 7.4684C6.4532 7.50708 6.3519 7.52654 6.24977 7.52565C6.14763 7.52476 6.04669 7.50354 5.95284 7.46323C5.85899 7.42292 5.77411 7.36431 5.70315 7.29084L4.61546 6.20315C4.47125 6.0589 4.39024 5.86328 4.39024 5.65931C4.39024 5.45533 4.47125 5.25971 4.61546 5.11546ZM10.0001 14.7308C10.2041 14.7308 10.3997 14.8119 10.544 14.9561C10.6883 15.1004 10.7693 15.2961 10.7693 15.5001V17.0385C10.7693 17.2425 10.6883 17.4382 10.544 17.5825C10.3997 17.7267 10.2041 17.8078 10.0001 17.8078C9.79606 17.8078 9.60041 17.7267 9.45615 17.5825C9.31189 17.4382 9.23084 17.2425 9.23084 17.0385V15.5001C9.23084 15.2961 9.31189 15.1004 9.45615 14.9561C9.60041 14.8119 9.79606 14.7308 10.0001 14.7308ZM10.0001 3.19238C10.2041 3.19238 10.3997 3.27343 10.544 3.41769C10.6883 3.56194 10.7693 3.7576 10.7693 3.96161V5.50008C10.7693 5.70409 10.6883 5.89974 10.544 6.044C10.3997 6.18826 10.2041 6.26931 10.0001 6.26931C9.79606 6.26931 9.60041 6.18826 9.45615 6.044C9.31189 5.89974 9.23084 5.70409 9.23084 5.50008V3.96161C9.23084 3.7576 9.31189 3.56194 9.45615 3.41769C9.60041 3.27343 9.79606 3.19238 10.0001 3.19238ZM15.2524 5.11546C15.3966 5.25971 15.4776 5.45533 15.4776 5.65931C15.4776 5.86328 15.3966 6.0589 15.2524 6.20315L14.1647 7.29084C14.0937 7.36431 14.0089 7.42292 13.915 7.46323C13.8212 7.50354 13.7202 7.52476 13.6181 7.52565C13.5159 7.52654 13.4146 7.50708 13.3201 7.4684C13.2256 7.42972 13.1397 7.3726 13.0675 7.30038C12.9952 7.22815 12.9381 7.14227 12.8994 7.04773C12.8608 6.9532 12.8413 6.8519 12.8422 6.74977C12.8431 6.64763 12.8643 6.54669 12.9046 6.45284C12.9449 6.35899 13.0035 6.27411 13.077 6.20315L14.1647 5.11546C14.3089 4.97125 14.5046 4.89024 14.7085 4.89024C14.9125 4.89024 15.1081 4.97125 15.2524 5.11546ZM6.79084 14.6647L5.70315 15.7524C5.63219 15.8259 5.54731 15.8845 5.45346 15.9248C5.35961 15.9651 5.25868 15.9863 5.15654 15.9872C5.0544 15.9881 4.95311 15.9686 4.85857 15.9299C4.76404 15.8913 4.67815 15.8341 4.60593 15.7619C4.5337 15.6897 4.47658 15.6038 4.4379 15.5093C4.39923 15.4147 4.37976 15.3134 4.38065 15.2113C4.38154 15.1092 4.40276 15.0082 4.44307 14.9144C4.48339 14.8205 4.54199 14.7356 4.61546 14.6647L5.70315 13.577C5.84823 13.4369 6.04254 13.3593 6.24423 13.3611C6.44592 13.3628 6.63885 13.4437 6.78147 13.5864C6.9241 13.729 7.00499 13.9219 7.00675 14.1236C7.0085 14.3253 6.93097 14.5196 6.79084 14.6647Z" fill="#3579F6"/>
<path d="M10 0.75C15.385 0.75 19.75 5.11499 19.75 10.5C19.75 15.885 15.385 20.25 10 20.25C4.61499 20.25 0.25 15.885 0.25 10.5C0.25 5.11499 4.61499 0.75 10 0.75ZM10 1.78809C5.18885 1.78809 1.28809 5.68885 1.28809 10.5C1.28809 15.3111 5.18885 19.2119 10 19.2119C14.8111 19.2119 18.7119 15.3111 18.7119 10.5C18.7119 5.68885 14.8111 1.78809 10 1.78809Z" stroke="#3579F6" stroke-width="0.5"/>
</svg>
