<svg width="8" height="4" viewBox="0 0 8 4" fill="none" xmlns="http://www.w3.org/2000/svg">
<path d="M7.83321 3.04377C7.79817 3.06375 7.75954 3.07662 7.71952 3.08165C7.6795 3.08668 7.63888 3.08377 7.59999 3.07309C7.56109 3.0624 7.52469 3.04415 7.49286 3.01938C7.46102 2.99461 7.43439 2.96381 7.41448 2.92873L6.68592 1.65567C6.26235 1.94206 5.79511 2.15781 5.30242 2.2945L5.5275 3.64502C5.53415 3.68478 5.53289 3.72545 5.5238 3.76473C5.51471 3.804 5.49797 3.84109 5.47454 3.87389C5.45111 3.90669 5.42144 3.93455 5.38723 3.95587C5.35303 3.9772 5.31496 3.99158 5.27519 3.99818C5.25884 4.00086 5.2423 4.00227 5.22573 4.0024C5.15316 4.00229 5.08297 3.97646 5.02765 3.92949C4.97233 3.88252 4.93545 3.81746 4.92357 3.74587L4.70231 2.41989C4.23573 2.48482 3.76239 2.48482 3.29581 2.41989L3.07456 3.74587C3.06265 3.81759 3.02566 3.88275 2.97018 3.92974C2.9147 3.97672 2.84433 4.00247 2.77163 4.0024C2.75467 4.00233 2.73775 4.00092 2.72101 3.99818C2.68125 3.99158 2.64317 3.9772 2.60897 3.95587C2.57476 3.93455 2.5451 3.90669 2.52166 3.87389C2.49823 3.84109 2.48149 3.804 2.47241 3.76473C2.46332 3.72545 2.46206 3.68478 2.4687 3.64502L2.69494 2.2945C2.20244 2.15737 1.73546 1.94124 1.3122 1.65451L0.585945 2.92873C0.545265 2.99961 0.478094 3.05143 0.399207 3.07279C0.32032 3.09415 0.23618 3.08329 0.165297 3.04261C0.0944132 3.00194 0.0425926 2.93476 0.0212349 2.85588C-0.000122817 2.77699 0.0107319 2.69285 0.0514111 2.62197L0.818317 1.27988C0.548941 1.04716 0.301238 0.790468 0.0782529 0.512975C0.0504444 0.481926 0.0292551 0.445536 0.0159784 0.406025C0.00270165 0.366515 -0.00238401 0.324713 0.00103192 0.283172C0.00444786 0.241631 0.0162937 0.201222 0.0358464 0.164411C0.055399 0.127601 0.0822482 0.0951604 0.114755 0.0690714C0.147262 0.0429824 0.184745 0.0237917 0.224915 0.0126707C0.265085 0.00154966 0.307101 -0.00126847 0.348396 0.00438856C0.389692 0.0100456 0.429402 0.024059 0.465102 0.0455734C0.500801 0.0670877 0.531742 0.0956516 0.556035 0.129522C1.19257 0.917134 2.30612 1.85506 3.99868 1.85506C5.69124 1.85506 6.80479 0.915984 7.44132 0.129522C7.46533 0.0949583 7.49621 0.0657067 7.53201 0.0435867C7.56782 0.0214666 7.60779 0.00695124 7.64945 0.000943763C7.69111 -0.00506371 7.73356 -0.00243483 7.77415 0.00866683C7.81475 0.0197685 7.85263 0.0391056 7.88543 0.0654748C7.91824 0.091844 7.94526 0.124681 7.96483 0.161944C7.9844 0.199206 7.99609 0.240097 7.99917 0.282071C8.00226 0.324046 7.99668 0.366207 7.98277 0.40593C7.96886 0.445654 7.94693 0.482091 7.91833 0.512975C7.69535 0.790468 7.44765 1.04716 7.17827 1.27988L7.94518 2.62197C7.96576 2.65695 7.9792 2.69567 7.98471 2.73589C7.99023 2.77611 7.9877 2.81702 7.97729 2.85625C7.96687 2.89549 7.94877 2.93226 7.92404 2.96445C7.89931 2.99664 7.86844 3.0236 7.83321 3.04377Z" fill="#A9A8BD"/>
</svg>
