<svg width="33" height="33" viewBox="0 0 33 33" fill="none" xmlns="http://www.w3.org/2000/svg">
<g id="facebook">
<path id="bg" d="M0.5 16.8081C0.5 25.6447 7.66344 32.8081 16.5 32.8081C25.3366 32.8081 32.5 25.6447 32.5 16.8081C32.5 7.97155 25.3366 0.808105 16.5 0.808105C7.66344 0.808105 0.5 7.97155 0.5 16.8081Z" fill="#1877F2"/>
<path id="facebook_2" d="M24.5 16.8081C24.5 12.4081 20.9 8.80811 16.5 8.80811C12.1 8.80811 8.5 12.4081 8.5 16.8081C8.5 20.8081 11.4 24.1081 15.2 24.7081V19.1081H13.2V16.8081H15.2V15.0081C15.2 13.0081 16.4 11.9081 18.2 11.9081C19.1 11.9081 20 12.1081 20 12.1081V14.1081H19C18 14.1081 17.7 14.7081 17.7 15.3081V16.8081H19.9L19.5 19.1081H17.6V24.8081C21.6 24.2081 24.5 20.8081 24.5 16.8081Z" fill="white"/>
</g>
</svg>
