<svg width="24" height="25" viewBox="0 0 24 25" fill="none" xmlns="http://www.w3.org/2000/svg">
<path d="M18.9859 4.9895H15.3412C15.1801 4.9895 15.0256 5.0535 14.9117 5.16742C14.7978 5.28133 14.7338 5.43584 14.7338 5.59694C14.7338 5.75805 14.7978 5.91255 14.9117 6.02647C15.0256 6.14039 15.1801 6.20438 15.3412 6.20438H17.5197L14.3253 9.39877C13.1187 8.41249 11.5792 7.92768 10.0251 8.0446C8.47113 8.16153 7.0215 8.87125 5.97607 10.027C4.93064 11.1827 4.36939 12.696 4.4084 14.2539C4.44741 15.8119 5.08369 17.2952 6.18565 18.3972C7.28761 19.4991 8.77094 20.1354 10.3289 20.1744C11.8868 20.2134 13.4001 19.6522 14.5558 18.6067C15.7116 17.5613 16.4213 16.1117 16.5382 14.5577C16.6551 13.0036 16.1703 11.4641 15.184 10.2575L18.3784 7.06391V9.24159C18.3784 9.40269 18.4424 9.5572 18.5563 9.67112C18.6703 9.78503 18.8248 9.84903 18.9859 9.84903C19.147 9.84903 19.3015 9.78503 19.4154 9.67112C19.5293 9.5572 19.5933 9.40269 19.5933 9.24159V5.59694C19.5933 5.43584 19.5293 5.28133 19.4154 5.16742C19.3015 5.0535 19.147 4.9895 18.9859 4.9895ZM13.9168 17.54C13.2371 18.2194 12.3712 18.682 11.4286 18.8693C10.486 19.0567 9.509 18.9603 8.62116 18.5924C7.73333 18.2246 6.9745 17.6017 6.44062 16.8026C5.90675 16.0035 5.6218 15.0641 5.6218 14.103C5.6218 13.142 5.90675 12.2025 6.44062 11.4034C6.9745 10.6043 7.73333 9.98148 8.62116 9.61361C9.509 9.24574 10.486 9.14938 11.4286 9.3367C12.3712 9.52403 13.2371 9.98664 13.9168 10.666C14.8267 11.5784 15.3377 12.8144 15.3377 14.103C15.3377 15.3916 14.8267 16.6276 13.9168 17.54Z" fill="#3579F6"/>
</svg>
