<svg width="20" height="20" viewBox="0 0 20 20" fill="none" xmlns="http://www.w3.org/2000/svg">
<path d="M7.18408 11.5H13.1841V19.5H7.18408V11.5Z" fill="url(#paint0_linear_1046_25395)"/>
<path d="M11.3811 1.92716C11.0434 1.65092 10.6206 1.5 10.1843 1.5C9.74807 1.5 9.32525 1.65092 8.98758 1.92716L2.40008 7.29816C2.17584 7.48189 1.99527 7.71318 1.87143 7.97529C1.7476 8.2374 1.6836 8.52377 1.68408 8.81366V17.5562C1.68408 18.6297 2.54058 19.4997 3.59658 19.4997H7.68408V13.2497C7.68408 12.9181 7.81578 12.6002 8.0502 12.3658C8.28462 12.1314 8.60256 11.9997 8.93408 11.9997H11.4341C11.7656 11.9997 12.0835 12.1314 12.318 12.3658C12.5524 12.6002 12.6841 12.9181 12.6841 13.2497V19.4997H16.7716C17.8281 19.4997 18.6841 18.6297 18.6841 17.5562V8.81366C18.6847 8.52385 18.6208 8.23753 18.4972 7.97542C18.3735 7.71332 18.1931 7.48198 17.9691 7.29816L11.3811 1.92716Z" fill="url(#paint1_linear_1046_25395)"/>
<path fill-rule="evenodd" clip-rule="evenodd" d="M10.1845 2.66407L2.18446 9.27157C1.9765 9.43968 1.71116 9.52006 1.44486 9.49559C1.17857 9.47113 0.932315 9.34376 0.758462 9.14056C0.67367 9.04089 0.609745 8.92521 0.570472 8.80038C0.531199 8.67555 0.517377 8.54411 0.529826 8.41384C0.542275 8.28357 0.58074 8.15712 0.642945 8.04199C0.705149 7.92686 0.789827 7.82538 0.891962 7.74357L9.29046 0.813565C9.53948 0.612733 9.84921 0.502212 10.1691 0.500033C10.489 0.497854 10.8002 0.604144 11.052 0.801565L19.4545 7.59556C19.5577 7.67595 19.6438 7.77622 19.7076 7.89046C19.7714 8.00469 19.8117 8.13057 19.826 8.26063C19.8403 8.3907 19.8284 8.52231 19.7909 8.64769C19.7535 8.77306 19.6913 8.88966 19.608 8.99057C19.4368 9.19602 19.1923 9.32664 18.9264 9.35465C18.6605 9.38266 18.3941 9.30586 18.184 9.14056L10.1845 2.66407Z" fill="url(#paint2_linear_1046_25395)"/>
<defs>
<linearGradient id="paint0_linear_1046_25395" x1="10.1841" y1="11.5" x2="4.89108" y2="20.325" gradientUnits="userSpaceOnUse">
<stop stop-color="#944600"/>
<stop offset="1" stop-color="#CD8E02"/>
</linearGradient>
<linearGradient id="paint1_linear_1046_25395" x1="3.30709" y1="0.619663" x2="20.7371" y2="13.9997" gradientUnits="userSpaceOnUse">
<stop stop-color="#FFD394"/>
<stop offset="1" stop-color="#FFB357"/>
</linearGradient>
<linearGradient id="paint2_linear_1046_25395" x1="7.05896" y1="-1.63793" x2="10.8045" y2="9.22557" gradientUnits="userSpaceOnUse">
<stop stop-color="#FF921F"/>
<stop offset="1" stop-color="#EB4824"/>
</linearGradient>
</defs>
</svg>
