<svg width="21" height="21" viewBox="0 0 21 21" fill="none" xmlns="http://www.w3.org/2000/svg">
<path d="M6.3 0.5H14.7C17.9 0.5 20.5 3.1 20.5 6.3V14.7C20.5 17.9033 17.9033 20.5 14.7 20.5H6.3C3.1 20.5 0.5 17.9 0.5 14.7V6.3C0.5 3.09675 3.09675 0.5 6.3 0.5ZM6.1 2.5C4.11177 2.5 2.5 4.11177 2.5 6.1V14.9C2.5 16.89 4.11 18.5 6.1 18.5H14.9C16.8882 18.5 18.5 16.8882 18.5 14.9V6.1C18.5 4.11 16.89 2.5 14.9 2.5H6.1ZM15.75 4C16.4404 4 17 4.55964 17 5.25C17 5.94036 16.4404 6.5 15.75 6.5C15.0596 6.5 14.5 5.94036 14.5 5.25C14.5 4.55964 15.0596 4 15.75 4ZM10.5 5.5C13.2614 5.5 15.5 7.73858 15.5 10.5C15.5 13.2614 13.2614 15.5 10.5 15.5C7.73858 15.5 5.5 13.2614 5.5 10.5C5.5 7.73858 7.73858 5.5 10.5 5.5ZM10.5 7.5C8.8431 7.5 7.5 8.8431 7.5 10.5C7.5 12.1569 8.8431 13.5 10.5 13.5C12.1569 13.5 13.5 12.1569 13.5 10.5C13.5 8.8431 12.1569 7.5 10.5 7.5Z" fill="url(#paint0_linear_395_11774)"/>
<defs>
<linearGradient id="paint0_linear_395_11774" x1="20" y1="0.5" x2="0.5" y2="20.5" gradientUnits="userSpaceOnUse">
<stop stop-color="#883BDD"/>
<stop offset="0.331492" stop-color="#D01F80"/>
<stop offset="0.701657" stop-color="#DE5E5F"/>
<stop offset="1" stop-color="#F4A942"/>
</linearGradient>
</defs>
</svg>
