<svg width="33" height="33" viewBox="0 0 33 33" fill="none" xmlns="http://www.w3.org/2000/svg">
<path d="M0.5 16.8081C0.5 25.6447 7.66344 32.8081 16.5 32.8081C25.3366 32.8081 32.5 25.6447 32.5 16.8081C32.5 7.97155 25.3366 0.808105 16.5 0.808105C7.66344 0.808105 0.5 7.97155 0.5 16.8081Z" fill="#F00073"/>
<path d="M16.5002 10.0083C18.7002 10.0083 19.0002 10.0083 19.9002 10.0083C20.7002 10.0083 21.1002 10.2083 21.4002 10.3083C21.8002 10.5083 22.1002 10.6083 22.4002 10.9083C22.7002 11.2083 22.9002 11.5083 23.0002 11.9083C23.1002 12.2083 23.2002 12.6083 23.3002 13.4083C23.3002 14.3083 23.3002 14.5083 23.3002 16.8083C23.3002 19.1083 23.3002 19.3083 23.3002 20.2083C23.3002 21.0083 23.1002 21.4083 23.0002 21.7083C22.8002 22.1083 22.7002 22.4083 22.4002 22.7083C22.1002 23.0083 21.8002 23.2083 21.4002 23.3083C21.1002 23.4083 20.7002 23.5083 19.9002 23.6083C19.0002 23.6083 18.8002 23.6083 16.5002 23.6083C14.2002 23.6083 14.0002 23.6083 13.1002 23.6083C12.3002 23.6083 11.9002 23.4083 11.6002 23.3083C11.2002 23.1083 10.9002 23.0083 10.6002 22.7083C10.3002 22.4083 10.1002 22.1083 10.0002 21.7083C9.9002 21.4083 9.8002 21.0083 9.7002 20.2083C9.7002 19.3083 9.7002 19.1083 9.7002 16.8083C9.7002 14.5083 9.7002 14.3083 9.7002 13.4083C9.7002 12.6083 9.9002 12.2083 10.0002 11.9083C10.2002 11.5083 10.3002 11.2083 10.6002 10.9083C10.9002 10.6083 11.2002 10.4083 11.6002 10.3083C11.9002 10.2083 12.3002 10.1083 13.1002 10.0083C14.0002 10.0083 14.3002 10.0083 16.5002 10.0083ZM16.5002 8.5083C14.2002 8.5083 14.0002 8.5083 13.1002 8.5083C12.2002 8.5083 11.6002 8.7083 11.1002 8.9083C10.6002 9.1083 10.1002 9.4083 9.6002 9.9083C9.1002 10.4083 8.9002 10.8083 8.6002 11.4083C8.4002 11.9083 8.3002 12.5083 8.2002 13.4083C8.2002 14.3083 8.2002 14.6083 8.2002 16.8083C8.2002 19.1083 8.2002 19.3083 8.2002 20.2083C8.2002 21.1083 8.4002 21.7083 8.6002 22.2083C8.8002 22.7083 9.1002 23.2083 9.6002 23.7083C10.1002 24.2083 10.5002 24.4083 11.1002 24.7083C11.6002 24.9083 12.2002 25.0083 13.1002 25.1083C14.0002 25.1083 14.3002 25.1083 16.5002 25.1083C18.7002 25.1083 19.0002 25.1083 19.9002 25.1083C20.8002 25.1083 21.4002 24.9083 21.9002 24.7083C22.4002 24.5083 22.9002 24.2083 23.4002 23.7083C23.9002 23.2083 24.1002 22.8083 24.4002 22.2083C24.6002 21.7083 24.7002 21.1083 24.8002 20.2083C24.8002 19.3083 24.8002 19.0083 24.8002 16.8083C24.8002 14.6083 24.8002 14.3083 24.8002 13.4083C24.8002 12.5083 24.6002 11.9083 24.4002 11.4083C24.2002 10.9083 23.9002 10.4083 23.4002 9.9083C22.9002 9.4083 22.5002 9.2083 21.9002 8.9083C21.4002 8.7083 20.8002 8.6083 19.9002 8.5083C19.0002 8.5083 18.8002 8.5083 16.5002 8.5083Z" fill="white"/>
<path d="M16.5002 12.5083C14.1002 12.5083 12.2002 14.4083 12.2002 16.8083C12.2002 19.2083 14.1002 21.1083 16.5002 21.1083C18.9002 21.1083 20.8002 19.2083 20.8002 16.8083C20.8002 14.4083 18.9002 12.5083 16.5002 12.5083ZM16.5002 19.6083C15.0002 19.6083 13.7002 18.4083 13.7002 16.8083C13.7002 15.3083 14.9002 14.0083 16.5002 14.0083C18.0002 14.0083 19.3002 15.2083 19.3002 16.8083C19.3002 18.3083 18.0002 19.6083 16.5002 19.6083Z" fill="white"/>
<path d="M20.9002 13.4083C21.4525 13.4083 21.9002 12.9606 21.9002 12.4083C21.9002 11.856 21.4525 11.4083 20.9002 11.4083C20.3479 11.4083 19.9002 11.856 19.9002 12.4083C19.9002 12.9606 20.3479 13.4083 20.9002 13.4083Z" fill="white"/>
</svg>
