<svg width="19" height="21" viewBox="0 0 19 21" fill="none" xmlns="http://www.w3.org/2000/svg">
<path fill-rule="evenodd" clip-rule="evenodd" d="M5.19111 18.7756C4.90394 18.7631 4.18184 18.6367 3.45017 18.4443C2.72417 18.2568 2.22818 18.0065 2.22818 18.0065C1.9553 17.8698 1.85572 17.6542 1.81746 17.4315C1.82913 17.4358 1.72503 16.732 1.72503 15.3703C1.72503 14.3367 1.78114 13.7828 1.80676 13.6079C1.83427 13.4237 1.92718 13.2729 2.175 13.2843C2.42287 13.296 2.75979 13.2901 3.55221 13.4284C4.49717 13.5972 4.96018 13.7398 5.18492 13.8143C5.38817 13.8844 5.60217 14.0375 5.64354 14.3243C5.64354 14.3243 5.753 15.0781 5.75133 16.2211C5.75295 17.1461 5.68373 18.0627 5.65223 18.359C5.62283 18.6334 5.47833 18.7881 5.19111 18.7756ZM9.46931 15.5968C9.46914 15.4333 9.39995 15.281 9.26676 15.1604L6.81873 12.8949C6.53783 12.6169 6.20359 12.4437 5.79696 12.3628C5.79696 12.3628 4.87336 12.1477 3.49852 11.9302C2.12363 11.7127 1.7646 11.7372 1.7646 11.7372C0.545629 11.7372 0.501716 12.9639 0.489125 13.0877C0.45903 13.3838 0.38739 14.1684 0.38739 15.2606C0.38739 16.5497 0.445518 17.4429 0.515666 17.9888C0.62227 18.8221 1.30041 19.2128 1.6125 19.3608C1.69165 19.3982 2.5386 19.7366 3.3974 19.9865C3.97622 20.1552 4.90367 20.4019 5.33816 20.4667C5.48096 20.4884 6.32024 20.6244 6.71673 20.1284L9.31814 16.9452C9.42597 16.7978 9.46931 16.7378 9.46931 16.5121V15.5968ZM15.155 10.9536C14.786 10.9183 14.4148 10.9107 14.0446 10.9309L8.19388 11.4478C8.19388 11.4478 7.80602 11.5035 7.58509 11.7818C7.41418 11.997 7.37825 12.1765 7.37825 12.1765C7.45564 12.2491 7.48691 12.2789 7.5296 12.3158L9.83997 14.5399C10.0983 14.7793 10.2482 15.0122 10.2482 15.3608V16.6136C10.2482 16.8363 10.2279 17.0235 10.0967 17.1915L8.85763 18.7802L10.1043 19.2366C10.5774 19.3837 11.0167 19.3795 11.5106 19.3086L16.8772 18.1458C16.8772 18.1458 17.8449 17.9028 17.8451 17.0351V13.9488C17.8451 13.8892 17.8085 13.8379 17.7426 13.8505L14.3158 14.4863C14.1879 14.5108 14.1078 14.6141 14.1078 14.73V16.2252C14.1078 16.3145 14.2179 16.3865 14.3158 16.3658L15.3896 16.1292C15.4454 16.1146 15.4885 16.1534 15.4907 16.2252V16.7075C15.4856 16.8068 15.403 16.8752 15.2866 16.9004L14.0713 17.1465C14.0723 17.1429 13.2556 17.3428 13.2556 16.5191V14.6122C13.2556 13.7801 13.8949 13.6958 13.8949 13.6958L17.668 13.0093C17.7663 12.9918 17.8451 12.9095 17.8451 12.8205V12.0437C17.8415 11.186 16.9642 11.133 16.9642 11.133L15.155 10.9536ZM8.14229 2.86299C9.5456 2.91931 10.6094 4.17707 10.5364 5.70668C10.4554 7.23191 9.23921 8.44847 7.88723 8.39591C6.48422 8.33954 5.46727 7.06946 5.53992 5.54011C5.6209 4.01492 6.79035 2.81043 8.14229 2.86299ZM13.7954 6.44071C13.8529 5.39784 14.6413 4.57361 15.572 4.60704C16.4568 4.64455 17.1634 5.53002 17.116 6.53894C17.059 7.5848 16.2582 8.37771 15.3296 8.34976C14.4424 8.30646 13.7484 7.45297 13.7954 6.44071ZM18.4999 6.57702C18.4975 4.51855 16.8747 2.86329 14.8774 2.86329C13.7115 2.86329 12.6537 3.44571 11.9691 4.31021C11.4432 2.1129 9.4998 0.493919 7.17307 0.500017C4.39619 0.507343 2.16364 2.77187 2.1729 5.56419C2.1822 8.38486 4.42672 10.6766 7.17307 10.6687C7.33122 10.667 14.899 10.1872 14.8774 10.1868C17.0585 10.0091 18.5111 8.58762 18.4999 6.57702Z" fill="black"/>
</svg>
