<svg width="32" height="33" viewBox="0 0 32 33" fill="none" xmlns="http://www.w3.org/2000/svg">
<path d="M0 16.8081C0 25.6447 7.16344 32.8081 16 32.8081C24.8366 32.8081 32 25.6447 32 16.8081C32 7.97155 24.8366 0.808105 16 0.808105C7.16344 0.808105 0 7.97155 0 16.8081Z" fill="#2867B2"/>
<path d="M11.6 24.8081H8.2V14.1081H11.6V24.8081ZM9.9 12.6081C8.8 12.6081 8 11.8081 8 10.7081C8 9.60811 8.9 8.80811 9.9 8.80811C11 8.80811 11.8 9.60811 11.8 10.7081C11.8 11.8081 11 12.6081 9.9 12.6081ZM24 24.8081H20.6V19.0081C20.6 17.3081 19.9 16.8081 18.9 16.8081C17.9 16.8081 16.9 17.6081 16.9 19.1081V24.8081H13.5V14.1081H16.7V15.6081C17 14.9081 18.2 13.8081 19.9 13.8081C21.8 13.8081 23.8 14.9081 23.8 18.2081V24.8081H24Z" fill="white"/>
</svg>
