<svg width="25" height="25" viewBox="0 0 25 25" fill="none" xmlns="http://www.w3.org/2000/svg">
<path d="M6.79617 17.1396C7.05078 17.0654 7.32446 17.0953 7.557 17.2228C7.78955 17.3503 7.96191 17.565 8.03617 17.8196C8.11043 18.0742 8.08051 18.3479 7.95298 18.5804C7.82546 18.813 7.61078 18.9854 7.35617 19.0596C6.85617 19.2056 6.49617 19.3596 6.26517 19.4996C6.50317 19.6426 6.87917 19.8026 7.40117 19.9516C8.55617 20.2816 10.2092 20.4996 12.0762 20.4996C13.9432 20.4996 15.5962 20.2816 16.7512 19.9516C17.2742 19.8026 17.6492 19.6426 17.8872 19.4996C17.6572 19.3596 17.2972 19.2056 16.7972 19.0596C16.5466 18.9821 16.3365 18.8092 16.2122 18.5782C16.0878 18.3472 16.0593 18.0766 16.1326 17.8247C16.2059 17.5729 16.3753 17.3599 16.6042 17.2318C16.833 17.1036 17.1031 17.0705 17.3562 17.1396C18.0242 17.3346 18.6362 17.5846 19.1062 17.9056C19.5412 18.2046 20.0762 18.7256 20.0762 19.4996C20.0762 20.2826 19.5282 20.8076 19.0862 21.1066C18.6082 21.4286 17.9832 21.6796 17.3002 21.8746C15.9222 22.2696 14.0762 22.4996 12.0762 22.4996C10.0762 22.4996 8.23017 22.2696 6.85217 21.8746C6.16917 21.6796 5.54417 21.4286 5.06617 21.1066C4.62417 20.8066 4.07617 20.2826 4.07617 19.4996C4.07617 18.7256 4.61117 18.2046 5.04617 17.9056C5.51617 17.5846 6.12817 17.3346 6.79617 17.1396Z" fill="#2381FD"/>
<path d="M10.3442 11C9.57417 9.667 10.5362 8 12.0762 8C12.4272 8.00001 12.7721 8.09243 13.0761 8.26796C13.3802 8.4435 13.6326 8.69597 13.8082 9C14.5782 10.333 13.6162 12 12.0762 12C11.3612 12 10.7012 11.619 10.3442 11Z" fill="#2381FD"/>
<path fill-rule="evenodd" clip-rule="evenodd" d="M17.3795 4.6967C15.9729 3.29018 14.0653 2.5 12.0762 2.5C10.087 2.5 8.17939 3.29018 6.77287 4.6967C5.36635 6.10322 4.57617 8.01088 4.57617 10C4.57617 12.568 5.97617 14.656 7.42617 16.14C8.00257 16.7239 8.62198 17.2638 9.27917 17.755C9.90556 18.2182 10.5572 18.6462 11.2312 19.037C11.4887 19.1834 11.7799 19.2604 12.0762 19.2604C12.3724 19.2604 12.6636 19.1834 12.9212 19.037C12.9212 19.037 14.2792 18.201 14.8732 17.755C15.5304 17.2638 16.1498 16.7239 16.7262 16.14C18.1762 14.656 19.5762 12.568 19.5762 10C19.5762 8.01088 18.786 6.10322 17.3795 4.6967ZM12.0762 14.1611C14.5099 14.1611 16.4829 12.1882 16.4829 9.75439C16.4829 7.32062 14.5099 5.34766 12.0762 5.34766C9.6424 5.34766 7.66943 7.32062 7.66943 9.75439C7.66943 12.1882 9.6424 14.1611 12.0762 14.1611Z" fill="#2381FD"/>
</svg>
