<svg width="24" height="24" viewBox="0 0 24 24" fill="none" xmlns="http://www.w3.org/2000/svg">
<path d="M4.32227 4.5C4.32227 3.672 4.99427 3 5.82227 3H10.5366C10.707 3 10.8706 3.06773 10.9911 3.18829C11.1117 3.30885 11.1794 3.47236 11.1794 3.64286C11.1794 3.81335 11.1117 3.97687 10.9911 4.09743C10.8706 4.21799 10.707 4.28571 10.5366 4.28571H5.82227C5.76543 4.28571 5.71093 4.30829 5.67074 4.34848C5.63056 4.38866 5.60798 4.44317 5.60798 4.5V19.5C5.60798 19.6183 5.70398 19.7143 5.82227 19.7143H10.5366C10.707 19.7143 10.8706 19.782 10.9911 19.9026C11.1117 20.0231 11.1794 20.1866 11.1794 20.3571C11.1794 20.5276 11.1117 20.6912 10.9911 20.8117C10.8706 20.9323 10.707 21 10.5366 21H5.82227C5.42444 21 5.04291 20.842 4.76161 20.5607C4.4803 20.2794 4.32227 19.8978 4.32227 19.5V4.5ZM18.0417 12.6429H10.9651C10.7946 12.6429 10.6311 12.5751 10.5106 12.4546C10.39 12.334 10.3223 12.1705 10.3223 12C10.3223 11.8295 10.39 11.666 10.5106 11.5454C10.6311 11.4249 10.7946 11.3571 10.9651 11.3571H18.0417L15.2131 8.37086C15.1005 8.24638 15.041 8.08276 15.0474 7.91499C15.0538 7.74722 15.1255 7.58861 15.2474 7.47307C15.3692 7.35753 15.5313 7.29423 15.6992 7.2967C15.8671 7.29917 16.0273 7.36721 16.1457 7.48629L20.0028 11.5577C20.1161 11.6771 20.1792 11.8354 20.1792 12C20.1792 12.1646 20.1161 12.3229 20.0028 12.4423L16.1457 16.5137C16.0273 16.6328 15.8671 16.7008 15.6992 16.7033C15.5313 16.7058 15.3692 16.6425 15.2474 16.5269C15.1255 16.4114 15.0538 16.2528 15.0474 16.085C15.041 15.9172 15.1005 15.7536 15.2131 15.6291L18.0417 12.6429Z" fill="black"/>
</svg>
