<svg width="115" height="34" viewBox="0 0 115 34" fill="none" xmlns="http://www.w3.org/2000/svg">
<g clip-path="url(#clip0_77_14713)">
<path d="M17.5416 0.025394C12.8388 0.00992722 8.78193 2.78121 6.92773 6.78165C8.35341 6.14888 9.92965 5.79314 11.5882 5.7845C18.0306 5.75174 23.2984 10.9913 23.2984 17.4337C23.2984 19.1815 22.9127 20.8391 22.223 22.3267C26.2953 20.5189 29.1385 16.4452 29.1512 11.7055C29.1681 5.29729 23.9503 0.0467746 17.5416 0.025394Z" fill="#3579F6"/>
<path d="M0.270669 33.591H5.72226L5.77047 33.5428L5.88238 11.5527C5.88966 9.96368 6.21082 8.38834 6.8577 6.93719C6.8809 6.88488 6.90455 6.83302 6.92866 6.78162C2.8468 8.59305 0 12.6808 0 17.4337C0 17.5174 0.00136472 17.6006 0.00318434 17.6839L0 17.6871L0.270669 33.591Z" fill="#3579F6"/>
<path opacity="0.8" d="M22.223 22.3271C20.7796 22.9676 19.1824 23.3243 17.5015 23.3243C15.3603 23.3243 13.3542 22.7461 11.6301 21.7375L10.7676 22.2443V29.0829H11.6301C16.3238 29.0902 20.3711 26.3212 22.2226 22.3267L22.223 22.3271Z" fill="#3579F6"/>
<path d="M43.8048 9.37121V12.914C44.5368 10.6891 46.4397 9.02002 48.8993 9.02002C52.1783 9.02002 55.0187 11.8309 55.0187 17.101C55.0187 22.371 52.0909 25.1523 48.958 25.1523C46.6453 25.1523 44.6833 23.6006 43.8635 21.4048V30.0712H39.6475V9.37121H43.8048ZM50.5975 17.1005C50.5975 13.8798 48.9871 12.299 47.0843 12.299C45.3861 12.299 43.8053 13.5582 43.8053 16.632V17.5395C43.8053 20.6137 45.3861 21.8725 47.0843 21.8725C48.9876 21.8725 50.5975 20.2917 50.5975 17.1V17.1005Z" fill="black"/>
<path d="M65.7929 24.8012V21.4926C64.9731 23.7176 63.158 25.1523 60.6397 25.1523C57.5654 25.1523 55.9551 23.0734 55.9551 19.5893V9.37122H60.1711V18.2423C60.1711 20.7311 61.1374 21.8434 62.9233 21.8434C64.7093 21.8434 65.7342 20.6137 65.7342 18.2423V9.37122H69.9502V24.8007H65.7929V24.8012Z" fill="black"/>
<path d="M75.9221 3.5448V12.8845C76.6249 10.6595 78.5278 9.01959 80.9579 9.01959C84.2369 9.01959 87.0773 11.8304 87.0773 17.1005C87.0773 22.3706 84.1495 25.1519 81.0166 25.1519C78.6452 25.1519 76.6249 23.5124 75.8634 21.2579V24.8007H71.7061V3.5448H75.9221ZM82.6561 17.1005C82.6561 13.8798 81.0457 12.299 79.1428 12.299C77.4447 12.299 75.8639 13.5582 75.8639 16.632V17.5395C75.8639 20.6138 77.4447 21.8725 79.1428 21.8725C81.0462 21.8725 82.6561 20.2917 82.6561 17.1001V17.1005Z" fill="black"/>
<path d="M92.3474 3.5448V12.8845C93.0502 10.6595 94.9531 9.01959 97.3832 9.01959C100.662 9.01959 103.502 11.8304 103.502 17.1005C103.502 22.3706 100.574 25.1519 97.4414 25.1519C95.07 25.1519 93.0498 23.5124 92.2882 21.2579V24.8007H88.1309V3.5448H92.3469H92.3474ZM99.0813 17.1005C99.0813 13.8798 97.471 12.299 95.5681 12.299C93.8699 12.299 92.2892 13.5582 92.2892 16.632V17.5395C92.2892 20.6138 93.8699 21.8725 95.5681 21.8725C97.471 21.8725 99.0813 20.2917 99.0813 17.1001V17.1005Z" fill="black"/>
<path d="M108.773 3.5448V24.8007H104.557V3.5448H108.773Z" fill="black"/>
<path d="M114.775 3.72083V7.35143H110.559V3.72083H114.775ZM114.775 9.37166V24.8011H110.559V9.37121H114.775V9.37166Z" fill="black"/>
</g>
<defs>
<clipPath id="clip0_77_14713">
<rect width="114.775" height="33.5657" fill="white" transform="translate(0 0.0251465)"/>
</clipPath>
</defs>
</svg>
