<svg width="75" height="19" viewBox="0 0 75 19" fill="none" xmlns="http://www.w3.org/2000/svg">
<path d="M10.5879 9.41089V12.2231C10.5879 14.5945 8.37611 16.5175 5.64746 16.5175C2.9188 16.5175 0.707031 14.5945 0.707031 12.2231V9.41089C0.707031 11.7823 2.9188 13.4772 5.64746 13.4772C8.37611 13.4772 10.5879 11.7823 10.5879 9.41089Z" fill="#007BFF" stroke="white" stroke-width="1.0524" stroke-linecap="round" stroke-linejoin="round"/>
<path d="M10.5879 5.61153V9.4118C10.5879 11.7832 8.37611 13.4782 5.64746 13.4782C2.9188 13.4782 0.707031 11.7832 0.707031 9.4118V5.61153C0.707031 3.24011 2.9188 1.31714 5.64746 1.31714C7.01558 1.31714 8.24688 1.79598 9.14373 2.57124C10.033 3.35412 10.5879 4.42583 10.5879 5.61153Z" fill="#007BFF" stroke="white" stroke-width="1.0524" stroke-linecap="round" stroke-linejoin="round"/>
<path d="M10.5879 5.61153C10.5879 6.30316 10.3978 6.94162 10.0635 7.48886C9.25017 8.8266 7.57805 9.67785 5.64746 9.67785C3.71687 9.67785 2.04475 8.8266 1.23148 7.48886C0.897052 6.94162 0.707031 6.30316 0.707031 5.61153C0.707031 4.42583 1.26188 3.35411 2.15115 2.57884C3.04804 1.79598 4.27934 1.31714 5.64746 1.31714C7.01558 1.31714 8.24688 1.79598 9.14373 2.57124C10.033 3.35412 10.5879 4.42583 10.5879 5.61153Z" stroke="white" stroke-width="1.0524" stroke-linecap="round" stroke-linejoin="round"/>
<path d="M11.0507 18.3169C13.1819 18.3169 14.9095 16.5893 14.9095 14.4582C14.9095 12.327 13.1819 10.5994 11.0507 10.5994C8.91951 10.5994 7.19189 12.327 7.19189 14.4582C7.19189 16.5893 8.91951 18.3169 11.0507 18.3169Z" fill="#F0F0F0" stroke="white" stroke-width="0.701598"/>
<path d="M10.8979 14.4598H14.5585C14.5585 14.1431 14.5162 13.8364 14.4377 13.5447H10.8979V14.4598Z" fill="#D80027"/>
<path d="M10.8979 12.6298H14.0436C13.8289 12.2793 13.5543 11.9696 13.2341 11.7146H10.8979V12.6298Z" fill="#D80027"/>
<path d="M11.0508 17.9674C11.8765 17.9674 12.6353 17.6821 13.2345 17.2048H8.86719C9.46642 17.6821 10.2253 17.9674 11.0508 17.9674Z" fill="#D80027"/>
<path d="M8.0571 16.2909H14.0433C14.2157 16.0096 14.3495 15.7021 14.4374 15.3757H7.66309C7.751 15.7021 7.88472 16.0096 8.0571 16.2909Z" fill="#D80027"/>
<path d="M9.16745 11.4978H9.4871L9.18976 11.7138L9.30335 12.0634L9.00601 11.8473L8.70868 12.0634L8.80676 11.7613C8.54499 11.9795 8.3155 12.235 8.12642 12.5196H8.22885L8.03956 12.6571C8.01003 12.7064 7.98175 12.7564 7.95467 12.8071L8.04503 13.0853L7.87644 12.9627C7.83449 13.0515 7.79618 13.1424 7.76173 13.2351L7.86129 13.5416H8.22885L7.93145 13.7576L8.04503 14.1071L7.7477 13.8911L7.56963 14.0205C7.55174 14.1638 7.54248 14.3098 7.54248 14.4579H11.0505C11.0505 12.5205 11.0505 12.2921 11.0505 10.95C10.3575 10.95 9.71147 11.151 9.16745 11.4978ZM9.30335 14.1071L9.00601 13.8911L8.70868 14.1071L8.82227 13.7576L8.52493 13.5416H8.89243L9.00601 13.192L9.1196 13.5416H9.4871L9.18976 13.7576L9.30335 14.1071ZM9.18976 12.7357L9.30335 13.0853L9.00601 12.8692L8.70868 13.0853L8.82227 12.7357L8.52493 12.5196H8.89243L9.00601 12.1701L9.1196 12.5196H9.4871L9.18976 12.7357ZM10.5617 14.1071L10.2643 13.8911L9.96699 14.1071L10.0806 13.7576L9.78317 13.5416H10.1507L10.2643 13.192L10.3778 13.5416H10.7454L10.4481 13.7576L10.5617 14.1071ZM10.4481 12.7357L10.5617 13.0853L10.2643 12.8692L9.96699 13.0853L10.0806 12.7357L9.78317 12.5196H10.1507L10.2643 12.1701L10.3778 12.5196H10.7454L10.4481 12.7357ZM10.4481 11.7138L10.5617 12.0634L10.2643 11.8473L9.96699 12.0634L10.0806 11.7138L9.78317 11.4978H10.1507L10.2643 11.1482L10.3778 11.4978H10.7454L10.4481 11.7138Z" fill="#0052B4"/>
<path d="M21.028 14.3169V4.13508H24.6573C25.4461 4.13508 26.1007 4.27097 26.6211 4.54275C27.1447 4.81453 27.5358 5.19071 27.7944 5.6713C28.0529 6.14857 28.1822 6.70042 28.1822 7.32684C28.1822 7.94994 28.0512 8.49848 27.7894 8.97243C27.5309 9.44308 27.1398 9.80932 26.6161 10.0712C26.0957 10.333 25.4411 10.4639 24.6523 10.4639H21.903V9.14147H24.5131C25.0103 9.14147 25.4146 9.07021 25.7262 8.92769C26.0411 8.78517 26.2714 8.57802 26.4172 8.30624C26.5631 8.03446 26.636 7.70799 26.636 7.32684C26.636 6.94237 26.5614 6.60927 26.4123 6.32755C26.2664 6.04582 26.0361 5.83039 25.7212 5.68124C25.4097 5.52878 25.0003 5.45255 24.4932 5.45255H22.5643V14.3169H21.028ZM26.0543 9.72314L28.5699 14.3169H26.8199L24.354 9.72314H26.0543ZM33.0543 15.5896V2.86235H33.8697V15.5896H33.0543ZM35.6047 6.80979C35.5517 6.33915 35.333 5.97456 34.9485 5.71604C34.564 5.45421 34.0801 5.32329 33.4968 5.32329C33.0792 5.32329 32.7179 5.38957 32.413 5.52215C32.1081 5.65141 31.8711 5.83039 31.702 6.05908C31.5363 6.28446 31.4535 6.54133 31.4535 6.82968C31.4535 7.07163 31.5098 7.28044 31.6225 7.4561C31.7385 7.63176 31.8893 7.77925 32.0749 7.89857C32.2638 8.01457 32.466 8.11235 32.6814 8.19189C32.8969 8.26813 33.104 8.3311 33.3029 8.38081L34.2972 8.63934C34.622 8.71888 34.9551 8.8266 35.2965 8.96249C35.6379 9.09838 35.9544 9.27736 36.2461 9.49942C36.5377 9.72149 36.7731 9.99658 36.952 10.3247C37.1343 10.6528 37.2255 11.0456 37.2255 11.503C37.2255 12.0797 37.0763 12.5918 36.778 13.0392C36.4831 13.4866 36.0538 13.8396 35.4904 14.0981C34.9303 14.3567 34.2525 14.4859 33.457 14.4859C32.6947 14.4859 32.0351 14.365 31.4783 14.123C30.9215 13.8811 30.4857 13.538 30.1708 13.0939C29.8559 12.6464 29.6819 12.1161 29.6488 11.503H31.19C31.2198 11.8709 31.3391 12.1775 31.5479 12.4227C31.76 12.6647 32.0302 12.8453 32.3583 12.9646C32.6897 13.0806 33.0527 13.1386 33.4471 13.1386C33.8813 13.1386 34.2674 13.0707 34.6054 12.9348C34.9468 12.7956 35.2153 12.6034 35.4108 12.3581C35.6064 12.1095 35.7042 11.8195 35.7042 11.4881C35.7042 11.1864 35.618 10.9395 35.4456 10.7473C35.2766 10.5551 35.0463 10.396 34.7546 10.27C34.4662 10.1441 34.1398 10.033 33.7752 9.93692L32.5721 9.6088C31.7567 9.38673 31.1104 9.06027 30.6331 8.62939C30.1592 8.19852 29.9222 7.62845 29.9222 6.91917C29.9222 6.33252 30.0813 5.82045 30.3995 5.38295C30.7177 4.94545 31.1485 4.60572 31.6921 4.36377C32.2357 4.1185 32.8488 3.99587 33.5316 3.99587C34.221 3.99587 34.8292 4.11685 35.3562 4.3588C35.8865 4.60075 36.3041 4.93385 36.609 5.35809C36.9139 5.77902 37.073 6.26292 37.0863 6.80979H35.6047ZM38.922 14.3169V13.2033L42.3673 9.63366C42.7352 9.24587 43.0385 8.90615 43.2771 8.61448C43.5191 8.3195 43.6997 8.03943 43.819 7.77428C43.9384 7.50913 43.998 7.22741 43.998 6.92911C43.998 6.59104 43.9185 6.29938 43.7594 6.05411C43.6003 5.80553 43.3832 5.61495 43.1081 5.48238C42.833 5.34649 42.5231 5.27854 42.1784 5.27854C41.8138 5.27854 41.4957 5.35312 41.2239 5.50226C40.9521 5.65141 40.7433 5.86188 40.5975 6.13366C40.4516 6.40544 40.3787 6.72362 40.3787 7.0882H38.9121C38.9121 6.46841 39.0546 5.92651 39.3396 5.46249C39.6247 4.99848 40.0158 4.63886 40.5129 4.38366C41.0101 4.12513 41.5752 3.99587 42.2083 3.99587C42.8479 3.99587 43.4114 4.12348 43.8986 4.37868C44.3891 4.63058 44.7719 4.97527 45.047 5.41277C45.3221 5.84696 45.4597 6.33749 45.4597 6.88437C45.4597 7.26221 45.3884 7.63176 45.2459 7.99303C45.1067 8.3543 44.8631 8.757 44.5151 9.20113C44.1671 9.64194 43.6832 10.1772 43.0634 10.807L41.0399 12.9248V12.9994H45.6237V14.3169H38.922ZM50.8688 14.4561C50.2457 14.4561 49.6855 14.3368 49.1884 14.0981C48.6945 13.8562 48.3001 13.5248 48.0051 13.1038C47.7101 12.6829 47.5527 12.2023 47.5328 11.6621H49.0243C49.0608 12.0996 49.2547 12.4592 49.606 12.7409C49.9573 13.0226 50.3782 13.1635 50.8688 13.1635C51.2599 13.1635 51.6062 13.074 51.9078 12.895C52.2128 12.7127 52.4514 12.4625 52.6237 12.1443C52.7994 11.8261 52.8872 11.4632 52.8872 11.0555C52.8872 10.6412 52.7977 10.2717 52.6188 9.94687C52.4398 9.62206 52.1929 9.36685 51.878 9.18124C51.5664 8.99563 51.2085 8.90117 50.8041 8.89786C50.4959 8.89786 50.186 8.95089 49.8744 9.05695C49.5629 9.16301 49.311 9.30222 49.1188 9.47456L47.7118 9.26576L48.2835 4.13508H53.8815V5.45255H49.5612L49.2381 8.30127H49.2977C49.4966 8.10903 49.7601 7.94829 50.0882 7.81903C50.4197 7.68976 50.7743 7.62513 51.1521 7.62513C51.7719 7.62513 52.3238 7.77262 52.8077 8.0676C53.2949 8.36259 53.6777 8.76528 53.9561 9.2757C54.2378 9.7828 54.377 10.3661 54.3737 11.0257C54.377 11.6853 54.2279 12.2736 53.9263 12.7906C53.628 13.3077 53.2137 13.7153 52.6834 14.0136C52.1564 14.3086 51.5515 14.4561 50.8688 14.4561ZM56.8198 14.4114C56.548 14.4114 56.3143 14.3152 56.1188 14.123C55.9232 13.9275 55.8254 13.6921 55.8254 13.417C55.8254 13.1453 55.9232 12.9132 56.1188 12.721C56.3143 12.5255 56.548 12.4277 56.8198 12.4277C57.0915 12.4277 57.3252 12.5255 57.5208 12.721C57.7163 12.9132 57.8141 13.1453 57.8141 13.417C57.8141 13.5993 57.7677 13.7667 57.6749 13.9192C57.5854 14.0683 57.4661 14.1876 57.3169 14.2771C57.1678 14.3666 57.002 14.4114 56.8198 14.4114ZM62.6837 14.4618C62.0105 14.4589 61.4352 14.2814 60.9579 13.9291C60.4806 13.5768 60.1156 13.0641 59.8627 12.3908C59.6099 11.7175 59.4835 10.9064 59.4835 9.95752C59.4835 9.0115 59.6099 8.20326 59.8627 7.5328C60.1184 6.86235 60.4849 6.35099 60.9622 5.99871C61.4423 5.64644 62.0161 5.4703 62.6837 5.4703C63.3514 5.4703 63.9238 5.64786 64.4011 6.00297C64.8784 6.35525 65.2434 6.86661 65.4962 7.53706C65.7519 8.20468 65.8798 9.0115 65.8798 9.95752C65.8798 10.9092 65.7534 11.7217 65.5005 12.395C65.2477 13.0655 64.8826 13.5783 64.4053 13.9334C63.9281 14.2856 63.3542 14.4618 62.6837 14.4618ZM62.6837 13.324C63.2747 13.324 63.7363 13.0356 64.0687 12.4589C64.4039 11.8822 64.5715 11.0484 64.5715 9.95752C64.5715 9.23309 64.4948 8.62087 64.3414 8.12087C64.1909 7.61803 63.9735 7.23735 63.6894 6.97883C63.4082 6.71746 63.073 6.58678 62.6837 6.58678C62.0957 6.58678 61.634 6.87655 61.2988 7.4561C60.9636 8.03564 60.7945 8.86945 60.7917 9.95752C60.7917 10.6848 60.867 11.2998 61.0176 11.8027C61.171 12.3027 61.3883 12.682 61.6695 12.9405C61.9508 13.1962 62.2889 13.324 62.6837 13.324ZM70.4298 14.4618C69.7565 14.4589 69.1813 14.2814 68.704 13.9291C68.2267 13.5768 67.8617 13.0641 67.6088 12.3908C67.356 11.7175 67.2296 10.9064 67.2296 9.95752C67.2296 9.0115 67.356 8.20326 67.6088 7.5328C67.8645 6.86235 68.231 6.35099 68.7083 5.99871C69.1884 5.64644 69.7622 5.4703 70.4298 5.4703C71.0975 5.4703 71.6699 5.64786 72.1472 6.00297C72.6244 6.35525 72.9895 6.86661 73.2423 7.53706C73.498 8.20468 73.6259 9.0115 73.6259 9.95752C73.6259 10.9092 73.4994 11.7217 73.2466 12.395C72.9938 13.0655 72.6287 13.5783 72.1514 13.9334C71.6742 14.2856 71.1003 14.4618 70.4298 14.4618ZM70.4298 13.324C71.0208 13.324 71.4824 13.0356 71.8148 12.4589C72.15 11.8822 72.3176 11.0484 72.3176 9.95752C72.3176 9.23309 72.2409 8.62087 72.0875 8.12087C71.9369 7.61803 71.7196 7.23735 71.4355 6.97883C71.1543 6.71746 70.819 6.58678 70.4298 6.58678C69.8418 6.58678 69.3801 6.87655 69.0449 7.4561C68.7097 8.03564 68.5406 8.86945 68.5378 9.95752C68.5378 10.6848 68.6131 11.2998 68.7636 11.8027C68.9171 12.3027 69.1344 12.682 69.4156 12.9405C69.6969 13.1962 70.035 13.324 70.4298 13.324Z" fill="white"/>
</svg>
