<svg width="25" height="24" viewBox="0 0 25 24" fill="none" xmlns="http://www.w3.org/2000/svg">
<path d="M15.7219 7.642C14.7488 7.05697 13.6344 6.74856 12.4989 6.75C11.3645 6.7491 10.2512 7.05749 9.27895 7.642C9.10885 7.74057 8.90685 7.7684 8.71643 7.71952C8.52602 7.67064 8.36241 7.54894 8.26082 7.38064C8.15923 7.21233 8.12779 7.01086 8.17326 6.8196C8.21873 6.62834 8.33748 6.46258 8.50394 6.358C9.71037 5.63209 11.092 5.249 12.4999 5.25C13.9083 5.24882 15.2902 5.63191 16.4969 6.358C16.6605 6.46381 16.7765 6.6291 16.8203 6.81889C16.8641 7.00868 16.8324 7.20808 16.7319 7.3749C16.6313 7.54173 16.4698 7.66288 16.2815 7.71273C16.0932 7.76258 15.8919 7.73722 15.7219 7.642ZM5.15994 12.509L4.83595 12.671C4.74783 12.7151 4.6519 12.7413 4.55363 12.7483C4.45536 12.7553 4.35667 12.7429 4.26321 12.7117C4.16975 12.6806 4.08334 12.6313 4.00891 12.5667C3.93449 12.5022 3.8735 12.4236 3.82944 12.3355C3.78539 12.2474 3.75912 12.1515 3.75213 12.0532C3.74515 11.9549 3.75759 11.8562 3.78874 11.7628C3.8199 11.6693 3.86915 11.5829 3.9337 11.5085C3.99825 11.434 4.07683 11.3731 4.16494 11.329L5.16495 10.829C5.25757 10.7829 5.35874 10.7564 5.46209 10.7513C5.56545 10.7461 5.66874 10.7624 5.76549 10.7992C5.86223 10.8359 5.95033 10.8922 6.02423 10.9647C6.09814 11.0371 6.15627 11.124 6.19495 11.22L6.19694 11.222L6.20394 11.24L6.23894 11.318C6.27094 11.389 6.32094 11.496 6.38994 11.63C6.52994 11.898 6.74295 12.273 7.03695 12.689C7.62895 13.526 8.52194 14.493 9.75495 15.111C10.6068 15.5375 11.5474 15.7564 12.4999 15.75C13.4526 15.7561 14.3932 15.5368 15.2449 15.11C16.4779 14.493 17.3709 13.526 17.9629 12.689C18.2691 12.2564 18.5365 11.7976 18.7619 11.318L18.7959 11.239L18.8029 11.222C18.8414 11.1255 18.8995 11.038 18.9735 10.965C19.0476 10.8921 19.1359 10.8354 19.2331 10.7984C19.3302 10.7615 19.4339 10.7451 19.5377 10.7504C19.6415 10.7557 19.7431 10.7824 19.8359 10.829L20.8359 11.329C21.0139 11.418 21.1492 11.574 21.2121 11.7628C21.2751 11.9515 21.2604 12.1575 21.1714 12.3355C21.0825 12.5135 20.9264 12.6488 20.7377 12.7117C20.5489 12.7746 20.3429 12.76 20.1649 12.671L19.8409 12.509C19.6272 12.898 19.3901 13.2737 19.1309 13.634L19.4789 13.924C19.6317 14.0516 19.7275 14.2346 19.7454 14.4328C19.7632 14.6311 19.7015 14.8282 19.5739 14.981C19.4464 15.1338 19.2633 15.2296 19.0651 15.2474C18.8669 15.2652 18.6697 15.2036 18.5169 15.076L18.1679 14.784C17.6958 15.2719 17.1682 15.7028 16.5959 16.068L16.9069 16.633C17.003 16.8072 17.0258 17.0125 16.9705 17.2036C16.9152 17.3947 16.7862 17.556 16.6119 17.652C16.4377 17.748 16.2324 17.7709 16.0413 17.7155C15.8502 17.6602 15.689 17.5312 15.5929 17.357L15.2559 16.745C14.6121 16.9932 13.937 17.1514 13.2499 17.215V18C13.2499 18.1989 13.1709 18.3897 13.0303 18.5303C12.8896 18.671 12.6989 18.75 12.4999 18.75C12.301 18.75 12.1103 18.671 11.9696 18.5303C11.829 18.3897 11.7499 18.1989 11.7499 18V17.215C11.0628 17.1514 10.3878 16.9932 9.74395 16.745L9.40694 17.357C9.31094 17.5312 9.14964 17.6602 8.95854 17.7155C8.76744 17.7709 8.56219 17.748 8.38795 17.652C8.2137 17.556 8.08473 17.3947 8.0294 17.2036C7.97408 17.0125 7.99694 16.8072 8.09295 16.633L8.40495 16.068C7.83229 15.7029 7.30436 15.2719 6.83194 14.784L6.48294 15.075C6.40813 15.1431 6.32031 15.1953 6.22479 15.2285C6.12926 15.2618 6.028 15.2754 5.92709 15.2685C5.82618 15.2616 5.7277 15.2343 5.63759 15.1884C5.54748 15.1425 5.46759 15.0788 5.40273 15.0012C5.33788 14.9235 5.28939 14.8336 5.26018 14.7368C5.23098 14.6399 5.22167 14.5382 5.2328 14.4377C5.24394 14.3371 5.2753 14.2399 5.32499 14.1518C5.37468 14.0637 5.44167 13.9865 5.52194 13.925L5.86894 13.635C5.60976 13.2743 5.37366 12.8983 5.15994 12.509Z" fill="black"/>
</svg>
