<svg width="21" height="21" viewBox="0 0 21 21" fill="none" xmlns="http://www.w3.org/2000/svg">
<path d="M10.5236 5.01774C10.9902 5.01774 11.4569 5.30941 11.8069 5.90107L16.7319 14.1094C17.4486 15.2927 16.8986 16.2594 15.5236 16.2594H5.52358C4.14858 16.2594 3.59858 15.2927 4.30691 14.1177L9.23191 5.90941C9.59024 5.30941 10.0569 5.01774 10.5236 5.01774ZM10.5236 3.35107C9.44024 3.35107 8.45691 3.96774 7.80691 5.04274L2.88191 13.2594C2.51524 13.8761 2.33191 14.5094 2.33191 15.1177C2.33191 15.5844 2.44858 16.0427 2.68191 16.4511C3.21524 17.3844 4.24858 17.9261 5.52358 17.9261H15.5236C16.7986 17.9261 17.8319 17.3844 18.3652 16.4511C18.6069 16.0261 18.7236 15.5594 18.7152 15.0761C18.7069 14.4844 18.5236 13.8594 18.1652 13.2594L13.2402 5.05107C12.5902 3.96774 11.6069 3.35107 10.5236 3.35107ZM11.7736 14.3844C11.7736 14.3844 11.1819 14.6844 10.8819 14.5344C10.5819 14.3844 10.5236 14.0844 10.6902 13.5761L11.0319 12.5594C11.3652 11.5427 10.9319 10.8261 10.1319 10.7844C9.08191 10.7261 8.44858 11.4761 8.44858 11.4761C8.44858 11.4761 9.04024 11.1761 9.34024 11.3261C9.64024 11.4761 9.69858 11.7761 9.53191 12.2844L9.19024 13.3011C8.85691 14.3177 9.29024 15.0261 10.0902 15.0761C11.1402 15.1261 11.7736 14.3844 11.7736 14.3844Z" fill="#FFA800"/>
<path d="M10.5235 9.84294C11.1218 9.84294 11.6069 9.35791 11.6069 8.7596C11.6069 8.16129 11.1218 7.67627 10.5235 7.67627C9.92521 7.67627 9.44019 8.16129 9.44019 8.7596C9.44019 9.35791 9.92521 9.84294 10.5235 9.84294Z" fill="#FFA800"/>
</svg>
