<svg width="25" height="25" viewBox="0 0 25 25" fill="none" xmlns="http://www.w3.org/2000/svg">
<path d="M15.3856 13.3951C15.2346 14.0221 14.5186 14.4651 13.0856 15.3501C11.7026 16.2061 11.0106 16.6351 10.4526 16.4631C10.2182 16.388 10.0078 16.2524 9.84256 16.0701C9.43256 15.6201 9.43256 14.7461 9.43256 13.0001C9.43256 11.2541 9.43256 10.3801 9.84256 9.93007C10.0126 9.74407 10.2226 9.60907 10.4526 9.53807C11.0106 9.36507 11.7026 9.79407 13.0866 10.6501C14.5186 11.5361 15.2346 11.9791 15.3866 12.6051C15.4486 12.8647 15.4486 13.1354 15.3866 13.3951" stroke="#3579F6" stroke-width="1.5" stroke-linecap="round" stroke-linejoin="round"/>
<path d="M21.9299 11.4998C21.9312 11.9698 21.9319 12.4698 21.9319 12.9998C21.9319 17.4778 21.9319 19.7178 20.5409 21.1088C19.1499 22.4998 16.9109 22.4998 12.4319 22.4998C7.9539 22.4998 5.7139 22.4998 4.3229 21.1088C2.9319 19.7178 2.9319 17.4788 2.9319 12.9998C2.9319 8.52176 2.9319 6.28176 4.3229 4.89076C5.7139 3.49976 7.9529 3.49976 12.4319 3.49976C12.9619 3.49976 13.4619 3.50042 13.9319 3.50176" stroke="#3579F6" stroke-width="1.5" stroke-linecap="round" stroke-linejoin="round"/>
<path d="M19.4324 2.5L19.6904 3.197C20.0284 4.111 20.1974 4.568 20.5304 4.901C20.8644 5.235 21.3214 5.404 22.2354 5.742L22.9324 6L22.2354 6.258C21.3214 6.596 20.8644 6.765 20.5314 7.098C20.1974 7.432 20.0284 7.889 19.6904 8.803L19.4324 9.5L19.1744 8.803C18.8364 7.889 18.6674 7.432 18.3344 7.099C18.0004 6.765 17.5434 6.596 16.6294 6.258L15.9324 6L16.6294 5.742C17.5434 5.404 18.0004 5.235 18.3334 4.902C18.6674 4.568 18.8364 4.111 19.1744 3.197L19.4324 2.5Z" stroke="#3579F6" stroke-width="1.5" stroke-linecap="round" stroke-linejoin="round"/>
</svg>
