<svg width="115" height="56" viewBox="0 0 115 56" fill="none" xmlns="http://www.w3.org/2000/svg">
<g filter="url(#filter0_d_401_12758)">
<path d="M19.6927 12.3278C19.4673 11.6781 19.9497 11 20.6375 11H120.236C120.924 11 121.406 11.6781 121.181 12.3278L117.31 23.4815C117.237 23.6938 117.237 23.9248 117.31 24.1372L121.181 35.2908C121.406 35.9405 120.924 36.6187 120.236 36.6187H20.6374C19.9497 36.6187 19.4673 35.9405 19.6927 35.2908L23.5632 24.1372C23.6369 23.9248 23.6369 23.6938 23.5632 23.4815L19.6927 12.3278Z" fill="#F2A53A"/>
<rect x="31.4912" y="15.1846" width="17.25" height="17.25" rx="8.625" fill="white"/>
<rect x="31.4912" y="15.1846" width="17.25" height="17.25" rx="8.625" stroke="white" stroke-dasharray="0.4 0.4"/>
<path fill-rule="evenodd" clip-rule="evenodd" d="M31.9912 23.8096C31.9912 19.3223 35.6289 15.6846 40.1162 15.6846C44.6035 15.6846 48.2412 19.3223 48.2412 23.8096C48.2412 28.2968 44.6035 31.9346 40.1162 31.9346C35.6289 31.9346 31.9912 28.2968 31.9912 23.8096ZM40.1162 18.7078C40.2666 18.7078 40.4107 18.7675 40.517 18.8739C40.6233 18.9802 40.6831 19.1243 40.6831 19.2747V19.5143C41.915 19.735 42.9505 20.6608 42.9505 21.92C42.9505 22.0704 42.8908 22.2146 42.7845 22.3209C42.6782 22.4272 42.534 22.4869 42.3837 22.4869C42.2333 22.4869 42.0891 22.4272 41.9828 22.3209C41.8765 22.2146 41.8168 22.0704 41.8168 21.92C41.8168 21.4076 41.3905 20.8642 40.6831 20.6707V23.2933C41.915 23.514 42.9505 24.4399 42.9505 25.6991C42.9505 26.9583 41.915 27.8842 40.6831 28.1049V28.3445C40.6831 28.4948 40.6233 28.639 40.517 28.7453C40.4107 28.8516 40.2666 28.9113 40.1162 28.9113C39.9659 28.9113 39.8217 28.8516 39.7154 28.7453C39.6091 28.639 39.5494 28.4948 39.5494 28.3445V28.1049C38.3174 27.8842 37.2819 26.9583 37.2819 25.6991C37.2819 25.5488 37.3416 25.4046 37.4479 25.2983C37.5542 25.192 37.6984 25.1322 37.8488 25.1322C37.9991 25.1322 38.1433 25.192 38.2496 25.2983C38.3559 25.4046 38.4156 25.5488 38.4156 25.6991C38.4156 26.2115 38.8419 26.755 39.5494 26.9477V24.3258C38.3174 24.1051 37.2819 23.1792 37.2819 21.92C37.2819 20.6608 38.3174 19.735 39.5494 19.5143V19.2747C39.5494 19.1243 39.6091 18.9802 39.7154 18.8739C39.8217 18.7675 39.9659 18.7078 40.1162 18.7078ZM39.5494 20.6707C38.8419 20.8642 38.4156 21.4076 38.4156 21.92C38.4156 22.4325 38.8419 22.9759 39.5494 23.1686V20.6707ZM40.6831 24.4497V26.9485C41.3905 26.755 41.8168 26.2123 41.8168 25.6991C41.8168 25.1867 41.3905 24.6425 40.6831 24.4497Z" fill="#F2A53A"/>
<path d="M60.298 30.0823V17.355H61.1134V30.0823H60.298ZM63.0423 21.1732C62.9827 20.6694 62.7407 20.2783 62.3165 19.9999C61.8923 19.7215 61.3719 19.5823 60.7554 19.5823C60.3047 19.5823 59.9102 19.6552 59.5722 19.801C59.2374 19.9469 58.9756 20.1474 58.7867 20.4026C58.6011 20.6578 58.5083 20.9478 58.5083 21.2726C58.5083 21.5444 58.5729 21.7781 58.7021 21.9736C58.8347 22.1659 59.0038 22.3266 59.2093 22.4559C59.4147 22.5818 59.6302 22.6862 59.8556 22.7691C60.0809 22.8486 60.2881 22.9133 60.477 22.963L61.5111 23.2414C61.7762 23.311 62.0712 23.4071 62.396 23.5297C62.7242 23.6524 63.0374 23.8197 63.3357 24.0319C63.6373 24.2407 63.8859 24.5091 64.0814 24.8373C64.277 25.1654 64.3747 25.5681 64.3747 26.0454C64.3747 26.5956 64.2306 27.0927 63.9422 27.5368C63.6572 27.981 63.2396 28.334 62.6894 28.5958C62.1425 28.8576 61.478 28.9885 60.6958 28.9885C59.9666 28.9885 59.3352 28.8709 58.8016 28.6356C58.2713 28.4002 57.8537 28.0721 57.5487 27.6512C57.2471 27.2303 57.0764 26.7414 57.0367 26.1846H58.3094C58.3425 26.569 58.4718 26.8872 58.6972 27.1391C58.9259 27.3877 59.2142 27.5733 59.5622 27.6959C59.9136 27.8153 60.2914 27.8749 60.6958 27.8749C61.1664 27.8749 61.589 27.7987 61.9635 27.6462C62.338 27.4904 62.6347 27.275 62.8534 26.9999C63.0722 26.7215 63.1816 26.3967 63.1816 26.0255C63.1816 25.6874 63.0871 25.4123 62.8982 25.2002C62.7093 24.9881 62.4607 24.8157 62.1524 24.6831C61.8442 24.5506 61.5111 24.4346 61.1531 24.3351L59.9003 23.9772C59.1048 23.7485 58.4751 23.422 58.0111 22.9978C57.5471 22.5735 57.3151 22.0184 57.3151 21.3323C57.3151 20.7622 57.4692 20.2651 57.7774 19.8408C58.089 19.4133 58.5066 19.0818 59.0303 18.8465C59.5573 18.6079 60.1456 18.4885 60.7952 18.4885C61.4514 18.4885 62.0348 18.6062 62.5452 18.8415C63.0556 19.0735 63.46 19.3917 63.7583 19.7961C64.0599 20.2004 64.219 20.6595 64.2355 21.1732H63.0423ZM66.2229 28.8096V27.9147L69.5837 24.2357C69.9781 23.8048 70.3029 23.4303 70.5581 23.1121C70.8134 22.7906 71.0023 22.489 71.1249 22.2073C71.2509 21.9223 71.3138 21.624 71.3138 21.3124C71.3138 20.9545 71.2277 20.6446 71.0553 20.3827C70.8863 20.1209 70.6543 19.9187 70.3593 19.7762C70.0643 19.6337 69.7329 19.5624 69.365 19.5624C68.9739 19.5624 68.6325 19.6436 68.3408 19.806C68.0525 19.9651 67.8287 20.1888 67.6697 20.4772C67.5139 20.7655 67.436 21.1036 67.436 21.4914H66.2627C66.2627 20.8948 66.4002 20.3711 66.6753 19.9204C66.9504 19.4696 67.325 19.1183 67.7989 18.8664C68.2762 18.6145 68.8115 18.4885 69.4047 18.4885C70.0013 18.4885 70.53 18.6145 70.9907 18.8664C71.4514 19.1183 71.8126 19.458 72.0745 19.8856C72.3363 20.3131 72.4672 20.7887 72.4672 21.3124C72.4672 21.6869 72.3993 22.0532 72.2634 22.4111C72.1308 22.7658 71.8988 23.1618 71.5674 23.5993C71.2393 24.0335 70.7835 24.5638 70.2002 25.1903L67.9133 27.6363V27.7158H72.6462V28.8096H66.2229ZM77.8813 28.9488C77.298 28.9488 76.7726 28.8328 76.3053 28.6008C75.838 28.3688 75.4635 28.0506 75.1817 27.6462C74.9 27.2419 74.7459 26.7812 74.7194 26.2641H75.9126C75.959 26.7248 76.1678 27.106 76.539 27.4076C76.9135 27.7059 77.3609 27.855 77.8813 27.855C78.2989 27.855 78.6701 27.7573 78.9949 27.5617C79.3231 27.3662 79.5799 27.0977 79.7655 26.7563C79.9545 26.4116 80.0489 26.0222 80.0489 25.588C80.0489 25.1439 79.9511 24.7478 79.7556 24.3998C79.5634 24.0484 79.2982 23.7717 78.9601 23.5695C78.6221 23.3673 78.2359 23.2646 77.8018 23.2613C77.4902 23.258 77.1704 23.306 76.8422 23.4055C76.5141 23.5016 76.244 23.6259 76.0319 23.7783L74.8785 23.6391L75.4949 18.6278H80.7847V19.7215H76.529L76.1711 22.7243H76.2307C76.4395 22.5586 76.7014 22.4211 77.0162 22.3117C77.3311 22.2023 77.6592 22.1476 78.0006 22.1476C78.6237 22.1476 79.1789 22.2968 79.6661 22.5951C80.1566 22.8901 80.5411 23.2944 80.8195 23.8081C81.1012 24.3219 81.2421 24.9085 81.2421 25.5681C81.2421 26.2177 81.0963 26.7977 80.8046 27.3081C80.5162 27.8153 80.1185 28.2163 79.6114 28.5113C79.1043 28.8029 78.5276 28.9488 77.8813 28.9488ZM83.7093 28.8891C83.464 28.8891 83.2535 28.8013 83.0779 28.6256C82.9022 28.45 82.8144 28.2395 82.8144 27.9942C82.8144 27.749 82.9022 27.5385 83.0779 27.3628C83.2535 27.1872 83.464 27.0993 83.7093 27.0993C83.9545 27.0993 84.165 27.1872 84.3406 27.3628C84.5163 27.5385 84.6041 27.749 84.6041 27.9942C84.6041 28.1566 84.5627 28.3058 84.4798 28.4417C84.4003 28.5776 84.2926 28.6869 84.1567 28.7698C84.0241 28.8493 83.875 28.8891 83.7093 28.8891ZM89.3857 28.9289C88.7437 28.9289 88.1968 28.7542 87.7451 28.4047C87.2934 28.0525 86.9482 27.5425 86.7096 26.8749C86.471 26.2045 86.3517 25.3948 86.3517 24.4459C86.3517 23.5028 86.471 22.6974 86.7096 22.0297C86.9511 21.3593 87.2977 20.8479 87.7494 20.4956C88.2039 20.1405 88.7494 19.963 89.3857 19.963C90.0221 19.963 90.5661 20.1405 91.0178 20.4956C91.4724 20.8479 91.819 21.3593 92.0576 22.0297C92.2991 22.6974 92.4198 23.5028 92.4198 24.4459C92.4198 25.3948 92.3005 26.2045 92.0619 26.8749C91.8232 27.5425 91.4781 28.0525 91.0264 28.4047C90.5747 28.7542 90.0278 28.9289 89.3857 28.9289ZM89.3857 27.9914C90.0221 27.9914 90.5164 27.6846 90.8687 27.0709C91.221 26.4573 91.3971 25.5823 91.3971 24.4459C91.3971 23.6903 91.3161 23.0468 91.1542 22.5155C90.9951 21.9843 90.765 21.5795 90.4639 21.301C90.1656 21.0226 89.8062 20.8834 89.3857 20.8834C88.7551 20.8834 88.2622 21.1945 87.907 21.8167C87.5519 22.436 87.3744 23.3124 87.3744 24.4459C87.3744 25.2016 87.4539 25.8437 87.613 26.3721C87.7721 26.9005 88.0008 27.3025 88.2991 27.578C88.6002 27.8536 88.9624 27.9914 89.3857 27.9914ZM96.8857 28.9289C96.2437 28.9289 95.6968 28.7542 95.2451 28.4047C94.7934 28.0525 94.4482 27.5425 94.2096 26.8749C93.971 26.2045 93.8517 25.3948 93.8517 24.4459C93.8517 23.5028 93.971 22.6974 94.2096 22.0297C94.4511 21.3593 94.7977 20.8479 95.2494 20.4956C95.7039 20.1405 96.2494 19.963 96.8857 19.963C97.5221 19.963 98.0661 20.1405 98.5178 20.4956C98.9724 20.8479 99.319 21.3593 99.5576 22.0297C99.7991 22.6974 99.9198 23.5028 99.9198 24.4459C99.9198 25.3948 99.8005 26.2045 99.5619 26.8749C99.3232 27.5425 98.9781 28.0525 98.5264 28.4047C98.0747 28.7542 97.5278 28.9289 96.8857 28.9289ZM96.8857 27.9914C97.5221 27.9914 98.0164 27.6846 98.3687 27.0709C98.721 26.4573 98.8971 25.5823 98.8971 24.4459C98.8971 23.6903 98.8161 23.0468 98.6542 22.5155C98.4951 21.9843 98.265 21.5795 97.9639 21.301C97.6656 21.0226 97.3062 20.8834 96.8857 20.8834C96.2551 20.8834 95.7622 21.1945 95.407 21.8167C95.0519 22.436 94.8744 23.3124 94.8744 24.4459C94.8744 25.2016 94.9539 25.8437 95.113 26.3721C95.2721 26.9005 95.5008 27.3025 95.7991 27.578C96.1002 27.8536 96.4624 27.9914 96.8857 27.9914Z" fill="white"/>
</g>
<defs>
<filter id="filter0_d_401_12758" x="0.231934" y="0" width="132.005" height="55.6187" filterUnits="userSpaceOnUse" color-interpolation-filters="sRGB">
<feFlood flood-opacity="0" result="BackgroundImageFix"/>
<feColorMatrix in="SourceAlpha" type="matrix" values="0 0 0 0 0 0 0 0 0 0 0 0 0 0 0 0 0 0 127 0" result="hardAlpha"/>
<feOffset dx="-4" dy="4"/>
<feGaussianBlur stdDeviation="7.5"/>
<feComposite in2="hardAlpha" operator="out"/>
<feColorMatrix type="matrix" values="0 0 0 0 0 0 0 0 0 0 0 0 0 0 0 0 0 0 0.25 0"/>
<feBlend mode="normal" in2="BackgroundImageFix" result="effect1_dropShadow_401_12758"/>
<feBlend mode="normal" in="SourceGraphic" in2="effect1_dropShadow_401_12758" result="shape"/>
</filter>
</defs>
</svg>
