<svg width="33" height="33" viewBox="0 0 33 33" fill="none" xmlns="http://www.w3.org/2000/svg">
<path d="M16.5 28.808C23.1274 28.808 28.5 23.4354 28.5 16.808C28.5 10.1806 23.1274 4.80798 16.5 4.80798C9.87258 4.80798 4.5 10.1806 4.5 16.808C4.5 23.4354 9.87258 28.808 16.5 28.808Z" fill="white"/>
<path fill-rule="evenodd" clip-rule="evenodd" d="M18.621 14.4293C19.1836 13.8667 19.4997 13.1036 19.4997 12.308C19.4997 11.5124 19.1836 10.7493 18.621 10.1867C18.0584 9.62405 17.2953 9.30798 16.4997 9.30798C15.704 9.30798 14.941 9.62405 14.3783 10.1867C13.8157 10.7493 13.4997 11.5124 13.4997 12.308C13.4997 13.1036 13.8157 13.8667 14.3783 14.4293C14.941 14.9919 15.704 15.308 16.4997 15.308C17.2953 15.308 18.0584 14.9919 18.621 14.4293ZM12.4488 19.4951C13.6576 18.7197 15.0636 18.3077 16.4997 18.308C17.9358 18.3077 19.3418 18.7197 20.5505 19.4951C21.7593 20.2705 22.7201 21.3766 23.3187 22.682C22.4746 23.6639 21.4283 24.4516 20.2512 24.9912C19.0742 25.5308 17.7945 25.8094 16.4997 25.808C15.2049 25.8094 13.9251 25.5308 12.7481 24.9912C11.5711 24.4516 10.5247 23.6639 9.68066 22.682C10.2792 21.3766 11.24 20.2705 12.4488 19.4951Z" fill="#3579F6"/>
</svg>
