<svg width="200" height="124" viewBox="0 0 200 124" fill="none" xmlns="http://www.w3.org/2000/svg">
<g id="Group">
<path id="Vector" d="M193.535 79.1816C197.202 79.1258 199.695 88.0742 199.103 99.1704C198.511 110.267 195.057 119.306 191.389 119.364C187.721 119.42 185.228 110.471 185.821 99.3752C186.413 88.279 189.867 79.2393 193.535 79.1816Z" fill="#3579F6"/>
<path id="Vector_2" d="M171.951 15.5055C175.619 15.4496 178.112 24.398 177.52 35.4942C176.927 46.5904 173.473 55.6301 169.806 55.6878C166.138 55.7436 163.645 46.7952 164.237 35.6991C164.829 24.6029 168.283 15.5632 171.951 15.5073L171.951 15.5055Z" fill="#080717"/>
<g id="Group_2">
<path id="Vector_3" d="M69.0745 39.9892C68.7016 40.7642 67.7066 41.2485 66.8514 41.0698C65.9962 40.8911 65.604 40.1187 65.9768 39.3437C66.3497 38.5688 67.3447 38.0845 68.1999 38.2632C69.0551 38.4419 69.4454 39.2137 69.0745 39.9892Z" stroke="black" stroke-width="0.996525" stroke-linecap="round" stroke-linejoin="round"/>
<path id="Vector_4" d="M74.6355 39.8103C74.2627 40.5852 73.2676 41.0695 72.4125 40.8908C71.5573 40.7121 71.165 39.9397 71.5379 39.1648C71.9107 38.3899 72.9057 37.9055 73.7609 38.0842C74.6161 38.2629 75.0084 39.0354 74.6355 39.8103Z" stroke="black" stroke-width="0.996525" stroke-linecap="round" stroke-linejoin="round"/>
<path id="Vector_5" d="M69.0461 40.4215L71.692 34.8985L77.0714 34.3322L74.4244 39.857" stroke="black" stroke-width="0.996525" stroke-linecap="round" stroke-linejoin="round"/>
</g>
<path id="Vector_6" d="M16.8008 95.7716C16.8008 95.7716 24.7715 87.7384 22.0691 85.8718C18.7062 83.5454 14.0382 88.5344 15.081 90.8642C16.1259 93.1932 16.8716 86.1957 12.6641 86.6031C9.37937 86.9217 7.34045 90.8388 16.7987 95.7724L16.8008 95.7716Z" fill="black"/>
<g id="Group_3">
<path id="Vector_7" d="M55.6709 107.275C51.9794 107.428 49.107 105.015 49.254 101.886C49.401 98.7569 52.5118 96.0977 56.2033 95.9454C58.8249 95.8373 61.0294 97.0269 62.0342 98.845L63.4809 98.7853L63.2444 103.819L61.7976 103.879C60.6178 105.787 58.2926 107.163 55.6711 107.271L55.6709 107.275Z" fill="#3579F6"/>
<path id="Vector_8" d="M65.9014 98.2586L65.7056 104.376" stroke="black" stroke-width="0.996525"/>
<path id="Vector_9" d="M62.7655 101.406L56.688 101.584" stroke="black" stroke-width="0.996525"/>
<path id="Vector_10" d="M56.7273 100.36L56.6489 102.808" stroke="black" stroke-width="0.996525"/>
<path id="Vector_11" d="M56.0072 98.484C53.9581 98.5686 52.2326 100.043 52.1509 101.78" stroke="black" stroke-width="0.996525"/>
</g>
<g id="Group_4">
<path id="Vector_12" d="M126.869 21.9545L170.259 22.1247L170.872 24.8698C172.553 32.3977 170.9 40.4277 166.223 47.4642C166.175 47.4814 114.151 40.5452 107.72 38.5164C101.164 36.4487 80.546 29.4953 80.3383 29.4254C80.1041 29.347 79.993 29.1262 80.079 28.9109C80.1347 28.7731 81.4758 25.5296 84.7306 25.4373C87.1386 25.3693 95.4997 25.8108 98.5474 25.9806C97.0135 24.097 92.6689 19.1518 87.5591 16.7741C87.3196 16.6635 87.2486 16.401 87.4018 16.1887C87.4881 16.0669 87.6282 15.9944 87.7775 15.9694C87.7529 15.9169 87.7398 15.8602 87.7447 15.8008C87.7453 15.7893 87.7525 15.7795 87.7552 15.7679C86.9833 16.1177 86.0895 16.5334 85.1579 16.9888C83.164 17.964 81.394 18.2603 79.8975 17.8698C77.9177 17.3537 77.1845 15.8178 77.1559 15.756C77.1498 15.7429 77.1526 15.7294 77.1487 15.7162C77.075 15.7592 76.9966 15.8063 76.9297 15.8471C72.709 18.3796 67.7312 14.9277 67.5203 14.7796C67.3986 14.6929 67.3373 14.5617 67.3594 14.4215C67.3792 14.2813 67.4748 14.1534 67.6197 14.0751L72.931 11.1896C71.5852 11.0356 66.7138 10.4197 65.2909 9.49565C63.6698 8.4421 62.8661 5.25414 62.8318 5.11999C62.7998 4.98574 62.8446 4.83888 62.9596 4.72737C63.0722 4.61787 63.2367 4.554 63.4001 4.5608L83.4168 5.367C83.4773 5.36839 83.5257 5.38936 83.5764 5.40832L87.0636 3.51423C87.1786 3.45235 87.3143 3.42781 87.4413 3.44562C87.4413 3.44562 109.32 6.75595 109.385 6.81062L126.878 21.958L126.869 21.9545Z" fill="#3579F6"/>
<path id="Vector_13" d="M71.606 11.4666L82.4894 5.55928L85.9633 3.67441" stroke="#080717" stroke-width="0.996525" stroke-linecap="round" stroke-linejoin="round"/>
<path id="Vector_14" d="M95.0072 5.11101C91.0758 7.23411 79.6752 13.4164 76.3579 15.5183" stroke="#080717" stroke-width="0.996525" stroke-linecap="round" stroke-linejoin="round"/>
<path id="Vector_15" d="M97.5195 8.73858L86.9152 16.4067C86.9152 16.4067 89.9999 18.6501 92.5504 17.8817C95.1008 17.1133 100.229 13.7967 100.229 13.7967L105.269 15.2282C105.269 15.2282 105.316 21.3278 110.78 25.3502" stroke="#080717" stroke-width="0.996525" stroke-linecap="round" stroke-linejoin="round"/>
</g>
<g id="Group_5">
<path id="Vector_16" d="M124.159 103.721L191.063 109.312C196.235 101.118 196.663 91.606 192.215 83.7665L192.169 83.6872C192.122 83.6697 115.166 84.8737 108.29 86.8954C101.284 88.9549 79.1513 95.8844 78.9273 95.9548C78.676 96.0319 78.5175 96.2562 78.5599 96.4746C78.5877 96.6145 79.2758 99.897 82.5268 100.006C84.9336 100.086 93.4219 99.6784 96.5197 99.5232C94.5959 101.419 89.2225 106.397 83.6027 108.776C83.3387 108.886 83.2145 109.152 83.3247 109.368C83.387 109.491 83.5123 109.565 83.6578 109.59C83.6239 109.644 83.5989 109.701 83.5895 109.761C83.589 109.773 83.5931 109.782 83.5926 109.794C82.8865 109.436 82.0752 109.012 81.2316 108.548C79.428 107.553 77.7097 107.245 76.126 107.633C74.0318 108.146 72.9843 109.694 72.941 109.757C72.9314 109.771 72.9308 109.784 72.9257 109.798C72.8599 109.754 72.7921 109.707 72.7307 109.667C69.0068 107.087 63.3018 110.552 63.061 110.701C62.922 110.787 62.8327 110.922 62.8266 111.063C62.816 111.204 62.8871 111.335 63.0166 111.415L67.7666 114.355C66.3826 114.504 61.3627 115.103 59.7467 116.03C57.9041 117.087 56.4463 120.305 56.3841 120.44C56.3242 120.576 56.3402 120.726 56.4323 120.838C56.5222 120.951 56.675 121.014 56.8421 121.008L77.1178 120.286C77.1788 120.284 77.2315 120.265 77.2863 120.247L80.4025 122.176C80.5057 122.24 80.6376 122.266 80.7692 122.247C80.7692 122.247 103.426 119.004 103.503 118.949L124.163 103.723L124.159 103.721Z" fill="black"/>
<path id="Vector_17" d="M67.01 113.427L76.645 119.32L79.7207 121.201" stroke="white" stroke-width="0.996525" stroke-linecap="round" stroke-linejoin="round"/>
<path id="Vector_18" d="M88.9822 119.902C85.4994 117.785 75.406 111.617 72.5336 109.522" stroke="white" stroke-width="0.996525" stroke-linecap="round" stroke-linejoin="round"/>
<path id="Vector_19" d="M92.0883 116.573L83.0626 108.886C83.0626 108.886 86.6192 106.64 89.0125 107.411C91.408 108.183 95.8545 111.509 95.8545 111.509L101.2 110.077C101.2 110.077 102.516 103.965 108.826 99.9353" stroke="white" stroke-width="0.996525" stroke-linecap="round" stroke-linejoin="round"/>
</g>
<g id="Group_6">
<path id="Vector_20" d="M108.448 47.5667L108.307 51.976" stroke="#282D33" stroke-width="0.996525"/>
<path id="Vector_21" d="M111.114 49.6913L105.641 49.8513" stroke="#282D33" stroke-width="0.996525"/>
</g>
<g id="Group_7">
<path id="Vector_22" d="M130.283 76.5892C130.233 77.6426 129.562 78.635 128.486 79.2409L108.912 90.2703C107.192 91.2401 104.985 90.9072 103.989 89.5295L92.6672 73.8438C92.3249 73.37 92.1576 72.8154 92.1847 72.2396C92.2342 71.1862 92.9056 70.1938 93.9811 69.5879L113.555 58.5585C115.275 57.5887 117.482 57.9216 118.478 59.2993L129.8 74.9831C130.143 75.457 130.31 76.0115 130.283 76.5873M131.88 76.5214C131.918 75.7153 131.695 74.9124 131.184 74.2043L119.862 58.5205C118.424 56.528 115.243 56.0488 112.756 57.4496L93.1796 68.4792C91.5766 69.3819 90.6542 70.8444 90.5855 72.3037C90.5476 73.1098 90.77 73.9127 91.2813 74.6208L102.604 90.3046C104.042 92.2971 107.222 92.7763 109.709 91.3755L129.283 80.346C130.886 79.4433 131.809 77.9808 131.878 76.5215L131.88 76.5214Z" fill="#3579F6"/>
<path id="Vector_23" d="M116.251 71.2974C113.975 72.5803 111.063 72.1408 109.746 70.3167C108.429 68.4925 109.208 65.9752 111.485 64.6923C113.761 63.4094 116.673 63.8489 117.99 65.673C119.307 67.4972 118.528 70.0145 116.251 71.2974Z" fill="black"/>
<path id="Vector_24" d="M93.136 68.3063L97.5833 65.8013L100.74 66.2765C103.075 66.629 104.46 68.5502 103.838 70.5673C103.248 72.4776 104.562 74.2961 106.771 74.6293L119.169 76.4979C122.112 76.9423 123.862 79.3652 123.075 81.9096L122.414 84.051L109.68 91.2259C107.191 92.6279 104.008 92.1482 102.568 90.1538L91.2363 74.4534C89.7971 72.4591 90.6473 69.7064 93.1361 68.3044L93.136 68.3063Z" fill="#3579F6"/>
</g>
<path id="Vector_25" d="M75.6169 69.051L73.8406 56.3612L72.062 43.6696L85.9609 49.3312L99.8622 54.9909L88.5971 58.079L94.9151 65.4747L89.2625 68.7511L82.9467 61.3553L75.6169 69.051Z" fill="#080717"/>
<g id="Group 4">
<path id="Vector_26" d="M50.6993 18.7964L11.3199 19.9479C5.81024 20.109 1.22754 23.8387 1.08542 28.2773C0.952486 32.4293 4.7541 35.7321 9.75536 36.008L9.61848 40.2832L15.3434 35.8905L50.1846 34.8717C55.6942 34.7106 60.2769 30.9809 60.419 26.5423C60.5612 22.1037 56.2089 18.6352 50.6993 18.7964Z" fill="#FF64C5"/>
<g id="Group_8">
<path id="Vector_27" d="M12.3076 26.3514L49.0622 25.2767" stroke="#282D33" stroke-width="0.996525"/>
<path id="Vector_28" d="M12.1992 29.7355L48.9538 28.6607" stroke="#282D33" stroke-width="0.996525"/>
</g>
</g>
<g id="Group_9">
<path id="Vector_29" d="M61.3057 56.2999L57.6616 54.854C55.6498 54.0565 53.4754 54.1851 52.8079 55.1433L20.009 103.68L30.9415 108.016L63.7405 59.4791C64.408 58.5209 63.3175 57.0975 61.3057 56.2999Z" fill="#3579F6"/>
<path id="Vector_30" d="M51.79 57.2633L62.8612 61.661L63.9175 60.1451C64.5931 59.1742 63.4885 57.7312 61.4512 56.9222L57.7609 55.4557C55.7236 54.6468 53.522 54.7764 52.8464 55.7473L51.79 57.2633Z" fill="#080717"/>
<path id="Vector_31" d="M27.7709 107.633L20.2665 112.262L21.1965 105.029L27.7709 107.633ZM30.8724 107.321L19.8744 102.963L18.3187 115.062L30.8724 107.321Z" fill="#282D33"/>
<path id="Vector_32" d="M19.015 109.258L18.2839 114.947L24.1943 111.303L19.015 109.258Z" fill="#080717"/>
</g>
<g id="Group_10">
<path id="Vector_33" d="M63.6389 70.0744L65.1943 70.3754" stroke="#282D33" stroke-width="0.996525"/>
<path id="Vector_34" d="M63.6389 70.0744L65.1943 70.3754" stroke="#282D33" stroke-width="0.996525"/>
<path id="Vector_35" d="M65.0347 74.7067L66.2158 73.6988" stroke="#282D33" stroke-width="0.996525"/>
<path id="Vector_36" d="M70.7522 75.7693L70.4023 74.494" stroke="#282D33" stroke-width="0.996525"/>
<path id="Vector_37" d="M75.1004 72.2331L73.5427 71.9321" stroke="#282D33" stroke-width="0.996525"/>
<path id="Vector_38" d="M73.7019 67.6008L72.5229 68.6104" stroke="#282D33" stroke-width="0.996525"/>
<path id="Vector_39" d="M67.9844 66.5382L68.3342 67.8153" stroke="#282D33" stroke-width="0.996525"/>
</g>
<g id="Group_11">
<path id="Vector_40" d="M30.2086 46.3819L30.2243 46.3714C30.2993 46.3354 30.3713 46.2965 30.4093 46.2733C30.4746 46.2366 30.5401 46.1972 30.6188 46.1563C33.1504 44.762 37.6448 44.9425 40.9247 45.0754C41.822 45.1116 42.6375 45.1442 43.3717 45.1483C43.2594 45.7245 43.1692 46.3715 43.0709 47.0779C42.7097 49.6712 42.2167 53.2216 40.0662 54.9909C40.0116 55.0376 39.9539 55.0815 39.9223 55.1078C39.8594 55.1552 39.7996 55.2054 39.743 55.2559L39.7274 55.2665C39.6979 55.2864 39.6702 55.3051 39.6407 55.3251C39.6338 55.3297 39.6268 55.3344 39.6181 55.3403C39.6095 55.3462 39.6043 55.3497 39.5973 55.3544C39.5696 55.3731 39.5418 55.3919 39.5136 55.4158L39.4963 55.4275C39.4212 55.4635 39.3509 55.5012 39.3112 55.5256C39.246 55.5623 39.1805 55.6017 39.1017 55.6426C36.5701 57.0369 32.0758 56.8564 28.7958 56.7235C27.9051 56.6878 27.0863 56.655 26.3488 56.6506C26.4614 56.0718 26.5516 55.4248 26.6496 54.721C27.0109 52.1277 27.5039 48.5774 29.6543 46.808C29.7089 46.7613 29.7666 46.7174 29.7983 46.6911C29.8611 46.6437 29.9192 46.5947 29.9775 46.543L29.9931 46.5325C30.0226 46.5125 30.0504 46.4938 30.0799 46.4739C30.0868 46.4692 30.0937 46.4645 30.1007 46.4598C30.1076 46.4551 30.1146 46.4504 30.1232 46.4446C30.151 46.4258 30.1787 46.407 30.2069 46.3831M29.1212 45.3561C29.0813 45.383 29.0477 45.4131 29.0095 45.4389C28.9696 45.4658 28.9269 45.4873 28.8887 45.5131C28.7985 45.5741 28.7251 45.6507 28.6377 45.7171C28.5694 45.7706 28.5027 45.8255 28.4359 45.8804C24.878 48.8092 25.3141 55.0349 24.4374 57.4541C24.2638 57.9368 24.4116 58.0748 25.0395 58.0159C28.1856 57.717 35.8573 59.0536 40.0675 56.7336C40.1465 56.69 40.2254 56.6465 40.3028 56.6015C40.3976 56.5448 40.5046 56.4995 40.5965 56.4374C40.6364 56.4104 40.67 56.3804 40.7082 56.3546C40.7481 56.3277 40.7908 56.3061 40.829 56.2803C40.9192 56.2194 40.9926 56.1428 41.08 56.0764C41.1483 56.0229 41.2151 55.968 41.2818 55.9131C44.7361 53.069 44.4256 47.114 45.2068 44.5582C45.3901 43.9562 45.1522 43.7565 44.3549 43.8024C41.0323 43.9925 33.7214 42.8166 29.6502 45.0599C29.5713 45.1034 29.4923 45.147 29.4149 45.192C29.3201 45.2486 29.2131 45.2939 29.1212 45.3561Z" fill="#080717"/>
<path id="Vector_41" d="M37.4514 49.642C36.5211 50.2704 35.1057 50.1619 34.2884 49.3996C33.5994 48.7569 33.5653 47.8584 34.1238 47.2145C33.2512 47.2922 32.405 47.5655 31.6944 48.0455C29.7429 49.3636 29.5523 51.728 31.2652 53.3257C32.9781 54.9233 35.9508 55.1512 37.9006 53.8342C39.8504 52.5173 40.0427 50.1517 38.3298 48.5541C38.2906 48.5175 38.2462 48.4844 38.2053 48.449C38.1639 48.8989 37.9114 49.3313 37.4514 49.642Z" fill="#080717"/>
</g>
</g>
</svg>
