<svg width="76" height="27" viewBox="0 0 76 27" fill="none" xmlns="http://www.w3.org/2000/svg">
<path d="M4.41714 6.0631V9.6059C5.14909 7.38096 7.05196 5.71191 9.51163 5.71191C12.7906 5.71191 15.631 8.52277 15.631 13.7929C15.631 19.0629 12.7032 21.8442 9.57031 21.8442C7.25757 21.8442 5.29557 20.2925 4.47583 18.0967V26.7631H0.259766V6.0631H4.41714ZM11.2098 13.7924C11.2098 10.5717 9.59943 8.99087 7.69656 8.99087C5.9984 8.99087 4.4176 10.2501 4.4176 13.3238V14.2314C4.4176 17.3056 5.9984 18.5644 7.69656 18.5644C9.59988 18.5644 11.2098 16.9836 11.2098 13.7919V13.7924Z" fill="white"/>
<path d="M26.4052 21.4934V18.1849C25.5854 20.4098 23.7704 21.8446 21.252 21.8446C18.1777 21.8446 16.5674 19.7657 16.5674 16.2816V6.06348H20.7834V14.9346C20.7834 17.4234 21.7497 18.5356 23.5356 18.5356C25.3216 18.5356 26.3465 17.306 26.3465 14.9346V6.06348H30.5625V21.493H26.4052V21.4934Z" fill="white"/>
<path d="M36.5344 0.236816V9.57648C37.2372 7.35154 39.1401 5.7116 41.5702 5.7116C44.8492 5.7116 47.6896 8.52246 47.6896 13.7925C47.6896 19.0626 44.7618 21.8439 41.6289 21.8439C39.2575 21.8439 37.2373 20.2044 36.4757 17.9499V21.4927H32.3184V0.236816H36.5344ZM43.2684 13.7925C43.2684 10.5718 41.658 8.99102 39.7552 8.99102C38.057 8.99102 36.4762 10.2502 36.4762 13.324V14.2315C36.4762 17.3058 38.057 18.5645 39.7552 18.5645C41.6585 18.5645 43.2684 16.9837 43.2684 13.7921V13.7925Z" fill="white"/>
<path d="M52.9597 0.236816V9.57648C53.6625 7.35154 55.5654 5.7116 57.9955 5.7116C61.2744 5.7116 64.1144 8.52246 64.1144 13.7925C64.1144 19.0626 61.1866 21.8439 58.0537 21.8439C55.6823 21.8439 53.6621 20.2044 52.9005 17.9499V21.4927H48.7432V0.236816H52.9592H52.9597ZM59.6937 13.7925C59.6937 10.5718 58.0833 8.99102 56.1804 8.99102C54.4823 8.99102 52.9015 10.2502 52.9015 13.324V14.2315C52.9015 17.3058 54.4823 18.5645 56.1804 18.5645C58.0833 18.5645 59.6937 16.9837 59.6937 13.7921V13.7925Z" fill="white"/>
<path d="M69.385 0.236816V21.4927H65.1689V0.236816H69.385Z" fill="white"/>
<path d="M75.387 0.413086V4.04369H71.1709V0.413086H75.387ZM75.387 6.06392V21.4934H71.1709V6.06347H75.387V6.06392Z" fill="white"/>
</svg>
