<svg width="194" height="186" viewBox="0 0 194 186" fill="none" xmlns="http://www.w3.org/2000/svg">
<g id="Group">
<g id="Group_2">
<g id="Vector">
<path d="M51.5865 122.999C53.7311 101.261 55.8609 77.7565 55.4688 73.7258C54.7123 65.9398 41.925 71.4964 41.925 71.4964C41.925 71.4964 35.0928 102.672 30.3203 130.756" fill="white"/>
<path d="M51.5865 122.999C53.7311 101.261 55.8609 77.7565 55.4688 73.7258C54.7123 65.9398 41.925 71.4964 41.925 71.4964C41.925 71.4964 35.0928 102.672 30.3203 130.756" stroke="#080717" stroke-width="0.962117" stroke-linecap="round" stroke-linejoin="round"/>
</g>
<g id="Group_3">
<g id="Vector_2" filter="url(#filter0_f_77_15345)">
<path d="M12.7036 22.3792C17.7266 12.199 29.938 7.92438 40.1831 12.6604L40.6694 12.8928C49.3331 17.1675 53.9326 26.8257 51.7935 36.2454L50.9116 40.1292C49.8994 44.5851 48.6277 45.8724 47.6489 47.8215C47.1064 48.9019 46.7525 50.0598 46.8159 51.6467C46.8655 52.8864 47.1695 54.3337 47.7368 56.1594L33.311 61.052C32.6538 59.2623 32.0241 57.9315 31.3228 56.9192C30.4239 55.6219 29.4566 54.9109 28.3784 54.3743C26.4316 53.4054 24.6682 53.1564 21.1431 50.2268H21.1421L18.0815 47.6809H18.0806C10.6733 41.5252 8.43966 31.1032 12.6646 22.4563L12.7036 22.3792Z" stroke="#E9FF3F" stroke-width="3.96059"/>
</g>
<path id="Vector_3" d="M12.8285 23.3991C8.31041 32.554 10.6627 43.6141 18.5144 50.1391L21.4707 52.5974C28.7332 58.6329 34.1816 66.5608 37.2163 75.5017L37.4642 76.2328L54.9816 70.2906L54.7336 69.5595C51.701 60.6165 51.203 51.0101 53.2947 41.8022L54.1466 38.0533C56.4078 28.0973 51.5463 17.8892 42.3893 13.371C31.4584 7.97765 18.224 12.4661 12.8307 23.397L12.8285 23.3991Z" fill="#DFFF20"/>
<path id="Vector_4" d="M31.8403 66.0819L52.7939 58.9732L57.4202 72.6098C57.871 73.9383 57.1589 75.3816 55.8303 75.8323L39.6892 81.3084C38.3607 81.7591 36.9174 81.047 36.4667 79.7185L31.8403 66.0819Z" fill="#080717"/>
<path id="Vector_5" d="M40.5053 63.9479L34.5949 46.526C34.5949 46.526 31.6492 41.5585 28.2458 42.0905C23.5814 42.8195 26.3554 48.1598 32.304 47.7614C38.2526 47.363 45.0002 41.7472 44.6484 35.6735C44.464 32.482 40.1684 30.0937 37.9326 35.3895C36.9853 37.6338 37.3626 39.4372 38.8672 42.9742C40.3718 46.5111 45.5151 62.5747 45.5151 62.5747" stroke="#080717" stroke-width="0.962117" stroke-linecap="round" stroke-linejoin="round"/>
</g>
<g id="Group_4">
<path id="Vector_6" d="M44.0126 89.9888L41.0414 101.358C41.0414 101.358 30.189 98.97 28.3305 91.646C26.4719 84.322 25.8658 72.7003 31.8568 70.3502C37.8478 68 48.1301 69.8712 48.1301 69.8712C48.1301 69.8712 49.5882 72.1557 46.5238 73.9274C43.4594 75.699 42.3235 76.9832 42.3235 76.9832L50.9911 77.1062C50.9911 77.1062 51.7985 78.5599 51.0758 80.8995C50.3532 83.2391 50.2981 87.0685 44.0147 89.9888H44.0126Z" fill="white"/>
<path id="Vector_7" d="M42.6351 101.286C42.6351 101.286 29.994 99.3514 28.3326 91.646C26.6711 83.9406 25.8489 73.2026 31.8589 70.3501C37.869 67.4977 48.1323 69.8712 48.1323 69.8712C48.1323 69.8712 49.8679 73.8256 46.7039 74.6288C43.54 75.432 37.3095 74.5249 35.8579 76.303" stroke="#080717" stroke-width="0.962117" stroke-linecap="round" stroke-linejoin="round"/>
<path id="Vector_8" d="M31.4351 76.7605L51.0864 75.7539C51.0864 75.7539 52.8114 78.7992 50.5333 80.2063" stroke="#080717" stroke-width="0.962117" stroke-linecap="round" stroke-linejoin="round"/>
<path id="Vector_9" d="M31.541 82.3724L51.5251 80.3698C51.5251 80.3698 51.5886 84.0847 49.4292 84.7989C47.2676 85.5131 32.8761 87.9205 32.8761 87.9205" stroke="#080717" stroke-width="0.962117" stroke-linecap="round" stroke-linejoin="round"/>
<path id="Vector_10" d="M34.7705 92.5001C34.7705 92.5001 48.9479 90.9764 49.2446 84.9303" stroke="#080717" stroke-width="0.962117" stroke-linecap="round" stroke-linejoin="round"/>
</g>
</g>
<g id="Group_5">
<path id="Vector_11" d="M99.5041 29.1252C91.6821 28.9811 84.7078 32.8804 80.4419 38.9456C82.489 38.4285 84.6167 38.1593 86.8058 38.1996C101.659 38.473 113.453 52.1991 113.147 68.8581C113.131 69.7842 113.071 70.6954 112.982 71.5982C118.384 67.3641 121.925 60.7309 122.063 53.2057C122.302 40.1387 112.204 29.3583 99.5041 29.1252Z" fill="#080717"/>
<path id="Vector_12" d="M89.8955 37.9498C93.9262 33.491 110.706 25.4295 121.94 42.9299C127.528 51.6334 144.592 44.8923 150.312 44.1293C159.176 42.9468 165.797 59.0676 155.707 74.9955C152.808 79.5708 141.011 95.1999 136.895 94.4392C132.78 93.6784 95.3418 106.084 113.376 74.8789C118.03 66.8281 94.7972 63.3293 84.2796 51.0761C82.4932 48.995 84.4131 44.017 89.8976 37.9476L89.8955 37.9498Z" stroke="#080717" stroke-width="0.962117" stroke-linecap="round" stroke-linejoin="round"/>
<path id="Vector_13" d="M86.5406 31.7827C92.1395 27.6694 112.808 21.831 120.897 42.525C124.919 52.8158 145.575 48.4439 152.121 48.5859C162.268 48.8063 165.576 67.2412 150.365 82.6584C145.995 87.0875 128.959 101.896 124.578 100.388C120.196 98.8787 75.4784 105.91 103.356 75.4149C110.549 67.5463 85.6124 59.8791 77.0021 44.9451C75.5398 42.4084 78.9221 37.3817 86.5406 31.7849V31.7827Z" fill="#080717"/>
<path id="Vector_14" d="M162.205 100.514C173.621 98.4103 181.171 87.4507 179.067 76.0348C176.964 64.619 166.004 57.0697 154.588 59.1732C143.172 61.2766 135.623 72.2362 137.727 83.6521C139.83 95.068 150.79 102.617 162.205 100.514Z" fill="#080717"/>
<path id="Vector_15" d="M181.51 83.4928C183.922 72.138 176.672 60.9783 165.317 58.5668C153.962 56.1553 142.802 63.4053 140.391 74.7601C137.979 86.1149 145.229 97.2747 156.584 99.6862C167.939 102.098 179.099 94.8476 181.51 83.4928Z" stroke="#080717" stroke-width="0.962117" stroke-linecap="round" stroke-linejoin="round"/>
<path id="Vector_16" d="M160.09 117.834C170.356 107.567 170.356 90.9223 160.09 80.656C149.824 70.3896 133.179 70.3896 122.912 80.656C112.646 90.9223 112.646 107.567 122.912 117.834C133.179 128.1 149.824 128.1 160.09 117.834Z" fill="#080717"/>
</g>
<path id="Vector_17" d="M111.737 90.311C123.34 86.2957 136.2 89.4351 144.646 98.2964L145.044 98.7222L189.717 147.365H189.718C196.135 155.211 194.076 166.883 185.465 172.088L185.05 172.332C181.803 174.171 178.031 174.863 174.341 174.296L116.614 153.199L116.588 153.189L116.56 153.187L54.9893 149.097L68.9316 114.489C72.2761 106.184 79.59 100.13 88.374 98.397L88.3877 98.394L88.4004 98.3901L111.737 90.311Z" fill="#3579F6" stroke="black" stroke-width="0.396059"/>
<g id="Group_6">
<g id="Vector_18">
<path d="M108.987 86.7949L114.857 87.6299L119.39 94.3944L105.448 110.979L95.5579 100.222L83.7476 108.118L89.641 90.6709" fill="#080717"/>
<path d="M108.987 86.7949L114.857 87.6299L119.39 94.3944L105.448 110.979L95.5579 100.222L83.7476 108.118L89.641 90.6709" stroke="black" stroke-width="0.962117" stroke-linecap="round" stroke-linejoin="round"/>
</g>
<path id="Vector_19" d="M100.555 72.5256L84.8638 81.5011L95.5586 100.198L111.25 91.2225L100.555 72.5256Z" fill="white" stroke="black" stroke-width="0.962117" stroke-linecap="round" stroke-linejoin="round"/>
<path id="Vector_20" d="M100.555 72.5496L84.8623 81.5244L90.1836 90.8298C95.7571 90.1093 101.193 86.0637 105.669 81.4947L100.553 72.5496H100.555Z" fill="#080717"/>
<g id="Group_7">
<path id="Vector_21" d="M62.8802 49.7855C64.7959 55.6705 71.1217 58.8874 77.0068 56.9696C82.8918 55.0538 86.1087 48.728 84.1909 42.843C82.273 36.958 75.9493 33.741 70.0643 35.6589C64.1792 37.5746 60.9623 43.9005 62.8802 49.7855Z" fill="#080717"/>
<path id="Vector_22" d="M111.227 53.3986C108.51 42.3619 98.0076 34.7349 86.3817 35.9428L82.2832 36.3687C73.1876 37.3139 66.5799 45.4516 67.525 54.5472L69.5002 73.5692C70.4453 82.6648 78.583 89.2725 87.6786 88.3273L90.9316 87.9903C101.716 86.8693 110.083 78.7655 112.013 68.6357C114.065 68.6357 116.11 67.8219 117.614 66.1986C120.488 63.1025 120.308 58.2643 117.212 55.3928C115.531 53.8331 113.34 53.1804 111.225 53.3986H111.227Z" fill="white" stroke="#080717" stroke-width="0.962117" stroke-linecap="round" stroke-linejoin="round"/>
<path id="Vector_23" d="M81.1328 54.9604C81.1328 54.9604 85.2822 52.6462 88.7958 54.6298" stroke="#080717" stroke-width="0.962117" stroke-linecap="round" stroke-linejoin="round"/>
<path id="Vector_24" d="M72.7594 58.1139C72.7594 58.1139 68.9978 56.8254 65.8296 59.432" stroke="#080717" stroke-width="0.962117" stroke-linecap="round" stroke-linejoin="round"/>
<path id="Vector_25" d="M108.233 64.5668C108.233 64.5668 106.353 57.7324 111.785 56.5626" stroke="#080717" stroke-width="0.962117" stroke-linecap="round" stroke-linejoin="round"/>
<path id="Vector_26" d="M93.4217 47.4374C91.7666 42.3556 87.9753 38.4859 83.1372 36.2777L93.2437 35.2287C102.163 34.3026 110.146 40.7831 111.072 49.7029L111.454 53.3775C109.593 53.5132 107.777 54.3185 106.408 55.7934C103.838 58.5632 103.719 62.7253 105.94 65.6308C103.941 65.9105 102.074 64.55 101.74 62.5537L100.862 57.3532L99.4678 56.6093C97.3168 55.4586 95.6574 53.5662 94.7992 51.2817L93.6506 48.2194C93.5785 47.9588 93.5065 47.6981 93.4217 47.4396V47.4374Z" fill="#080717"/>
<path id="Vector_27" d="M74.0311 42.4001C75.2708 46.2061 79.3609 48.2872 83.1691 47.0475C86.9752 45.8077 89.0562 41.7156 87.8165 37.9095C86.5768 34.1034 82.4846 32.0223 78.6785 33.2621C74.8724 34.5018 72.7914 38.594 74.0311 42.4001Z" fill="#080717"/>
<path id="Vector_28" d="M82.8679 45.9474C84.1839 49.9866 88.524 52.1927 92.5632 50.8788C96.6024 49.5627 98.8085 45.2226 97.4946 41.1834C96.1786 37.1442 91.8385 34.9381 87.7993 36.252C83.7601 37.5681 81.554 41.9082 82.8679 45.9474Z" fill="#080717"/>
<path id="Vector_29" d="M74.9481 73.3478C77.8604 70.4355 77.8604 65.7137 74.9481 62.8014C72.0358 59.889 67.314 59.889 64.4016 62.8014C61.4893 65.7137 61.4893 70.4355 64.4016 73.3478C67.314 76.2601 72.0358 76.2601 74.9481 73.3478Z" stroke="url(#paint0_linear_77_15345)" stroke-width="0.962117" stroke-linecap="round" stroke-linejoin="round"/>
<path id="Vector_30" d="M92.6144 59.8916C95.0684 63.1997 94.3775 67.8704 91.0716 70.3245C87.7635 72.7785 83.0928 72.0876 80.6388 68.7817C78.1847 65.4736 78.8756 60.805 82.1815 58.3489C85.4875 55.8948 90.1582 56.5857 92.6144 59.8916Z" stroke="#587BE1" stroke-width="0.962117" stroke-linecap="round" stroke-linejoin="round"/>
<path id="Vector_31" d="M104.266 59.2073L93.3496 61.1124" stroke="#587BE1" stroke-width="0.962117" stroke-linecap="round" stroke-linejoin="round"/>
<path id="Vector_32" d="M76.2075 64.8234L78.8862 64.5352" stroke="#587BE1" stroke-width="0.962117" stroke-linecap="round" stroke-linejoin="round"/>
</g>
</g>
<g id="Group_8">
<g id="Group_9">
<path id="Vector_33" d="M93.7014 184.96L126.572 167.788C129.749 166.129 129.569 161.522 126.271 160.117L72.6578 137.272C71.7381 136.88 70.7081 136.825 69.7502 137.117L35.2136 147.686C31.5983 148.792 31.1236 153.717 34.4592 155.495L89.7364 184.941C90.974 185.6 92.4575 185.607 93.6993 184.958L93.7014 184.96Z" fill="#A4D0FF"/>
<path id="Vector_34" d="M125.051 164.383L93.2607 180.233" stroke="white" stroke-width="0.962117" stroke-linecap="round" stroke-linejoin="round"/>
</g>
<g id="Group_10">
<path id="Vector_35" d="M86.2992 172.496L66.0566 122.023C65.531 120.713 64.5074 119.668 63.2105 119.115L13.8055 98.0629C9.44423 96.2043 5.01935 100.559 6.80583 104.95L24.7004 148.907C25.1687 150.057 26.0249 151.007 27.1226 151.592L78.8756 179.16C83.2475 181.489 88.1429 177.094 86.2992 172.498V172.496Z" fill="#A4D0FF"/>
<path id="Vector_36" d="M63.1636 123.627L86.3815 179.235" stroke="white" stroke-width="0.962117" stroke-linecap="round" stroke-linejoin="round"/>
<path id="Vector_37" d="M37.4704 141.473C38.9581 144.276 41.7893 145.688 43.792 144.626C45.7946 143.562 46.2121 140.428 44.7244 137.624C43.2368 134.82 40.4055 133.409 38.4029 134.473C36.4002 135.537 35.9827 138.671 37.4704 141.475V141.473Z" fill="#A4D0FF" stroke="white" stroke-width="0.962117" stroke-linecap="round" stroke-linejoin="round"/>
</g>
</g>
<g id="Group_11">
<path id="Vector_38" d="M108.011 150.897C107.203 154.311 109.82 157.85 113.853 158.806C117.888 159.759 121.813 157.765 122.618 154.351C123.426 150.937 120.808 147.398 116.776 146.442C112.741 145.489 108.816 147.483 108.011 150.897Z" fill="white"/>
<g id="Vector_39">
<mask id="path-41-inside-1_77_15345" fill="white">
<path d="M112.261 155.542C109.659 157.797 108.849 160.149 108.807 160.278C108.616 160.855 108.254 161.331 107.794 161.666C107.099 162.173 106.183 162.355 105.306 162.075C103.85 161.611 103.034 160.073 103.484 158.613C103.543 158.422 104.639 155.001 108.159 151.74C103.329 155.519 101.778 160.187 101.761 160.24C101.572 160.827 101.208 161.31 100.743 161.647C100.053 162.149 99.1414 162.332 98.2662 162.056C96.8018 161.596 95.9838 160.049 96.4352 158.583C96.4627 158.492 96.6831 157.818 97.1515 156.803C96.45 157.737 96.1088 158.375 96.0982 158.394C95.8927 158.793 95.6023 159.121 95.2632 159.369C94.4389 159.969 93.3178 160.098 92.3515 159.604C90.9846 158.907 90.4357 157.244 91.1244 155.875C91.2113 155.703 92.4299 153.338 95.1128 150.668C93.4577 151.543 92.4998 152.223 92.4723 152.24C91.2262 153.139 89.4842 152.861 88.5814 151.617C87.6786 150.373 87.952 148.633 89.1939 147.728C89.5393 147.476 97.7936 141.553 109.03 141.188C109.03 141.188 119.795 139.928 126.852 140.953C133.909 141.979 149.405 143.71 149.405 143.71L149.951 144.403C154.798 150.549 154.775 159.223 149.896 165.343L120.592 157.595"/>
</mask>
<path d="M112.261 155.542C109.659 157.797 108.849 160.149 108.807 160.278C108.616 160.855 108.254 161.331 107.794 161.666C107.099 162.173 106.183 162.355 105.306 162.075C103.85 161.611 103.034 160.073 103.484 158.613C103.543 158.422 104.639 155.001 108.159 151.74C103.329 155.519 101.778 160.187 101.761 160.24C101.572 160.827 101.208 161.31 100.743 161.647C100.053 162.149 99.1414 162.332 98.2662 162.056C96.8018 161.596 95.9838 160.049 96.4352 158.583C96.4627 158.492 96.6831 157.818 97.1515 156.803C96.45 157.737 96.1088 158.375 96.0982 158.394C95.8927 158.793 95.6023 159.121 95.2632 159.369C94.4389 159.969 93.3178 160.098 92.3515 159.604C90.9846 158.907 90.4357 157.244 91.1244 155.875C91.2113 155.703 92.4299 153.338 95.1128 150.668C93.4577 151.543 92.4998 152.223 92.4723 152.24C91.2262 153.139 89.4842 152.861 88.5814 151.617C87.6786 150.373 87.952 148.633 89.1939 147.728C89.5393 147.476 97.7936 141.553 109.03 141.188C109.03 141.188 119.795 139.928 126.852 140.953C133.909 141.979 149.405 143.71 149.405 143.71L149.951 144.403C154.798 150.549 154.775 159.223 149.896 165.343L120.592 157.595" fill="white"/>
<path d="M108.807 160.278L109.183 160.403L109.183 160.402L108.807 160.278ZM107.794 161.666L107.561 161.346L107.561 161.346L107.794 161.666ZM105.306 162.075L105.426 161.698L105.426 161.698L105.306 162.075ZM103.484 158.613L103.105 158.495L103.105 158.496L103.484 158.613ZM108.159 151.74L108.428 152.03L107.915 151.428L108.159 151.74ZM101.761 160.24L102.138 160.361L102.138 160.361L101.761 160.24ZM100.743 161.647L100.511 161.327L100.511 161.327L100.743 161.647ZM98.2662 162.056L98.3851 161.678L98.3848 161.678L98.2662 162.056ZM96.4352 158.583L96.8137 158.699L96.8143 158.697L96.4352 158.583ZM97.1515 156.803L97.5111 156.969L96.8347 156.565L97.1515 156.803ZM96.0982 158.394L95.7518 158.202L95.7463 158.213L96.0982 158.394ZM95.2632 159.369L95.4962 159.689L95.497 159.689L95.2632 159.369ZM92.3515 159.604L92.5317 159.252L92.5314 159.252L92.3515 159.604ZM91.1244 155.875L90.7711 155.696L90.7706 155.697L91.1244 155.875ZM95.1128 150.668L95.3922 150.948L94.9276 150.318L95.1128 150.668ZM92.4723 152.24L92.2647 151.903L92.2524 151.91L92.2406 151.919L92.4723 152.24ZM89.1939 147.728L89.4271 148.048L89.4274 148.048L89.1939 147.728ZM109.03 141.188L109.042 141.584L109.059 141.584L109.076 141.582L109.03 141.188ZM149.405 143.71L149.716 143.465L149.613 143.335L149.449 143.317L149.405 143.71ZM149.951 144.403L150.262 144.158L150.262 144.158L149.951 144.403ZM149.896 165.343L149.795 165.726L150.045 165.792L150.206 165.59L149.896 165.343ZM112.002 155.242C109.328 157.559 108.487 159.983 108.431 160.155L109.183 160.402C109.212 160.315 109.99 158.034 112.521 155.841L112.002 155.242ZM108.431 160.154C108.267 160.649 107.956 161.058 107.561 161.346L108.027 161.986C108.552 161.605 108.965 161.06 109.183 160.403L108.431 160.154ZM107.561 161.346C106.962 161.782 106.177 161.937 105.426 161.698L105.186 162.453C106.19 162.773 107.236 162.563 108.027 161.986L107.561 161.346ZM105.426 161.698C104.175 161.299 103.478 159.979 103.862 158.729L103.105 158.496C102.591 160.166 103.526 161.923 105.186 162.453L105.426 161.698ZM103.862 158.73C103.91 158.576 104.977 155.228 108.428 152.03L107.889 151.449C104.3 154.775 103.176 158.268 103.105 158.495L103.862 158.73ZM107.915 151.428C102.997 155.275 101.413 160.029 101.384 160.119L102.138 160.361C102.138 160.362 102.233 160.073 102.451 159.581C102.668 159.09 103.007 158.399 103.494 157.592C104.469 155.977 106.034 153.905 108.403 152.052L107.915 151.428ZM101.384 160.119C101.222 160.624 100.909 161.038 100.511 161.327L100.976 161.968C101.506 161.583 101.923 161.031 102.138 160.361L101.384 160.119ZM100.511 161.327C99.916 161.759 99.1345 161.914 98.3851 161.678L98.1472 162.434C99.1483 162.749 100.189 162.54 100.976 161.968L100.511 161.327ZM98.3848 161.678C97.1272 161.283 96.4267 159.957 96.8137 158.699L96.0566 158.466C95.5408 160.142 96.4764 161.909 98.1475 162.434L98.3848 161.678ZM96.8143 158.697C96.8363 158.625 97.05 157.968 97.5111 156.969L96.7918 156.637C96.3162 157.668 96.0892 158.359 96.0561 158.468L96.8143 158.697ZM96.8347 156.565C96.4766 157.042 96.2096 157.445 96.03 157.732C95.9402 157.875 95.8722 157.99 95.8255 158.071C95.8022 158.112 95.7842 158.144 95.7715 158.166C95.7652 158.178 95.7602 158.187 95.7566 158.194C95.7516 158.203 95.7519 158.202 95.752 158.202L96.4444 158.587C96.451 158.575 96.7822 157.954 97.4682 157.04L96.8347 156.565ZM95.7463 158.213C95.5699 158.554 95.3209 158.836 95.0295 159.049L95.497 159.689C95.8837 159.406 96.2154 159.031 96.4502 158.576L95.7463 158.213ZM95.0302 159.049C94.3205 159.565 93.3587 159.674 92.5317 159.252L92.1713 159.957C93.2769 160.522 94.5572 160.373 95.4962 159.689L95.0302 159.049ZM92.5314 159.252C91.3576 158.653 90.888 157.226 91.4783 156.053L90.7706 155.697C89.9834 157.261 90.6116 159.161 92.1715 159.957L92.5314 159.252ZM91.4778 156.053C91.5524 155.906 92.7482 153.58 95.3922 150.948L94.8334 150.387C92.1116 153.096 90.8703 155.5 90.7711 155.696L91.4778 156.053ZM94.9276 150.318C94.0906 150.76 93.429 151.154 92.972 151.44C92.7435 151.583 92.5662 151.699 92.4438 151.781C92.3825 151.822 92.3351 151.854 92.3021 151.877C92.2585 151.907 92.2573 151.907 92.2647 151.903L92.6799 152.577C92.7294 152.547 93.6577 151.885 95.2979 151.018L94.9276 150.318ZM92.2406 151.919C91.1712 152.69 89.6763 152.451 88.9019 151.384L88.2609 151.85C89.2921 153.271 91.2812 153.587 92.7039 152.561L92.2406 151.919ZM88.9019 151.384C88.1272 150.317 88.3621 148.824 89.4271 148.048L88.9606 147.408C87.5419 148.442 87.23 150.429 88.2609 151.85L88.9019 151.384ZM89.4274 148.048C89.7523 147.811 97.9268 141.945 109.042 141.584L109.017 140.793C97.6604 141.161 89.3263 147.141 88.9603 147.408L89.4274 148.048ZM109.03 141.188C109.076 141.582 109.076 141.582 109.076 141.582C109.076 141.582 109.076 141.582 109.076 141.582C109.076 141.582 109.077 141.582 109.077 141.582C109.079 141.581 109.08 141.581 109.083 141.581C109.088 141.58 109.096 141.58 109.106 141.578C109.126 141.576 109.156 141.573 109.196 141.568C109.276 141.559 109.394 141.546 109.547 141.53C109.854 141.498 110.3 141.453 110.858 141.402C111.974 141.3 113.535 141.175 115.315 141.082C118.883 140.895 123.307 140.838 126.795 141.345L126.909 140.561C123.34 140.043 118.853 140.103 115.274 140.291C113.481 140.385 111.909 140.511 110.786 140.613C110.224 140.664 109.774 140.71 109.464 140.742C109.31 140.759 109.19 140.772 109.108 140.781C109.068 140.785 109.037 140.789 109.016 140.791C109.005 140.793 108.997 140.793 108.992 140.794C108.989 140.794 108.987 140.795 108.986 140.795C108.985 140.795 108.984 140.795 108.984 140.795C108.984 140.795 108.984 140.795 108.984 140.795C108.984 140.795 108.983 140.795 109.03 141.188ZM126.795 141.345C130.33 141.859 135.973 142.549 140.728 143.11C143.107 143.39 145.265 143.639 146.828 143.817C147.61 143.906 148.243 143.978 148.681 144.027C148.899 144.052 149.069 144.071 149.185 144.084C149.242 144.091 149.286 144.096 149.316 144.099C149.331 144.101 149.342 144.102 149.349 144.103C149.353 144.103 149.356 144.103 149.358 144.104C149.359 144.104 149.359 144.104 149.36 144.104C149.36 144.104 149.36 144.104 149.36 144.104C149.361 144.104 149.361 144.104 149.405 143.71C149.449 143.317 149.449 143.317 149.448 143.317C149.448 143.317 149.448 143.317 149.448 143.317C149.447 143.317 149.447 143.316 149.446 143.316C149.444 143.316 149.441 143.316 149.437 143.315C149.43 143.315 149.419 143.313 149.404 143.312C149.374 143.308 149.331 143.303 149.273 143.297C149.158 143.284 148.988 143.265 148.769 143.24C148.332 143.191 147.699 143.119 146.918 143.03C145.355 142.852 143.198 142.604 140.821 142.323C136.065 141.762 130.431 141.073 126.909 140.561L126.795 141.345ZM149.094 143.956L149.64 144.649L150.262 144.158L149.716 143.465L149.094 143.956ZM149.64 144.649C154.373 150.65 154.35 159.12 149.587 165.096L150.206 165.59C155.199 159.326 155.223 150.448 150.262 144.158L149.64 144.649ZM149.997 164.96L120.693 157.212L120.491 157.978L149.795 165.726L149.997 164.96Z" fill="black" mask="url(#path-41-inside-1_77_15345)"/>
</g>
<g id="Vector_40">
<path d="M102.458 144.671C102.458 144.671 97.5264 147.546 95.1147 150.666L102.458 144.671Z" fill="white"/>
<path d="M102.458 144.671C102.458 144.671 97.5264 147.546 95.1147 150.666" stroke="black" stroke-width="0.962117" stroke-linecap="round" stroke-linejoin="round"/>
</g>
<path id="Vector_41" d="M104.361 147.873C104.361 147.873 99.2746 151.763 97.1533 156.803" stroke="black" stroke-width="0.962117" stroke-linecap="round" stroke-linejoin="round"/>
</g>
<path id="Vector_42" d="M167.691 146.22L149.405 143.708" stroke="black" stroke-width="0.962117" stroke-linecap="round" stroke-linejoin="round"/>
<path id="Vector_43" d="M9.84676 57.9255L11.5209 60.9857L14.5811 62.6598L11.5209 64.334L9.84676 67.3941L8.1726 64.334L5.11035 62.6598L8.1726 60.9857L9.84676 57.9255Z" stroke="#DFFF20" stroke-width="0.962117"/>
<path id="Vector_44" d="M55.5172 1.61938L57.1913 4.67951L60.2515 6.35368L57.1913 8.02784L55.5172 11.088L53.843 8.02784L50.7808 6.35368L53.843 4.67951L55.5172 1.61938Z" stroke="#DFFF20" stroke-width="0.962117"/>
<path id="Vector_45" d="M94.5153 102.371C90.7982 116.464 89.0011 130.993 89.1706 145.567L89.1961 147.729" stroke="#080717" stroke-width="0.962117"/>
</g>
<defs>
<filter id="filter0_f_77_15345" x="0.801201" y="0.989433" width="61.2565" height="70.3323" filterUnits="userSpaceOnUse" color-interpolation-filters="sRGB">
<feFlood flood-opacity="0" result="BackgroundImageFix"/>
<feBlend mode="normal" in="SourceGraphic" in2="BackgroundImageFix" result="shape"/>
<feGaussianBlur stdDeviation="3.88138" result="effect1_foregroundBlur_77_15345"/>
</filter>
<linearGradient id="paint0_linear_77_15345" x1="77.841" y1="68.8299" x2="63.7439" y2="62.7999" gradientUnits="userSpaceOnUse">
<stop offset="0.711384" stop-color="#587BE1"/>
<stop offset="1" stop-color="#DFFF20" stop-opacity="0.28"/>
</linearGradient>
</defs>
</svg>
