<svg width="235" height="180" viewBox="0 0 235 180" fill="none" xmlns="http://www.w3.org/2000/svg">
<g id="Group">
<path id="Vector" d="M218.086 154.841C227.063 141.086 207.978 112.73 175.458 91.5066C142.938 70.2828 109.298 64.2282 100.321 77.9833C91.3438 91.7384 110.429 120.094 142.949 141.318C175.469 162.542 209.109 168.596 218.086 154.841Z" fill="#3579F6"/>
<path id="Vector_2" d="M84.415 133.605C121.727 122.843 148.284 101.324 143.731 85.5423C139.179 69.7605 105.242 65.6914 67.9299 76.4538C30.6182 87.2163 4.0614 108.735 8.61361 124.517C13.1658 140.298 47.1032 144.367 84.415 133.605Z" fill="#3579F6"/>
<path id="Vector_3" d="M161.807 120.787C165.085 104.692 146.723 87.364 120.796 82.0843C94.8685 76.8046 71.1933 85.5721 67.9159 101.667C64.6384 117.762 82.9997 135.09 108.927 140.369C134.854 145.649 158.53 136.881 161.807 120.787Z" fill="#3579F6"/>
<g id="Group_2">
<path id="Vector_4" d="M125.332 72.8286L126.599 56.4644L153.842 58.5736L152.221 79.4976C154.654 80.4104 157.032 81.3936 159.357 82.4365C153.539 95.2498 142.564 102.955 132.85 100.178C123.397 97.4784 118.174 85.7208 119.584 72.2336C121.487 72.3743 123.406 72.5833 125.33 72.8265L125.332 72.8286Z" fill="white" stroke="#080717" stroke-width="1.05356" stroke-linecap="round" stroke-linejoin="round"/>
<path id="Vector_5" d="M125.129 75.4582L126.6 56.4644L143.905 57.8037L148.928 64.7265C144.059 71.6663 135.652 75.663 125.129 75.4561V75.4582Z" fill="#080717"/>
<path id="Vector_6" d="M129.938 59.3879C115.406 54.1329 107.884 38.0929 113.137 23.5606L113.644 22.1594C118.899 7.62715 134.939 0.105094 149.472 5.35795C164.004 10.6129 171.526 26.653 166.273 41.1853L165.766 42.5865C160.511 57.1187 144.47 64.6408 129.938 59.3879Z" fill="#080717"/>
<path id="Vector_7" d="M139.26 53.7517C127.131 49.3668 120.855 35.9798 125.239 23.8511L126.862 19.3597C131.247 7.23095 144.634 0.954398 156.763 5.33924C168.892 9.72409 175.168 23.1111 170.783 35.2398L169.16 39.7313C164.775 51.86 151.388 58.1365 139.26 53.7517Z" fill="#080717"/>
<path id="Vector_8" d="M152.152 5.15991C162.771 6.53337 176.391 14.7358 173.882 32.8019" stroke="#080717" stroke-width="1.05356" stroke-linecap="round" stroke-linejoin="round"/>
<path id="Vector_9" d="M117.325 28.1206L120.407 29.3L120.462 29.1443C124.892 16.894 138.413 10.5535 150.664 14.981L151.913 15.4331C160.214 18.4338 165.795 25.6083 167.158 33.7339L168.74 33.8256C171.954 34.0111 174.407 36.7687 174.221 39.9806C174.036 43.1946 171.278 45.6472 168.066 45.4616L166.173 45.3507C166.141 45.4446 166.113 45.5405 166.079 45.6344L163.008 54.1289C158.578 66.3792 145.057 72.7198 132.806 68.2923L131.557 67.8401C120.196 63.7325 113.923 51.8043 116.604 40.3218L113.162 39.0059C110.157 37.8564 108.651 34.4867 109.801 31.4817C110.95 28.4768 114.32 26.9711 117.325 28.1206Z" fill="white" stroke="#080717" stroke-width="1.05356" stroke-linecap="round" stroke-linejoin="round"/>
<path id="Vector_10" d="M119.37 28.6539L119.357 28.6923C124.246 27.4574 130.488 19.2508 134.47 8.24176L134.483 8.20337C129.597 9.43821 123.352 17.6449 119.37 28.6539Z" fill="#080717"/>
<path id="Vector_11" d="M170.818 37.4854C170.818 37.4854 167.642 38.1081 167.032 41.4287" stroke="#080717" stroke-width="1.05356" stroke-linecap="round" stroke-linejoin="round"/>
<path id="Vector_12" d="M115.254 30.9761C115.254 30.9761 117.894 32.8486 117.086 36.1266" stroke="#080717" stroke-width="1.05356" stroke-linecap="round" stroke-linejoin="round"/>
<path id="Vector_13" d="M160.335 13.2106C164.268 16.3329 167.456 19.7303 169.583 22.8611C169.186 23.6417 168.715 24.3882 168.158 25.0898C165.516 28.419 161.502 30.1784 157.049 30.3747C154.848 29.1398 152.568 27.6128 150.32 25.8277C141.246 18.6235 136.133 9.9604 138.9 6.47556C141.666 2.99071 151.263 6.00849 160.338 13.2106H160.335Z" fill="#080717"/>
<path id="Vector_14" d="M123.92 13.7036C119.75 16.5017 117.494 20.4408 117.104 24.2051C117.822 24.7041 118.592 25.1392 119.413 25.4932C123.318 27.1738 127.686 26.8198 131.7 24.8833C131.578 21.9359 134.941 17.4017 139.879 14.8745C150.192 9.59817 136.443 5.2965 123.918 13.7036H123.92Z" fill="#080717"/>
<path id="Vector_15" d="M143.534 6.11318C144.613 2.42573 149.555 1.98853 149.555 1.98853" stroke="#080717" stroke-width="1.05356" stroke-linecap="round" stroke-linejoin="round"/>
<path id="Vector_16" d="M142.5 1.25293C142.5 1.25293 144.309 1.98018 143.888 4.23445" stroke="#080717" stroke-width="1.05356" stroke-linecap="round" stroke-linejoin="round"/>
<path id="Vector_17" d="M139.996 14.3843C141.278 19.5177 144.571 24.5296 150.886 28.5454" stroke="#080717" stroke-width="1.05356" stroke-linecap="round" stroke-linejoin="round"/>
<path id="Vector_18" d="M169.28 27.8967L164.535 42.8982L161.905 42.6743L162.069 23.4735L169.28 27.8967Z" fill="#080717"/>
</g>
<g id="Group_3">
<path id="Vector_19" d="M42.0724 129.546C38.2228 130.456 31.5283 123.813 27.1178 114.711C22.7074 105.606 22.2531 97.4889 26.1027 96.5782C29.9522 95.6676 36.6468 102.311 41.0572 111.413C45.4676 120.518 45.9219 128.635 42.0724 129.546Z" fill="#1D1D1B"/>
<path id="Vector_20" d="M68.484 71.7323C68.1065 70.8366 68.1726 69.8172 68.6631 68.979L74.4385 60.3501L76.2619 55.946L53.4676 51.1752L38.7881 86.5632C33.8083 90.7582 25.9429 97.5722 25.9429 97.5722C24.1407 104.764 35.7896 114.992 37.1268 112.879L50.8465 99.4063L74.1761 88.3973L82.8264 66.1148L73.1247 73.0439C71.5145 74.1935 69.2517 73.5537 68.484 71.7302V71.7323Z" fill="white" stroke="black" stroke-width="1.05356" stroke-linecap="round" stroke-linejoin="round"/>
<path id="Vector_21" d="M76.7654 122.979C73.5855 123.024 71.0092 120.407 71.1031 117.227L73.0417 52.1624C73.0374 49.1638 75.554 46.7751 78.5483 46.9372L106.926 48.4685C109.878 48.6285 112.111 51.2026 111.848 54.1479L108.468 117.319C108.31 120.253 105.909 122.563 102.97 122.606L76.7633 122.977L76.7654 122.979Z" fill="#1D1D1B"/>
<path id="Vector_22" d="M134.189 134.24C136.831 136.091 143.521 131.126 149.133 123.15C154.742 115.171 157.147 107.203 154.503 105.352C151.86 103.501 145.17 108.466 139.559 116.444C133.95 124.423 131.544 132.391 134.189 134.242V134.24Z" fill="#1D1D1B"/>
<path id="Vector_23" d="M150.022 100.281L123.574 71.9688L98.6429 69.1729C98.0543 72.3101 100.019 75.362 103.119 76.1255L117.342 78.6101L120.663 83.1527L96.8962 79.1326L76.9746 77.9084C76.7742 81.116 78.9644 83.9845 82.1123 84.635L86.7616 85.5968L79.5488 85.3857C78.5934 85.358 77.7808 86.0767 77.6891 87.0279C77.527 88.7383 78.5912 90.3293 80.2334 90.8348L87.636 93.1125C89.1822 96.5376 92.1979 99.0798 95.8363 100.027L102.84 101.85L113.762 108.148C120.808 112.211 128.787 114.376 136.919 114.433L139.889 121.949C144.995 121.949 149.574 118.803 151.404 114.036L154.307 106.482L150.024 100.278L150.022 100.281Z" fill="white" stroke="#080717" stroke-width="1.05356" stroke-linecap="round" stroke-linejoin="round"/>
<path id="Vector_24" d="M116.642 90.8432L97.2451 86.4754L84.6621 85.4261" stroke="#1D1D1B" stroke-width="1.05356" stroke-miterlimit="10"/>
<path id="Vector_25" d="M114.721 98.1841L98.8177 93.6393L87.6338 93.1168" stroke="#1D1D1B" stroke-width="1.05356" stroke-miterlimit="10"/>
<path id="Vector_26" d="M56.3506 65.2128L58.3319 60.9026L76.7968 63.2336" stroke="#1D1D1B" stroke-width="1.05356" stroke-miterlimit="10"/>
<path id="Vector_27" d="M51.808 75.2319L53.207 71.6212L60.3815 71.8644C63.6146 71.5466 66.5002 69.7039 68.1488 66.9037L47.9648 64.2826" stroke="#1D1D1B" stroke-width="1.05356" stroke-miterlimit="10"/>
<path id="Vector_28" d="M63.9538 61.6594L62.3799 65.8545" stroke="#1D1D1B" stroke-width="1.05356" stroke-miterlimit="10"/>
<path id="Vector_29" d="M49.8848 95.5631C52.2905 92.9676 53.9497 89.8304 54.7623 86.4757C55.7369 82.4555 54.6748 78.2114 51.9684 75.0828" stroke="#1D1D1B" stroke-width="1.05356" stroke-miterlimit="10"/>
</g>
<path id="Vector_30" d="M203.194 133.295L154.304 106.485" stroke="#080717" stroke-width="1.05356" stroke-linecap="round" stroke-linejoin="round"/>
</g>
</svg>
