<svg width="15" height="15" viewBox="0 0 15 15" fill="none" xmlns="http://www.w3.org/2000/svg">
<g clip-path="url(#clip0_796_39675)">
<path d="M4.87524 4.74375L1.10175 5.29085L1.03491 5.30445C0.933739 5.33131 0.841505 5.38454 0.76763 5.4587C0.693756 5.53287 0.640888 5.62531 0.614426 5.72659C0.587963 5.82787 0.588854 5.93435 0.617008 6.03518C0.645161 6.136 0.699568 6.22754 0.774673 6.30046L3.50838 8.96142L2.8637 12.7201L2.85601 12.7852C2.84981 12.8898 2.87154 12.9942 2.91897 13.0877C2.96639 13.1812 3.03781 13.2604 3.12591 13.3172C3.21401 13.374 3.31562 13.4064 3.42034 13.411C3.52507 13.4156 3.62914 13.3923 3.7219 13.3435L7.09675 11.5692L10.4639 13.3435L10.5231 13.3707C10.6207 13.4092 10.7268 13.421 10.8305 13.4049C10.9342 13.3888 11.0317 13.3454 11.1131 13.2792C11.1945 13.213 11.2568 13.1263 11.2936 13.0281C11.3305 12.9298 11.3405 12.8235 11.3227 12.7201L10.6774 8.96142L13.4123 6.29987L13.4584 6.2496C13.5243 6.16843 13.5676 6.07124 13.5837 5.96794C13.5998 5.86464 13.5882 5.75891 13.5502 5.66153C13.5121 5.56415 13.4489 5.47859 13.3671 5.41358C13.2852 5.34857 13.1875 5.30642 13.0841 5.29144L9.31057 4.74375L7.62373 1.32513C7.57492 1.22608 7.49936 1.14268 7.4056 1.08435C7.31184 1.02603 7.20362 0.995117 7.0932 0.995117C6.98278 0.995117 6.87456 1.02603 6.7808 1.08435C6.68704 1.14268 6.61147 1.22608 6.56266 1.32513L4.87524 4.74375Z" fill="#FFA800"/>
</g>
<defs>
<clipPath id="clip0_796_39675">
<rect width="14.1949" height="14.1949" fill="white" transform="translate(0 0.402344)"/>
</clipPath>
</defs>
</svg>
