<svg width="19" height="18" viewBox="0 0 19 18" fill="none" xmlns="http://www.w3.org/2000/svg">
<g id="tabler:star-filled">
<path id="Vector" d="M6.6822 5.50494L1.8972 6.19869L1.81245 6.21594C1.68415 6.25 1.56719 6.3175 1.47352 6.41154C1.37984 6.50559 1.3128 6.62281 1.27924 6.75124C1.24569 6.87966 1.24682 7.0147 1.28252 7.14255C1.31822 7.2704 1.38721 7.38648 1.48245 7.47894L4.94895 10.8532L4.13145 15.6194L4.1217 15.7019C4.11384 15.8346 4.1414 15.967 4.20153 16.0856C4.26167 16.2041 4.35223 16.3045 4.46395 16.3766C4.57566 16.4486 4.70451 16.4897 4.83731 16.4955C4.9701 16.5014 5.10207 16.4718 5.2197 16.4099L9.4992 14.1599L13.7689 16.4099L13.8439 16.4444C13.9677 16.4932 14.1023 16.5082 14.2338 16.4878C14.3652 16.4674 14.4889 16.4124 14.5921 16.3284C14.6953 16.2444 14.7744 16.1345 14.8211 16.0099C14.8678 15.8853 14.8805 15.7506 14.8579 15.6194L14.0397 10.8532L17.5077 7.47819L17.5662 7.41444C17.6498 7.31152 17.7046 7.18828 17.725 7.05729C17.7454 6.92629 17.7308 6.79223 17.6825 6.66874C17.6343 6.54525 17.5541 6.43677 17.4503 6.35433C17.3465 6.27189 17.2227 6.21844 17.0914 6.19944L12.3064 5.50494L10.1674 1.16994C10.1056 1.04434 10.0097 0.938578 9.89084 0.86462C9.77194 0.790662 9.63472 0.751465 9.4947 0.751465C9.35468 0.751465 9.21745 0.790662 9.09855 0.86462C8.97966 0.938578 8.88384 1.04434 8.82195 1.16994L6.6822 5.50494Z" fill="#FFA800"/>
</g>
</svg>
