<svg width="24" height="25" viewBox="0 0 24 25" fill="none" xmlns="http://www.w3.org/2000/svg">
<path d="M15.1422 8.74304H8.85861C8.66583 8.74304 8.50952 8.58674 8.50952 8.39395V6.99759C8.50943 6.88082 8.56773 6.77177 8.66487 6.70697L11.8067 4.61242C11.924 4.53414 12.0769 4.53414 12.1942 4.61242L15.336 6.70697C15.4331 6.77177 15.4914 6.88082 15.4913 6.99759V8.39395C15.4913 8.58674 15.335 8.74304 15.1422 8.74304ZM9.2077 8.04486H14.7932V7.18435L12.0004 5.32239L9.2077 7.18435V8.04486Z" fill="#3579F6"/>
<path d="M11.3021 11.5358H9.90573C9.71295 11.5358 9.55664 11.3795 9.55664 11.1867V8.39401C9.55664 8.20123 9.71295 8.04492 9.90573 8.04492H11.3021C11.4949 8.04492 11.6512 8.20123 11.6512 8.39401V11.1867C11.6512 11.3795 11.4949 11.5358 11.3021 11.5358ZM10.2548 10.8376H10.953V8.7431H10.2548V10.8376Z" fill="#3579F6"/>
<path d="M14.0948 11.5358H12.6985C12.5057 11.5358 12.3494 11.3795 12.3494 11.1867V8.39401C12.3494 8.20123 12.5057 8.04492 12.6985 8.04492H14.0948C14.2876 8.04492 14.4439 8.20123 14.4439 8.39401V11.1867C14.4439 11.3795 14.2876 11.5358 14.0948 11.5358ZM13.0475 10.8376H13.7457V8.7431H13.0475V10.8376Z" fill="#3579F6"/>
<path d="M15.1422 12.9322H8.85861C8.66583 12.9322 8.50952 12.7759 8.50952 12.5831V11.1867C8.50952 10.994 8.66583 10.8376 8.85861 10.8376H15.1422C15.335 10.8376 15.4913 10.994 15.4913 11.1867V12.5831C15.4913 12.7759 15.335 12.9322 15.1422 12.9322ZM9.2077 12.234H14.7932V11.5358H9.2077V12.234Z" fill="#3579F6"/>
<path d="M12.0005 15.0266C8.72774 15.0266 6.06592 12.3647 6.06592 9.09202C6.06592 5.81929 8.72774 3.15747 12.0005 3.15747C15.2732 3.15747 17.935 5.81929 17.935 9.09202C17.935 12.3647 15.2732 15.0266 12.0005 15.0266ZM12.0005 3.85565C9.10851 3.85565 6.7641 6.20006 6.7641 9.09202C6.7641 11.984 9.10851 14.3284 12.0005 14.3284C14.8924 14.3284 17.2368 11.984 17.2368 9.09202C17.2337 6.20137 14.8911 3.85879 12.0005 3.85565Z" fill="#3579F6"/>
<path d="M12.3058 22.0085C12.2059 22.009 12.1106 21.9668 12.0439 21.8924C11.7302 21.5407 4.32031 13.2271 4.32031 9.09211C4.32031 4.85938 7.76759 1.41211 12.0003 1.41211C16.233 1.41211 19.6803 4.85938 19.6803 9.09211C19.6803 13.2188 12.8652 21.5285 12.575 21.8815C12.5104 21.9599 12.4148 22.0063 12.3132 22.0085H12.3058ZM12.0003 2.11029C8.15071 2.11029 5.01849 5.24251 5.01849 9.09211C5.01849 12.5394 10.9443 19.5618 12.2944 21.1174C13.5538 19.5395 18.9821 12.5394 18.9821 9.09211C18.9821 5.24251 15.8499 2.11029 12.0003 2.11029Z" fill="#3579F6"/>
<path d="M12.3055 23.7539C10.961 23.7539 9.69207 23.565 8.73207 23.2225C7.35753 22.7315 7.06909 22.1014 7.06909 21.6594C7.06909 21.2924 7.27375 20.7579 8.24946 20.2949C8.91404 19.9798 9.81207 19.7538 10.8467 19.6403C11.0376 19.6139 11.2139 19.7472 11.2404 19.9382C11.2669 20.1291 11.1336 20.3054 10.9426 20.3319C10.9357 20.3329 10.9287 20.3336 10.9217 20.3342C9.97785 20.4367 9.13479 20.6462 8.54832 20.9241C8.0592 21.158 7.76727 21.4321 7.76727 21.6594C7.76727 22.2289 9.53498 23.0558 12.3055 23.0558C15.0759 23.0558 16.8436 22.2289 16.8436 21.6594C16.8436 21.1737 15.5987 20.5249 13.5871 20.3254C13.3952 20.3058 13.2556 20.1344 13.2753 19.9425C13.2949 19.7507 13.4664 19.6111 13.6582 19.6307C15.4473 19.8092 17.5418 20.4476 17.5418 21.6594C17.5418 22.1014 17.2534 22.7315 15.8788 23.2225C14.9188 23.565 13.6499 23.7539 12.3055 23.7539Z" fill="#3579F6"/>
</svg>
