<svg width="258" height="174" viewBox="0 0 258 174" fill="none" xmlns="http://www.w3.org/2000/svg">
<g clip-path="url(#clip0_829_16244)">
<path d="M39.0038 48.1197C14.6492 36.7559 26.8922 26.6407 35.8243 36.2127C18.498 17.0572 34.3273 19.1284 36.9623 22.8884C25.3269 6.32548 37.566 7.91652 39.4531 10.5142C38.8832 7.74609 39.0772 4.87513 40.0143 2.20888C40.2079 1.72747 40.5584 1.32554 41.0089 1.06824C41.4595 0.810932 41.9838 0.713335 42.4968 0.791258C43.0098 0.869182 43.4814 1.11806 43.8352 1.49756C44.1891 1.87706 44.4044 2.36493 44.4463 2.88211C44.6638 5.58532 44.6342 6.54946 44.8479 9.8255C53.9358 -1.74038 54.3117 10.5978 49.4356 17.0495C57.5517 13.7387 53.4029 23.0777 50.7229 25.9443C59.5379 20.0964 55.4226 32.4629 52.7657 35.9333C64.75 29.0067 62.9736 36.1187 60.8676 38.8219C58.8364 41.5251 51.2841 46.9766 49.4356 48.1197H39.0038Z" fill="#3579F6"/>
<path d="M108.5 39.4079C107.019 32.0462 99.9574 35.2887 96.8951 39.1646C96.9504 28.0223 97.4241 16.2311 95.0002 13.4121C88.3503 7.80483 76.0533 15.4794 77.9584 24.0884C61.1071 19.9525 68.0904 42.2386 69.7368 48.0016H107.156C108.606 45.3862 109.082 42.3412 108.5 39.4079Z" fill="#3579F6"/>
<path d="M92.3563 173.03C92.3443 173.077 92.3169 173.119 92.2784 173.149C92.2399 173.179 92.1926 173.195 92.1439 173.195H83.8901C83.8901 172.953 83.8283 172.9 83.1641 168.662C83.159 168.629 83.1617 168.595 83.172 168.563C83.1823 168.531 83.1999 168.502 83.2233 168.478C85.1037 166.523 87.0903 164.673 89.1742 162.937C89.9981 162.251 88.8048 161.077 87.9964 161.759C86.3136 163.159 84.6968 164.633 83.1461 166.181C83.117 166.209 83.0806 166.229 83.0409 166.237C83.0013 166.246 82.96 166.244 82.9216 166.23C82.8833 166.217 82.8494 166.193 82.8238 166.162C82.7982 166.13 82.7819 166.092 82.7767 166.052C82.563 164.554 82.3617 163.055 82.1729 161.556C82.1685 161.514 82.1754 161.473 82.1929 161.436C82.2104 161.398 82.2377 161.366 82.2721 161.343C82.3828 161.269 83.5696 160.007 88.1831 155.181C88.9219 154.409 87.7467 153.227 87.0065 154.003C85.4129 155.669 83.8206 157.336 82.2296 159.003C82.2003 159.031 82.1639 159.05 82.1244 159.058C82.0849 159.067 82.0438 159.064 82.0056 159.051C81.9675 159.038 81.9337 159.014 81.9081 158.983C81.8824 158.952 81.8658 158.914 81.8601 158.874C81.6696 157.224 81.498 155.571 81.3452 153.916C81.3414 153.873 81.3502 153.83 81.3706 153.792C81.391 153.755 81.422 153.724 81.4598 153.703C83.1612 151.841 84.9758 150.084 86.8933 148.445C87.7209 147.76 86.5354 146.589 85.7167 147.267C84.2169 148.505 82.798 149.838 81.4688 151.258C81.4403 151.289 81.4032 151.312 81.362 151.322C81.3209 151.333 81.2775 151.332 81.2372 151.318C81.1969 151.304 81.1615 151.279 81.1355 151.245C81.1094 151.212 81.0937 151.171 81.0904 151.129C80.9496 149.442 80.8265 147.755 80.7209 146.07C80.7185 146.035 80.7246 146 80.7388 145.967C80.7529 145.935 80.7746 145.907 80.802 145.885C81.0595 145.675 82.554 143.624 86.0076 139.86C86.7311 139.071 85.5545 137.89 84.8285 138.684C83.4949 140.138 82.1965 141.625 80.9333 143.143C80.9051 143.176 80.8674 143.201 80.8252 143.213C80.783 143.225 80.7381 143.224 80.6965 143.21C80.6548 143.196 80.6183 143.17 80.5917 143.135C80.565 143.1 80.5495 143.058 80.5471 143.014C80.4682 141.469 80.4025 139.925 80.3502 138.38C80.3154 137.31 78.651 137.306 78.6884 138.38C78.7441 140.103 78.8192 141.827 78.9136 143.551C78.9145 143.591 78.9043 143.631 78.8841 143.666C78.8639 143.7 78.8344 143.729 78.799 143.748C78.7636 143.767 78.7237 143.776 78.6835 143.774C78.6433 143.772 78.6044 143.759 78.5712 143.736L75.8564 141.876C74.9695 141.269 74.1354 142.71 75.0146 143.313L78.9741 146.028C79.1389 146.141 78.9986 145.948 79.4375 151.249C79.4408 151.289 79.4327 151.33 79.4141 151.366C79.3955 151.402 79.3672 151.433 79.3322 151.454C79.2973 151.475 79.2572 151.486 79.2165 151.485C79.1757 151.485 79.1359 151.473 79.1016 151.451L75.644 149.232C74.743 148.647 73.9037 150.088 74.8035 150.669C79.9447 153.993 79.6538 153.759 79.668 153.911C79.8396 155.722 80.0305 157.53 80.2408 159.335C80.2453 159.374 80.2393 159.413 80.2234 159.449C80.2076 159.485 80.1825 159.515 80.1507 159.538C80.1189 159.561 80.0816 159.575 80.0426 159.578C80.0037 159.582 79.9646 159.575 79.9293 159.558C78.5845 158.881 77.3442 158.014 76.2465 156.983C75.4651 156.244 74.2847 157.427 75.0699 158.16C76.6253 159.615 78.4313 160.775 80.4004 161.586C80.6051 161.673 80.4339 161.404 81.1959 166.666C81.2023 166.706 81.1971 166.748 81.181 166.786C81.1648 166.823 81.1383 166.856 81.1045 166.879C81.0707 166.902 81.031 166.916 80.99 166.917C80.9491 166.919 80.9084 166.909 80.8728 166.889C79.9204 166.355 78.9997 165.767 78.1155 165.126C77.2428 164.501 76.4125 165.945 77.275 166.568C78.5912 167.524 79.9889 168.363 81.4521 169.074C81.631 169.149 81.5049 168.955 82.1858 172.936C82.1959 172.994 82.1826 173.054 82.1489 173.102C82.1151 173.15 82.0636 173.183 82.0056 173.194H57.5235C57.4677 173.194 57.4139 173.173 57.3733 173.134C57.3328 173.096 57.3086 173.043 57.306 172.988C57.1824 170.786 57.0683 168.585 56.9636 166.383C56.9623 166.347 56.9701 166.311 56.9863 166.279C57.0025 166.247 57.0266 166.219 57.0563 166.199C59.0938 164.595 60.9853 162.814 62.7085 160.876C63.4178 160.075 62.2426 158.892 61.5294 159.695C60.1894 161.208 58.7413 162.62 57.1966 163.923C57.1652 163.951 57.1263 163.97 57.0846 163.977C57.0429 163.984 57.0001 163.978 56.9612 163.962C56.9224 163.945 56.8891 163.918 56.8653 163.883C56.8416 163.848 56.8283 163.807 56.8271 163.764C56.683 160.761 56.5465 157.757 56.4178 154.754C56.4161 154.723 56.4213 154.692 56.4331 154.663C56.4449 154.634 56.463 154.609 56.486 154.588C56.692 154.388 56.8825 154.172 57.0614 154.001L62.1151 149.184C62.8875 148.445 61.7148 147.265 60.9386 148.007L56.32 152.408C55.975 144.191 55.9673 144.66 56.105 144.556C56.5259 144.178 56.9199 143.771 57.2841 143.337L62.5103 138.044C63.2633 137.281 62.0868 136.1 61.3325 136.865L56.2878 141.986C56.2572 142.014 56.2192 142.033 56.1782 142.041C56.1372 142.048 56.0949 142.044 56.0562 142.029C56.0175 142.013 55.984 141.987 55.9596 141.953C55.9352 141.919 55.9209 141.879 55.9183 141.838C55.8591 140.144 55.6699 134.315 55.6326 133.095C55.6326 132.966 55.2721 133.402 60.8459 127.511C61.5848 126.738 60.4082 125.553 59.6694 126.333L55.9222 130.27C55.893 130.304 55.8543 130.328 55.8113 130.339C55.7682 130.35 55.7228 130.348 55.6809 130.333C55.6391 130.318 55.6029 130.29 55.577 130.254C55.5512 130.218 55.5369 130.175 55.536 130.13L55.4215 125.967C55.413 125.752 55.3218 125.549 55.1669 125.4C55.012 125.252 54.8054 125.168 54.5905 125.168C54.3757 125.168 54.1691 125.252 54.0142 125.4C53.8593 125.549 53.7681 125.752 53.7596 125.967C53.8077 127.777 53.8579 129.588 53.9102 131.401C53.5434 131.003 49.4989 126.93 49.6276 127.06C49.4699 126.912 49.2609 126.832 49.0448 126.835C48.8287 126.838 48.6224 126.926 48.4695 127.078C48.3165 127.231 48.229 127.437 48.2253 127.654C48.2217 127.87 48.3021 128.079 48.4498 128.237L51.6679 131.483C52.2603 132.249 52.9977 132.891 53.8382 133.371C54.048 133.449 53.936 132.835 54.2526 141.839C54.2545 141.881 54.2445 141.922 54.2236 141.958C54.2028 141.995 54.1721 142.024 54.1352 142.044C54.0982 142.063 54.0564 142.071 54.0147 142.068C53.9731 142.065 53.9333 142.049 53.8999 142.024L49.3071 138.486C48.4704 137.842 47.2758 139.008 48.1305 139.663L54.2655 144.409C54.4007 144.516 54.3093 143.99 54.671 152.657C54.6737 152.7 54.6638 152.742 54.6426 152.779C54.6214 152.817 54.5899 152.847 54.5517 152.867C54.5136 152.886 54.4706 152.894 54.428 152.89C54.3854 152.885 54.345 152.868 54.3119 152.841C53.0827 151.67 51.6638 150.716 50.1155 150.019C49.1114 149.65 48.675 151.255 49.6726 151.626C51.4825 152.304 53.3799 154.526 54.6375 155.027C54.6775 155.042 54.712 155.069 54.7372 155.104C54.7623 155.138 54.7768 155.18 54.7791 155.222C54.9079 158.016 55.1653 163.801 55.1653 163.801C55.1683 163.845 55.1581 163.888 55.1358 163.927C55.1136 163.965 55.0804 163.995 55.0405 164.014C55.0007 164.033 54.9561 164.04 54.9124 164.033C54.8688 164.027 54.8282 164.007 54.7959 163.977C54.2488 163.512 51.3731 160.945 51.5057 161.064C50.7076 160.353 49.5259 161.527 50.3291 162.242C55.1524 166.533 54.7276 166.248 55.1808 166.49C55.3558 166.581 55.2644 166.16 55.6249 172.977C55.628 173.035 55.6083 173.091 55.57 173.135C55.5316 173.178 55.4778 173.204 55.4202 173.208H6.93105C6.90175 173.207 6.87281 173.201 6.84591 173.19C6.819 173.178 6.79467 173.161 6.77432 173.14C6.75396 173.119 6.73799 173.094 6.72733 173.067C6.71667 173.04 6.71154 173.01 6.71222 172.981C6.76886 169.641 7.94282 162.161 10.6293 160.537C13.4097 158.864 17.1427 159.644 19.7481 161.584C22.0408 163.497 23.9209 165.856 25.2743 168.518C25.299 168.559 25.3363 168.59 25.3804 168.608C25.4246 168.626 25.4733 168.629 25.5193 168.616C25.5652 168.604 25.6059 168.577 25.6353 168.54C25.6647 168.502 25.6812 168.456 25.6823 168.409C25.6055 164.761 25.8988 161.114 26.5576 157.525C28.5593 148.2 34.6145 143.524 41.7471 143.472C41.779 143.472 41.8106 143.465 41.8395 143.452C41.8684 143.438 41.8939 143.418 41.9143 143.394C41.9347 143.369 41.9495 143.34 41.9575 143.31C41.9655 143.279 41.9666 143.246 41.9608 143.215C40.6156 136.241 39.8574 129.033 42.54 122.57C43.1813 120.963 44.0862 119.475 45.2175 118.166C50.4501 112.284 61.3325 111.58 65.9254 117.43C70.8877 123.758 67.8755 137.134 66.4274 144.532C65.8044 147.716 65.2307 150.902 64.7063 154.091C64.6995 154.13 64.7038 154.171 64.7187 154.209C64.7336 154.246 64.7586 154.278 64.7909 154.302C64.8232 154.326 64.8615 154.341 64.9015 154.345C64.9416 154.348 64.9819 154.341 65.0179 154.323C67.1046 153.292 69.4667 152.956 71.7579 153.366C71.7918 153.372 71.8267 153.37 71.8597 153.36C71.8928 153.35 71.923 153.332 71.948 153.308C71.973 153.285 71.9921 153.255 72.0038 153.223C72.0155 153.191 72.0194 153.156 72.0153 153.122C71.5004 149.345 71.019 145.509 70.6199 141.449C70.2338 137.556 69.9557 133.267 72.2547 130.106C74.6928 126.759 79.592 125.782 83.464 127.24C85.372 128.062 87.0914 129.265 88.5163 130.776C89.9411 132.288 91.0413 134.075 91.7487 136.028C93.2908 139.872 95.6285 160.524 92.3563 173.03Z" fill="#191919"/>
<path d="M135.452 90.2501C135.452 90.2501 153.104 88.2511 161.266 92.9147C161.266 92.9147 169.947 123.46 173.351 128.757C176.754 134.054 179.087 137.05 182.085 138.883L185.25 161.951H93.812V147.377C93.812 147.377 112.799 152.707 119.46 124.06C121.382 115.808 122.443 107.38 122.626 98.9094C122.626 98.9094 129.789 108.237 136.282 105.743C144.547 102.561 135.452 90.2501 135.452 90.2501Z" fill="#3579F6"/>
<path d="M136.783 54.2031C136.783 54.2031 130.789 57.3697 131.287 63.5305C131.422 65.293 132.037 66.9849 133.064 68.4234C134.092 69.862 135.492 70.9925 137.115 71.6929L124.957 69.6977C124.957 69.6977 119.232 69.9409 120.294 63.5343C121.293 57.5396 124.957 56.7004 124.957 56.7004L136.783 54.2031Z" fill="#3579F6"/>
<path d="M147.968 61.3202C144.586 51.4484 132.58 57.5319 135.61 65.8616C138.937 72.4678 150.531 68.8043 147.968 61.3202ZM143.406 63.488C142.18 63.5086 141.892 60.611 143.406 60.4205C144.633 60.3999 144.921 63.2962 143.406 63.488Z" fill="#3579F6"/>
<path d="M110.386 65.2192C108.13 64.8253 110.57 74.1488 113.649 74.3586C97.2107 89.548 88.5308 103.726 85.0063 115.566L86.188 115.906C90.889 99.8408 105.336 85.9566 116.128 73.8733C107.184 68.9329 113.954 65.8435 110.386 65.2192Z" fill="#191919"/>
<path d="M115.214 59.9585C111.996 54.592 112.579 72.9892 116.109 69.6051C115.485 66.5582 113.628 63.2693 115.214 59.9585Z" fill="#191919"/>
<path d="M119.706 56.9679C114.629 61.6959 116.666 71.2357 118.648 69.4168C119.352 68.6007 118.463 67.8953 118.342 66.8423C116.692 60.2787 123.954 56.2715 119.706 56.9679Z" fill="#191919"/>
<path d="M141.661 74.5774C138.077 75.5454 140.851 80.2503 143.602 79.3789C146.176 78.201 143.978 74.3573 141.661 74.5774ZM141.629 77.3334C140.906 76.117 142.015 75.4862 142.904 76.5946C144.279 78.2345 142.461 78.4083 141.629 77.3334Z" fill="#191919"/>
<path d="M166.957 49.197C161.322 49.4365 155.688 49.7441 150.056 50.12C149.788 46.0574 150.742 41.1904 148.947 37.4239C144.084 28.0052 128.838 25.0883 121.243 31.5618C116.195 35.3154 112.852 42.0245 113.826 47.5751L116.77 47.2057C116.866 47.969 117.006 49.2022 117.156 50.3015L114.343 50.7134L114.986 53.6908C113.14 53.8749 100.075 55.5663 106.389 56.7197C150.644 49.3296 172.723 52.6713 166.957 49.197ZM147.373 45.8721C147.592 45.1911 146.787 43.0093 148.366 43.2564C148.209 44.0365 148.953 46.1051 147.373 45.8721ZM145.772 43.5821L145.707 46.1179L121.587 49.645C121.492 48.9074 121.358 47.7141 121.218 46.6444L145.772 43.5821ZM118.408 46.9958L119.584 46.853C119.499 47.8583 120.767 50.3285 118.789 50.0595C118.659 49.0374 118.532 48.0162 118.408 46.9958Z" fill="#191919"/>
<path d="M162.932 56.5845C153.093 53.6792 151.226 66.8438 159.521 69.1801C166.845 70.2202 170.53 58.8281 162.932 56.5845ZM162.308 63.3116C161.094 63.3309 160.809 60.4681 162.308 60.2802C163.519 60.2621 163.803 63.1224 162.308 63.3116ZM167.714 57.3903C165.231 54.0435 157.083 51.478 153.66 56.8059C152.842 56.2988 151.899 56.029 150.937 56.0267C149.974 56.0244 149.03 56.2897 148.21 56.793C142.062 48.5148 129.429 58.0803 133.176 66.7447C138.759 76.4222 153.523 70.6939 149.707 59.7704C150.109 59.5636 150.549 59.4428 151.001 59.4157C151.452 59.3887 151.904 59.456 152.328 59.6134C149.937 80.8065 177.228 70.1919 167.71 57.3864L167.714 57.3903ZM144.962 69.7826C131.36 73.6186 130.302 57.4057 140.182 54.8596C149.153 53.3574 153.034 66.7164 144.962 69.7826ZM168.162 64.5358C162.755 77.0465 150.049 68.4477 153.333 59.3752C157.171 50.6091 171.186 55.8713 168.155 64.5358H168.162Z" fill="#3579F6"/>
<path d="M148.71 73.0625C146.95 73.2839 148.222 80.441 147.232 82.2367C143.336 85.9414 133.845 82.1208 130.852 81.2803C128.167 83.0644 134.115 83.8123 135.333 84.4984C135.101 86.6239 135.271 88.7742 135.835 90.8368C135.835 90.8368 137.045 91.6258 137.33 90.6849C136.88 89.9653 137.157 88.3807 137.003 84.8987C149.209 87.5852 151.359 80.9597 148.71 73.0625Z" fill="#191919"/>
<path d="M247.858 77.6624C245.424 76.204 242.161 76.8901 239.877 78.5867C237.871 80.26 236.227 82.3236 235.043 84.6522C235.028 84.6976 234.997 84.7357 234.955 84.7586C234.913 84.7815 234.864 84.7875 234.818 84.7752C234.772 84.763 234.733 84.7334 234.708 84.6928C234.683 84.6521 234.675 84.6035 234.685 84.5569C234.753 81.3639 234.496 78.1723 233.919 75.0313C232.157 66.8187 226.802 62.7665 220.636 62.7381C220.608 62.7391 220.58 62.7335 220.554 62.7219C220.528 62.7102 220.506 62.6929 220.488 62.6711C220.47 62.6494 220.457 62.6238 220.451 62.5963C220.444 62.5689 220.444 62.5403 220.45 62.5129C221.624 56.4126 222.289 50.109 219.943 44.4554C219.15 42.3959 217.823 40.5849 216.097 39.2088C214.372 37.8328 212.311 36.9414 210.127 36.6264C206.283 35.9275 201.9 36.8839 199.488 39.9501C198.101 41.9269 197.311 44.2597 197.209 46.6721C196.551 53.8961 198.543 59.7826 200.556 72.0307C200.564 72.0661 200.562 72.1031 200.549 72.1371C200.536 72.1712 200.514 72.2007 200.485 72.2221C200.455 72.2435 200.42 72.2558 200.384 72.2574C200.348 72.2591 200.312 72.2501 200.281 72.2316C198.432 71.3179 196.339 71.0245 194.31 71.3948C193.941 71.3292 194.328 71.7295 195.381 60.9682C195.715 57.5621 195.963 53.815 193.95 51.0448C192.791 49.6442 191.217 48.6472 189.456 48.1971C187.694 47.747 185.835 47.867 184.146 48.5399C182.478 49.258 180.974 50.3103 179.727 51.632C178.481 52.9537 177.518 54.5167 176.899 56.2247C175.886 58.7503 174.474 69.6455 175.063 79.5431C175.063 79.5431 170.474 74.277 168.241 71.6137L166.928 72.7902C169.431 75.6028 179.06 86.4878 180.989 88.752C195.694 106.018 210.396 126.565 201.42 137.152C173.983 160.489 162.846 86.5071 160.532 86.9808C158.912 87.3077 160.586 89.3339 160.975 93.4453C164.022 106.781 167.797 119.911 174.945 131.491C189.152 154.848 215.099 139.623 202.426 116.173C197.317 106.175 190.375 97.3173 183.052 88.7443H183.761C183.761 88.6925 183.765 88.6409 183.774 88.5898C183.993 87.3223 184.2 86.0518 184.396 84.7783C184.401 84.7491 184.399 84.7192 184.39 84.691C184.381 84.6627 184.365 84.6371 184.345 84.6161C182.701 82.906 180.963 81.2884 179.14 79.7709C178.419 79.1685 179.456 78.1439 180.17 78.7411C181.648 79.9657 183.064 81.2551 184.418 82.6093C184.442 82.6372 184.474 82.6574 184.509 82.6673C184.544 82.6771 184.582 82.6762 184.617 82.6646C184.652 82.653 184.683 82.6313 184.705 82.6021C184.728 82.5731 184.741 82.5379 184.744 82.5012C184.93 81.1908 185.106 79.8795 185.271 78.5674C185.288 78.418 185.17 78.3871 185.064 78.279L180.014 72.9936C179.371 72.3152 180.4 71.2829 181.044 71.9638C185.543 76.67 185.233 76.4035 185.361 76.4061C185.386 76.4068 185.41 76.4026 185.433 76.3939C185.455 76.3852 185.476 76.3721 185.494 76.3554C185.511 76.3386 185.525 76.3186 185.535 76.2963C185.545 76.2741 185.55 76.2501 185.551 76.2259C185.722 74.7816 185.874 73.3369 186.006 71.8917C186.024 71.7205 185.878 71.7321 185.722 71.5532C184.318 69.9504 182.788 68.4631 181.146 67.1058C180.422 66.5085 181.46 65.4851 182.176 66.076C185.23 68.6157 185.754 69.6506 186.022 69.6442C186.046 69.6439 186.07 69.6387 186.092 69.6291C186.114 69.6194 186.134 69.6054 186.151 69.5879C186.168 69.5705 186.181 69.5498 186.19 69.5272C186.199 69.5046 186.203 69.4805 186.202 69.4563C186.323 67.9785 186.431 66.5008 186.525 65.023C186.525 64.8943 186.423 64.8544 186.341 64.7501C184.922 62.984 183.444 61.2651 181.908 59.5934C181.277 58.9034 182.303 57.8698 182.938 58.5636C186.413 62.3764 186.284 62.5541 186.506 62.5463C186.53 62.5455 186.554 62.5399 186.576 62.5298C186.598 62.5197 186.618 62.5053 186.635 62.4875C186.651 62.4696 186.664 62.4487 186.672 62.4259C186.681 62.4031 186.684 62.3788 186.683 62.3545C186.753 61.0072 186.81 59.6565 186.856 58.3023C186.886 57.3652 188.343 57.36 188.312 58.3023C188.261 59.811 188.195 61.3175 188.114 62.8218C188.109 62.8586 188.115 62.896 188.132 62.9292C188.149 62.9623 188.175 62.9897 188.207 63.0077C188.24 63.0258 188.277 63.0336 188.314 63.0303C188.351 63.027 188.386 63.0127 188.415 62.9892L190.791 61.3608C191.57 60.8305 192.298 62.0919 191.53 62.6184C187.747 65.2084 187.989 65.0088 187.984 65.1388C187.7 69.6442 187.597 69.5837 187.694 69.7124C187.724 69.7503 187.768 69.775 187.816 69.7812C187.864 69.7875 187.913 69.7748 187.951 69.7459L190.973 67.7957C191.765 67.2808 192.497 68.5449 191.711 69.0534L187.541 71.7476C187.393 71.8415 187.524 71.6896 186.954 76.6391C186.947 76.6738 186.95 76.7099 186.963 76.7429C186.976 76.7759 186.998 76.8045 187.027 76.8252C187.056 76.8458 187.09 76.8577 187.125 76.8594C187.161 76.8611 187.196 76.8526 187.227 76.8347C188.403 76.2435 189.487 75.4847 190.445 74.5821C191.127 73.9384 192.159 74.9682 191.475 75.6119C190.114 76.8823 188.534 77.8955 186.812 78.6021C186.781 78.6148 186.754 78.6355 186.733 78.6623C186.713 78.689 186.7 78.7207 186.696 78.754C186.148 83.1306 186.053 83.0611 186.143 83.1911C186.156 83.2116 186.173 83.2292 186.194 83.2429C186.214 83.2565 186.237 83.2661 186.261 83.2709C186.285 83.2756 186.309 83.2756 186.333 83.2708C186.357 83.2659 186.38 83.2564 186.4 83.2426C187.232 82.7725 188.037 82.2569 188.813 81.6979C189.578 81.147 190.306 82.4111 189.551 82.9543C188.401 83.7908 187.179 84.5231 185.898 85.1426C185.868 85.1548 185.842 85.1746 185.822 85.2001C185.802 85.2256 185.788 85.2559 185.784 85.2881C185.373 88.0724 185.249 88.5062 185.251 88.5654C185.251 88.5897 185.257 88.6136 185.266 88.6358C185.276 88.6581 185.29 88.6781 185.308 88.6949C185.325 88.7116 185.346 88.7247 185.369 88.7334C185.391 88.7421 185.416 88.7463 185.44 88.7456H206.842C206.866 88.7458 206.89 88.7411 206.912 88.732C206.935 88.7228 206.955 88.7092 206.973 88.6921C206.99 88.675 207.004 88.6547 207.013 88.6323C207.022 88.6098 207.027 88.5858 207.027 88.5615C207.129 86.6358 207.228 84.7105 207.324 82.7857C207.341 82.5282 206.795 82.4729 204.841 80.5626C203.953 79.737 203.107 78.8707 202.304 77.9636C201.681 77.266 202.711 76.231 203.334 76.9338C204.506 78.2553 205.773 79.49 207.124 80.6282C207.151 80.6512 207.185 80.6659 207.22 80.6709C207.256 80.6759 207.292 80.671 207.325 80.6565C207.358 80.6421 207.387 80.6189 207.407 80.5893C207.428 80.5598 207.44 80.5251 207.441 80.4892C207.568 77.8615 207.687 75.2334 207.799 72.6049C207.801 72.5778 207.797 72.5508 207.787 72.5256C207.777 72.5005 207.761 72.4778 207.741 72.4594C207.56 72.2856 207.391 72.0951 207.237 71.9445L202.824 67.7352C202.145 67.0916 203.176 66.0618 203.854 66.7054C203.983 66.8341 207.761 70.4384 207.893 70.5556C207.989 68.3243 208.077 66.0884 208.158 63.8477C208.16 63.8164 208.154 63.7851 208.14 63.7569C208.127 63.7287 208.106 63.7046 208.08 63.6868C207.713 63.3548 207.369 62.9983 207.05 62.6197L202.483 57.9856C201.824 57.3227 202.852 56.2865 203.513 56.9559L207.938 61.4342C207.963 61.4639 207.997 61.485 208.035 61.4945C208.072 61.504 208.112 61.5015 208.148 61.4873C208.184 61.4731 208.215 61.4479 208.236 61.4152C208.257 61.3826 208.267 61.3442 208.265 61.3054C208.318 59.82 208.516 53.6579 208.516 53.6579C208.517 53.6306 208.512 53.6034 208.502 53.5781C208.491 53.5529 208.476 53.5301 208.456 53.5112C208.241 53.3155 208.704 53.7931 203.951 48.7767C203.307 48.0958 204.337 47.0647 204.98 47.7469L208.256 51.1993C208.281 51.2313 208.315 51.2545 208.353 51.2654C208.392 51.2763 208.433 51.2744 208.471 51.2598C208.508 51.2453 208.54 51.219 208.561 51.1849C208.582 51.1507 208.592 51.1106 208.588 51.0706C208.624 49.8571 208.659 48.6437 208.691 47.4303C208.699 47.2425 208.779 47.065 208.915 46.935C209.051 46.8049 209.231 46.7323 209.419 46.7323C209.607 46.7323 209.788 46.8049 209.924 46.935C210.059 47.065 210.139 47.2425 210.147 47.4303C210.106 49.0144 210.063 50.5994 210.019 52.1853C210.096 52.1004 212.965 49.2054 213.77 48.3931C214.43 47.7263 215.46 48.7587 214.799 49.4229C213.864 50.3669 212.927 51.3109 211.989 52.2548C211.477 52.9308 210.831 53.4935 210.091 53.9077C210.054 53.9196 210.023 53.9423 210 53.9726C209.977 54.0029 209.964 54.0396 209.962 54.0776C209.741 61.3003 209.652 61.3402 209.771 61.4689C209.804 61.5039 209.85 61.5246 209.898 61.5268C209.946 61.5289 209.993 61.5123 210.029 61.4805L214.037 58.377C214.771 57.8106 215.807 58.8339 215.067 59.4068C213.835 60.3529 209.695 63.5517 209.695 63.5517C209.567 63.6482 209.645 63.3547 209.343 70.7602C209.338 70.7984 209.345 70.8371 209.364 70.8709C209.382 70.9047 209.41 70.932 209.445 70.949C209.479 70.966 209.518 70.9718 209.556 70.9656C209.594 70.9595 209.629 70.9417 209.657 70.9147C210.746 69.9106 211.984 69.0808 213.327 68.4548C214.206 68.1265 214.587 69.5335 213.713 69.8605C212.754 70.3045 211.871 70.898 211.097 71.6188C210.587 72.109 210.005 72.5192 209.372 72.8353C209.197 72.9022 209.277 72.4169 208.913 80.5098C208.907 80.5484 208.914 80.5878 208.932 80.6222C208.951 80.6567 208.98 80.6844 209.015 80.7015C209.05 80.7185 209.089 80.724 209.128 80.7171C209.166 80.7101 209.201 80.6912 209.228 80.663C209.862 80.1236 209.334 80.5742 212.105 78.1155C212.803 77.4938 213.837 78.521 213.135 79.1453C212.16 80.0172 211.187 80.884 210.214 81.7456C209.816 82.1668 209.372 82.542 208.89 82.8642C208.86 82.8801 208.835 82.9032 208.817 82.9313C208.799 82.9594 208.788 82.9917 208.785 83.0251C208.697 84.862 208.501 88.5602 208.501 88.5602C208.501 88.6092 208.521 88.656 208.556 88.6905C208.59 88.725 208.637 88.7443 208.686 88.7443C229.041 88.7443 251.281 88.7301 251.116 88.7443C251.165 88.74 251.21 88.7169 251.242 88.6798C251.273 88.6428 251.289 88.5948 251.286 88.5461C251.12 85.6356 250.214 79.0926 247.858 77.6624Z" fill="#191919"/>
<path d="M158.768 53.2036L145.779 53.3697L148.442 56.0304C149.204 55.5423 150.078 55.2556 150.981 55.1973C151.884 55.139 152.787 55.3109 153.605 55.697C153.605 55.697 154.272 53.8717 158.768 53.2036Z" fill="#3579F6"/>
<path d="M156.271 71.6925L148.109 69.6973C148.109 69.6973 150.775 67.3648 150.775 65.1997C150.728 63.5275 150.56 61.8609 150.274 60.2129H151.607C151.458 62.5607 151.683 64.9173 152.272 67.1949C152.603 68.1741 153.128 69.0767 153.815 69.8493C154.502 70.6219 155.337 71.2487 156.271 71.6925Z" fill="#3579F6"/>
<path d="M125.314 70.7599C124.67 72.2634 123.126 74.0642 121.369 74.0977C121.206 74.106 121.049 74.1604 120.917 74.2545C120.784 74.3486 120.681 74.4786 120.62 74.6292C120.558 74.7798 120.541 74.9448 120.57 75.1048C120.599 75.2649 120.673 75.4134 120.783 75.533C120.34 78.4563 121.298 84.9221 121.219 86.4926C121.589 107.054 119.372 139.39 103.697 146.369C97.0963 149.329 91.7723 146.957 88.4731 142.416L86.2217 142.23C95.8078 157.283 121.049 150.461 122.594 101.968L122.734 99.1616C122.894 87.0087 123.104 78.8463 122.333 75.6321C123.318 75.3214 124.224 74.8 124.987 74.104C125.75 73.408 126.353 72.5541 126.753 71.6017C127.174 70.6273 125.739 69.779 125.314 70.7599Z" fill="#191919"/>
<path d="M91.6403 39.8227L89.0066 42.5259C88.9156 41.3108 88.8362 40.0973 88.7684 38.8856C89.2061 38.5252 89.6064 38.0296 89.9411 37.7271L92.5066 35.3573C93.2159 34.6995 92.1539 33.6414 91.4459 34.2966L88.6668 36.8711C88.5646 34.6956 88.4986 32.5181 88.4685 30.3383C88.8727 30.0809 89.2409 29.6947 89.5768 29.4514L91.8269 27.7407C92.5851 27.1653 91.8398 25.8639 91.0687 26.447C90.1999 27.1061 89.3232 27.7626 88.4556 28.4255C88.4479 27.1434 88.4539 25.8622 88.4737 24.5818C88.9002 24.2962 89.3004 23.9731 89.6695 23.6163L92.1153 21.6417C92.8657 21.0354 91.7999 19.9799 91.0559 20.581L88.5007 22.6406C88.5282 21.4933 88.5646 20.3455 88.6101 19.1972C88.6487 18.2344 87.1491 18.2357 87.1105 19.1972C87.0693 20.1919 87.0367 21.1882 87.0126 22.1862C86.2238 21.492 85.3506 20.8999 84.4137 20.424C83.5551 19.9863 82.7956 21.2787 83.6568 21.7177C84.5288 22.1519 85.3399 22.6989 86.0691 23.3447C86.3536 23.6022 86.6419 24.0012 86.9702 24.3102C86.9504 25.6721 86.9431 27.0331 86.9483 28.3933C86.8196 28.2955 84.8681 26.7315 85.0007 26.8409C84.2618 26.2385 83.1921 27.2927 83.9413 27.899C86.929 30.3152 86.4102 29.9586 86.9676 30.3641C86.9985 32.609 87.0676 34.8514 87.1748 37.0912C86.3898 36.3901 85.5353 35.7707 84.6248 35.2427C84.4553 35.1597 84.2607 35.1437 84.0799 35.1979C83.8992 35.2522 83.7455 35.3727 83.6497 35.5353C83.5539 35.6979 83.5231 35.8907 83.5633 36.0751C83.6035 36.2595 83.7118 36.422 83.8666 36.53C85.0915 37.3035 86.2341 38.2002 87.2765 39.2061C87.3538 40.5414 87.4443 41.8767 87.5481 43.212C86.4591 42.6513 85.3744 42.0823 84.294 41.5052C83.4457 41.0456 82.6875 42.3406 83.5371 42.7924C84.4382 43.279 85.3392 43.7604 86.2557 44.2251C86.911 44.5611 87.7219 45.1686 88.4904 44.9395C89.2589 44.7104 89.9347 43.7038 90.4792 43.1374L92.6997 40.8924C93.3742 40.1922 92.3135 39.1302 91.6403 39.8227Z" fill="#191919"/>
<path d="M102.869 39.462C100.611 42.1289 98.5314 44.943 96.6456 47.8857C96.123 48.7005 97.418 49.4535 97.9329 48.6426C99.748 45.804 101.75 43.0892 103.925 40.5162C104.551 39.7902 103.494 38.7244 102.869 39.462Z" fill="#191919"/>
<path d="M85.5841 47.2405L74.9939 47.3576C75.0423 46.8395 75.0642 46.3192 75.0596 45.7988C75.3441 45.6147 77.6238 43.8846 77.4912 43.985C78.2519 43.4122 77.5053 42.1108 76.7356 42.6914C76.168 43.0786 75.625 43.5008 75.1098 43.9554C75.1398 42.5343 75.148 41.1141 75.1342 39.6947C75.3273 39.5402 78.0704 37.1356 77.9417 37.2489C78.669 36.613 77.6057 35.5575 76.881 36.1882L75.1021 37.7445C75.0763 36.6503 75.039 35.5566 74.9901 34.4633C75.978 33.5801 76.8616 32.5867 77.6238 31.5027C78.1902 30.7187 76.8849 29.9695 76.3365 30.7458C75.8757 31.3894 75.6775 31.594 74.8935 32.5312C74.833 31.5207 74.7648 30.5102 74.6824 29.5023C74.6052 28.5471 73.1055 28.5381 73.1854 29.5023C73.2652 30.4664 73.3295 31.4615 73.3887 32.4411L71.7617 31.1538C71.0112 30.563 69.9428 31.6185 70.701 32.2145C73.6912 34.5637 73.3257 34.2947 73.5033 34.4105C73.5651 35.7518 73.608 37.0923 73.632 38.4319C72.7739 37.6367 71.8536 36.9114 70.8799 36.2629C70.0754 35.7287 69.3236 37.0275 70.1243 37.5501C72.3229 39.0073 72.8829 39.9186 73.6488 40.1298C73.6591 41.4711 73.6479 42.8132 73.6153 44.1562C73.3669 43.9516 73.1261 43.7276 73.0283 43.6504C72.5739 43.2925 72.1401 42.9115 71.7166 42.5124C71.0138 41.8547 69.9518 42.9141 70.6572 43.5731C71.5623 44.4238 72.5357 45.1988 73.5677 45.8902C73.5677 45.9558 73.5162 47.3602 73.5175 47.3846L44.4026 47.7077C44.4026 46.4836 44.3884 45.262 44.373 44.0327L49.8785 39.3613C50.6174 38.7357 49.5503 37.6878 48.8191 38.3019L44.3434 42.1031C44.2953 38.9596 44.2198 35.8196 44.1168 32.6831C45.7067 30.8511 47.4387 29.1475 49.2967 27.5881C50.0356 26.969 48.9736 25.9147 48.2386 26.5275C46.7576 27.7647 45.356 29.094 44.0422 30.5076C43.9649 28.3957 43.8731 26.2859 43.7667 24.1782C44.8955 23.291 45.9773 22.3458 47.008 21.3463C47.7301 20.7027 46.6669 19.6471 45.9486 20.2856C45.1904 20.9588 44.4374 21.6346 43.6766 22.3027C43.6148 21.1468 43.5496 19.9921 43.4809 18.8388C43.9611 18.6199 44.2868 18.1449 46.094 16.0068C46.7145 15.2679 45.6602 14.2047 45.0359 14.9474L43.9276 16.2347C43.7757 16.4187 43.5788 16.729 43.3625 16.9607C43.287 15.7284 43.2068 14.502 43.1218 13.2817C43.0562 12.324 41.5578 12.3176 41.6247 13.2817C41.6977 14.3596 41.7676 15.4362 41.8346 16.5114C41.5475 16.2463 40.0015 15.0491 40.1303 15.1508C39.3785 14.5625 38.3114 15.6155 39.0709 16.2102C42.334 18.7667 41.4535 18.1475 41.9594 18.5157C42.0452 19.9496 42.1246 21.3836 42.1976 22.8176C41.7342 22.4945 41.3943 22.3362 39.6115 21.0914C38.8391 20.5547 38.0668 21.8406 38.8546 22.3851C39.9166 23.2102 41.0672 23.9144 42.2851 24.4846C42.3932 26.727 42.488 28.9694 42.5696 31.2117L38.1801 27.9215C37.4077 27.3436 36.6598 28.6437 37.4232 29.2088L42.6288 33.122C42.7326 36.3229 42.8073 39.5303 42.8528 42.7441C40.6467 41.559 38.5422 40.1937 36.5607 38.6623C35.7974 38.074 35.0495 39.3754 35.8051 39.956C37.4976 41.2666 39.2791 42.4581 41.1369 43.5216C41.6801 43.887 42.2631 44.1893 42.8746 44.4227C42.8875 45.522 42.8961 46.6209 42.9004 47.7193L25.1068 47.9163C24.9081 47.9163 24.7176 47.9952 24.5771 48.1357C24.4366 48.2762 24.3577 48.4668 24.3577 48.6655C24.3577 48.8642 24.4366 49.0547 24.5771 49.1952C24.7176 49.3357 24.9081 49.4146 25.1068 49.4146L85.5982 48.7311C85.7807 48.7079 85.9482 48.6186 86.0691 48.48C86.19 48.3415 86.2559 48.1634 86.2541 47.9795C86.2524 47.7956 86.1832 47.6188 86.0597 47.4825C85.9361 47.3463 85.7669 47.2602 85.5841 47.2405Z" fill="#191919"/>
</g>
<defs>
<clipPath id="clip0_829_16244">
<rect width="257.208" height="173.153" fill="white" transform="translate(0.395752)"/>
</clipPath>
</defs>
</svg>
