<svg width="35" height="35" viewBox="0 0 35 35" fill="none" xmlns="http://www.w3.org/2000/svg">
<rect x="0.0214844" y="34.8528" width="34.7056" height="34.7056" rx="17.3528" transform="rotate(-90 0.0214844 34.8528)" fill="url(#paint0_linear_77_15237)"/>
<path d="M13.5992 23.1932C12.7014 23.1894 11.9344 22.9527 11.298 22.483C10.6617 22.0133 10.1749 21.3295 9.8378 20.4318C9.50068 19.5341 9.33212 18.4527 9.33212 17.1875C9.33212 15.9261 9.50068 14.8485 9.8378 13.9545C10.1787 13.0606 10.6673 12.3788 11.3037 11.9091C11.9439 11.4394 12.709 11.2045 13.5992 11.2045C14.4893 11.2045 15.2526 11.4413 15.8889 11.9148C16.5253 12.3845 17.012 13.0663 17.3492 13.9602C17.6901 14.8504 17.8605 15.9261 17.8605 17.1875C17.8605 18.4564 17.692 19.5398 17.3548 20.4375C17.0177 21.3314 16.531 22.0152 15.8946 22.4886C15.2583 22.9583 14.4931 23.1932 13.5992 23.1932ZM13.5992 21.6761C14.387 21.6761 15.0026 21.2917 15.4458 20.5227C15.8927 19.7538 16.1162 18.642 16.1162 17.1875C16.1162 16.2216 16.0139 15.4053 15.8094 14.7386C15.6086 14.0682 15.3189 13.5606 14.9401 13.2159C14.5651 12.8674 14.1181 12.6932 13.5992 12.6932C12.8151 12.6932 12.1995 13.0795 11.7526 13.8523C11.3056 14.625 11.0802 15.7367 11.0764 17.1875C11.0764 18.1572 11.1768 18.9773 11.3776 19.6477C11.5821 20.3144 11.8719 20.8201 12.2469 21.1648C12.6219 21.5057 13.0727 21.6761 13.5992 21.6761ZM24.2909 11.3636V23H22.5296V13.125H22.4614L19.6773 14.9432V13.2614L22.5807 11.3636H24.2909Z" fill="white"/>
<defs>
<linearGradient id="paint0_linear_77_15237" x1="0.0214844" y1="52.2056" x2="34.7271" y2="52.2056" gradientUnits="userSpaceOnUse">
<stop stop-color="#328BFF" stop-opacity="0.16"/>
<stop offset="1" stop-color="#328BFF"/>
</linearGradient>
</defs>
</svg>
