<svg width="35" height="35" viewBox="0 0 35 35" fill="none" xmlns="http://www.w3.org/2000/svg">
<rect x="0.0214844" y="34.8826" width="34.7056" height="34.7056" rx="17.3528" transform="rotate(-90 0.0214844 34.8826)" fill="url(#paint0_linear_77_15339)"/>
<path d="M12.7242 23.223C11.8264 23.2192 11.0594 22.9824 10.423 22.5127C9.78667 22.043 9.29992 21.3593 8.9628 20.4616C8.62568 19.5639 8.45712 18.4824 8.45712 17.2173C8.45712 15.9559 8.62568 14.8783 8.9628 13.9843C9.30371 13.0904 9.79235 12.4086 10.4287 11.9389C11.0689 11.4692 11.834 11.2343 12.7242 11.2343C13.6143 11.2343 14.3776 11.4711 15.0139 11.9446C15.6503 12.4143 16.137 13.0961 16.4742 13.99C16.8151 14.8802 16.9855 15.9559 16.9855 17.2173C16.9855 18.4862 16.817 19.5696 16.4798 20.4673C16.1427 21.3612 15.656 22.0449 15.0196 22.5184C14.3833 22.9881 13.6181 23.223 12.7242 23.223ZM12.7242 21.7059C13.512 21.7059 14.1276 21.3215 14.5708 20.5525C15.0177 19.7836 15.2412 18.6718 15.2412 17.2173C15.2412 16.2514 15.1389 15.4351 14.9344 14.7684C14.7336 14.098 14.4439 13.5904 14.0651 13.2457C13.6901 12.8972 13.2431 12.723 12.7242 12.723C11.9401 12.723 11.3245 13.1093 10.8776 13.8821C10.4306 14.6548 10.2052 15.7665 10.2014 17.2173C10.2014 18.187 10.3018 19.0071 10.5026 19.6775C10.7071 20.3442 10.9969 20.8499 11.3719 21.1946C11.7469 21.5355 12.1977 21.7059 12.7242 21.7059ZM23.0523 23.1889C22.272 23.1889 21.575 23.0544 20.9614 22.7855C20.3515 22.5165 19.8686 22.1434 19.5125 21.6661C19.1602 21.1851 18.9709 20.6283 18.9443 19.9957H20.7284C20.7512 20.3404 20.8667 20.6396 21.075 20.8934C21.2871 21.1434 21.5637 21.3366 21.9046 21.473C22.2455 21.6093 22.6243 21.6775 23.0409 21.6775C23.4993 21.6775 23.9046 21.598 24.2568 21.4389C24.6129 21.2798 24.8913 21.0582 25.0921 20.7741C25.2928 20.4862 25.3932 20.1548 25.3932 19.7798C25.3932 19.3896 25.2928 19.0468 25.0921 18.7514C24.8951 18.4521 24.6053 18.2173 24.2227 18.0468C23.844 17.8764 23.3856 17.7911 22.8477 17.7911H21.8648V16.3593H22.8477C23.2796 16.3593 23.6584 16.2817 23.9841 16.1264C24.3137 15.9711 24.5712 15.7552 24.7568 15.4786C24.9424 15.1983 25.0352 14.8707 25.0352 14.4957C25.0352 14.1358 24.9538 13.8233 24.7909 13.5582C24.6318 13.2893 24.4046 13.079 24.1091 12.9275C23.8174 12.776 23.4727 12.7002 23.075 12.7002C22.6962 12.7002 22.3421 12.7703 22.0125 12.9105C21.6868 13.0468 21.4216 13.2438 21.2171 13.5014C21.0125 13.7552 20.9027 14.0601 20.8875 14.4161H19.1887C19.2076 13.7874 19.3932 13.2343 19.7455 12.7571C20.1015 12.2798 20.5712 11.9067 21.1546 11.6377C21.7379 11.3688 22.3856 11.2343 23.0977 11.2343C23.844 11.2343 24.4879 11.3802 25.0296 11.6718C25.575 11.9597 25.9955 12.3442 26.2909 12.8252C26.5902 13.3063 26.7379 13.8328 26.7341 14.4048C26.7379 15.0563 26.5561 15.6093 26.1887 16.0639C25.825 16.5184 25.3402 16.8233 24.7341 16.9786V17.0696C25.5068 17.187 26.1053 17.4938 26.5296 17.99C26.9576 18.4862 27.1697 19.1018 27.1659 19.8366C27.1697 20.4768 26.9917 21.0506 26.6318 21.5582C26.2758 22.0658 25.789 22.4654 25.1716 22.7571C24.5542 23.0449 23.8477 23.1889 23.0523 23.1889Z" fill="white"/>
<defs>
<linearGradient id="paint0_linear_77_15339" x1="0.0214844" y1="52.2354" x2="34.7271" y2="52.2354" gradientUnits="userSpaceOnUse">
<stop stop-color="#328BFF" stop-opacity="0.16"/>
<stop offset="1" stop-color="#328BFF"/>
</linearGradient>
</defs>
</svg>
