<svg width="36" height="35" viewBox="0 0 36 35" fill="none" xmlns="http://www.w3.org/2000/svg">
<rect x="0.751953" y="34.8528" width="34.7056" height="34.7056" rx="17.3528" transform="rotate(-90 0.751953 34.8528)" fill="url(#paint0_linear_77_15335)"/>
<path d="M13.7046 23.1932C12.8069 23.1894 12.0399 22.9527 11.4035 22.483C10.7671 22.0133 10.2804 21.3295 9.94327 20.4318C9.60615 19.5341 9.43759 18.4527 9.43759 17.1875C9.43759 15.9261 9.60615 14.8485 9.94327 13.9545C10.2842 13.0606 10.7728 12.3788 11.4092 11.9091C12.0493 11.4394 12.8145 11.2045 13.7046 11.2045C14.5948 11.2045 15.358 11.4413 15.9944 11.9148C16.6308 12.3845 17.1175 13.0663 17.4546 13.9602C17.7955 14.8504 17.966 15.9261 17.966 17.1875C17.966 18.4564 17.7974 19.5398 17.4603 20.4375C17.1232 21.3314 16.6365 22.0152 16.0001 22.4886C15.3637 22.9583 14.5986 23.1932 13.7046 23.1932ZM13.7046 21.6761C14.4925 21.6761 15.108 21.2917 15.5512 20.5227C15.9982 19.7538 16.2217 18.642 16.2217 17.1875C16.2217 16.2216 16.1194 15.4053 15.9149 14.7386C15.7141 14.0682 15.4243 13.5606 15.0455 13.2159C14.6705 12.8674 14.2236 12.6932 13.7046 12.6932C12.9205 12.6932 12.305 13.0795 11.858 13.8523C11.4111 14.625 11.1857 15.7367 11.1819 17.1875C11.1819 18.1572 11.2823 18.9773 11.483 19.6477C11.6876 20.3144 11.9774 20.8201 12.3524 21.1648C12.7274 21.5057 13.1781 21.6761 13.7046 21.6761ZM19.9816 23V21.7273L23.9191 17.6477C24.3396 17.2045 24.6862 16.8163 24.9589 16.483C25.2354 16.1458 25.4419 15.8258 25.5782 15.5227C25.7146 15.2197 25.7828 14.8977 25.7828 14.5568C25.7828 14.1705 25.6919 13.8371 25.51 13.5568C25.3282 13.2727 25.0801 13.0549 24.7657 12.9034C24.4513 12.7481 24.0972 12.6705 23.7032 12.6705C23.2865 12.6705 22.9229 12.7557 22.6123 12.9261C22.3017 13.0966 22.0631 13.3371 21.8964 13.6477C21.7297 13.9583 21.6464 14.322 21.6464 14.7386H19.9703C19.9703 14.0303 20.1331 13.411 20.4589 12.8807C20.7847 12.3504 21.2316 11.9394 21.7998 11.6477C22.368 11.3523 23.0138 11.2045 23.7373 11.2045C24.4684 11.2045 25.1123 11.3504 25.6691 11.642C26.2297 11.9299 26.6672 12.3239 26.9816 12.8239C27.296 13.3201 27.4532 13.8807 27.4532 14.5057C27.4532 14.9375 27.3718 15.3598 27.2089 15.7727C27.0498 16.1856 26.7714 16.6458 26.3737 17.1534C25.9759 17.6572 25.4229 18.2689 24.7146 18.9886L22.4021 21.4091V21.4943H27.6407V23H19.9816Z" fill="white"/>
<defs>
<linearGradient id="paint0_linear_77_15335" x1="0.751953" y1="52.2056" x2="35.4575" y2="52.2056" gradientUnits="userSpaceOnUse">
<stop stop-color="#328BFF" stop-opacity="0.16"/>
<stop offset="1" stop-color="#328BFF"/>
</linearGradient>
</defs>
</svg>
