<svg width="22" height="21" viewBox="0 0 22 21" fill="none" xmlns="http://www.w3.org/2000/svg">
<rect x="1.4375" y="0.590332" width="19.125" height="19.125" rx="3.9375" fill="white"/>
<rect x="1.4375" y="0.590332" width="19.125" height="19.125" rx="3.9375" stroke="#EEEEEE" stroke-width="1.125"/>
<g clip-path="url(#clip0_401_12772)">
<path d="M13.3945 8.57875C14.1191 9.09644 15.0067 9.40104 15.9654 9.40104V7.55721C15.784 7.55728 15.603 7.53835 15.4255 7.50072V8.95209C14.4669 8.95209 13.5793 8.64753 12.8546 8.12987V11.8926C12.8546 13.775 11.3279 15.3008 9.44469 15.3008C8.74203 15.3008 8.08891 15.0885 7.54639 14.7243C8.1656 15.3572 9.02914 15.7497 9.98446 15.7497C11.8678 15.7497 13.3946 14.2239 13.3946 12.3415V8.57875H13.3945ZM14.0606 6.71854C13.6902 6.3142 13.4471 5.79166 13.3945 5.21395V4.97681H12.8828C13.0116 5.71104 13.451 6.33833 14.0606 6.71854ZM8.73749 13.2799C8.53058 13.0088 8.41874 12.6771 8.41927 12.3361C8.41927 11.4752 9.11758 10.7772 9.97914 10.7772C10.1397 10.7771 10.2993 10.8017 10.4523 10.8502V8.96513C10.2735 8.94065 10.093 8.93021 9.91261 8.93405V10.4013C9.7595 10.3528 9.59983 10.3282 9.43922 10.3283C8.5777 10.3283 7.87943 11.0262 7.87943 11.8873C7.87943 12.4961 8.22845 13.0232 8.73749 13.2799Z" fill="#FF004F"/>
<path d="M12.8548 8.12983C13.5795 8.64749 14.467 8.95205 15.4257 8.95205V7.50069C14.8906 7.38675 14.4168 7.10729 14.0607 6.71854C13.4511 6.33829 13.0118 5.711 12.883 4.97681H11.5391V12.3414C11.536 13.2 10.8389 13.8951 9.97923 13.8951C9.47267 13.8951 9.02259 13.6538 8.73758 13.2799C8.22861 13.0232 7.87955 12.496 7.87955 11.8873C7.87955 11.0264 8.57783 10.3283 9.43934 10.3283C9.60441 10.3283 9.7635 10.354 9.91274 10.4013V8.93409C8.06262 8.9723 6.57471 10.4832 6.57471 12.3414C6.57471 13.2691 6.94522 14.11 7.54659 14.7244C8.08911 15.0885 8.74219 15.3009 9.44489 15.3009C11.3281 15.3009 12.8548 13.775 12.8548 11.8926L12.8548 8.12983Z" fill="black"/>
<path d="M15.4255 7.50055V7.10819C14.943 7.10889 14.47 6.97383 14.0605 6.71844C14.4229 7.11499 14.9001 7.38845 15.4255 7.50062M12.8828 4.97667C12.8705 4.90651 12.8611 4.83589 12.8546 4.76497V4.52783H10.9989V11.8925C10.996 12.751 10.2989 13.4462 9.43915 13.4462C9.19542 13.4465 8.95503 13.3896 8.73738 13.2799C9.0224 13.6537 9.47247 13.895 9.97903 13.895C10.8387 13.895 11.5359 13.1999 11.5389 12.3413V4.97671L12.8828 4.97667ZM9.91266 8.93395V8.51619C9.7576 8.49502 9.60128 8.48442 9.44478 8.48446C7.56137 8.48446 6.03467 10.0103 6.03467 11.8925C6.03467 13.0726 6.63468 14.1125 7.54647 14.7242C6.9451 14.1098 6.57459 13.2689 6.57459 12.3413C6.57459 10.4831 8.06246 8.97216 9.91266 8.93395Z" fill="#00F2EA"/>
</g>
<defs>
<clipPath id="clip0_401_12772">
<rect width="9.93103" height="11.25" fill="white" transform="translate(6.03467 4.52783)"/>
</clipPath>
</defs>
</svg>
