<svg width="20" height="20" viewBox="0 0 20 20" fill="none" xmlns="http://www.w3.org/2000/svg">
<g clip-path="url(#clip0_2973_11980)">
<path d="M9.9996 0.625C8.23401 0.626411 6.5047 1.12637 5.01074 2.06734H14.9748C13.4848 1.12884 11.7606 0.628978 9.9996 0.625Z" fill="#B22234"/>
<path d="M5.01099 2.06738C4.36742 2.47479 3.7759 2.95912 3.24951 3.50964H16.7612C16.2272 2.95753 15.6273 2.47314 14.9751 2.06738H5.01099Z" fill="white"/>
<path d="M3.24944 3.50952C2.82393 3.9519 2.44289 4.435 2.11182 4.95186H17.8985C17.5675 4.43501 17.1866 3.95191 16.7612 3.50952H3.24944Z" fill="#B22234"/>
<path d="M2.11203 4.95215C1.81613 5.4098 1.56069 5.89238 1.34863 6.39441H18.6445C18.4381 5.89299 18.1885 5.41043 17.8987 4.95215H2.11203Z" fill="white"/>
<path d="M1.34865 6.39429C1.15669 6.86188 1.00286 7.34423 0.888672 7.83662H19.1106C18.9944 7.34405 18.8385 6.8617 18.6445 6.39429H1.34865Z" fill="#B22234"/>
<path d="M0.889206 7.83643C0.775961 8.31056 0.699869 8.7928 0.661621 9.27876H19.345C19.3047 8.79263 19.2265 8.31039 19.1112 7.83643H0.889206Z" fill="white"/>
<path d="M0.661087 9.27881C0.639803 9.51863 0.627765 9.75919 0.625 9.99994C0.625912 10.2406 0.636092 10.4812 0.655518 10.7211H19.3389C19.3602 10.4812 19.3722 10.2407 19.375 9.99994C19.3741 9.75926 19.3639 9.5187 19.3445 9.27881H0.661087Z" fill="#B22234"/>
<path d="M0.655273 10.7212C0.695578 11.2073 0.773762 11.6896 0.889114 12.1635H19.1111C19.2243 11.6894 19.3004 11.2072 19.3387 10.7212H0.655273Z" fill="white"/>
<path d="M0.889648 12.1636C1.00585 12.6561 1.16174 13.1385 1.3558 13.6059H18.6516C18.8436 13.1383 18.9974 12.656 19.1116 12.1636H0.889648Z" fill="#B22234"/>
<path d="M1.35498 13.6057C1.56139 14.1071 1.81092 14.5897 2.10075 15.048H17.8874C18.1833 14.5903 18.4388 14.1077 18.6508 13.6057H1.35498Z" fill="white"/>
<path d="M2.10059 15.0479C2.43156 15.5647 2.8125 16.0478 3.2379 16.4902H16.7496C17.1751 16.0478 17.5562 15.5647 17.8873 15.0479H2.10059Z" fill="#B22234"/>
<path d="M3.23828 16.4905C3.77234 17.0426 4.37224 17.527 5.02448 17.9327H14.9885C15.6321 17.5253 16.2236 17.041 16.75 16.4905H3.23828Z" fill="white"/>
<path d="M5.02441 17.9326C6.51444 18.8711 8.23867 19.371 9.99962 19.375C11.7652 19.3735 13.4945 18.8736 14.9885 17.9326H5.02441Z" fill="#B22234"/>
<path d="M10 0.625C7.5136 0.625 5.12903 1.61272 3.37087 3.37087C1.61272 5.12903 0.625 7.5136 0.625 10C0.626227 10.2477 0.637272 10.4953 0.658112 10.7422H10.7422V0.662155C10.4954 0.639966 10.2478 0.627571 10 0.625Z" fill="#141276"/>
<path d="M6.64431 1.25705C6.5194 1.30266 6.39547 1.35091 6.27261 1.40178L6.40956 1.50585L6.31694 1.80515L6.5623 1.62197L6.81483 1.81392L6.72 1.50417L6.97253 1.31565H6.66224L6.64431 1.25705ZM8.23456 1.00098L8.13715 1.31562H7.82794L8.07824 1.50587L7.98559 1.80513L8.23094 1.62196L8.48349 1.81391L8.38865 1.50421L8.64118 1.31562H8.33092L8.23456 1.00098ZM9.90321 1.00098L9.8058 1.31562H9.49659L9.74688 1.50587L9.65424 1.80513L9.89959 1.62196L10.1521 1.81391L10.0573 1.50421L10.3098 1.31562H9.99957L9.90321 1.00098ZM4.2322 2.62272C4.18812 2.65559 4.14432 2.68886 4.10082 2.72251L4.31185 2.88295L4.2322 2.62272ZM5.73157 2.07L5.63417 2.38465H5.32496L5.57525 2.57489L5.48261 2.87416L5.72796 2.69098L5.98051 2.88293L5.88567 2.57323L6.13819 2.38465H5.82793L5.73157 2.07ZM7.40023 2.07L7.30282 2.38465H6.99361L7.24391 2.57489L7.15127 2.87416L7.39661 2.69098L7.64917 2.88293L7.55433 2.57323L7.80685 2.38465H7.49659L7.40023 2.07ZM9.06888 2.07L8.97148 2.38465H8.66226L8.91256 2.57489L8.81992 2.87416L9.06526 2.69098L9.31782 2.88293L9.22298 2.57323L9.4755 2.38465H9.16524L9.06888 2.07ZM3.31721 3.42846C3.22474 3.52634 3.13438 3.62621 3.04621 3.72799L2.97961 3.94314L3.22497 3.75995L3.4775 3.95191L3.38267 3.64223L3.6352 3.45363H3.32492L3.31721 3.42846ZM4.89725 3.13898L4.79984 3.45363H4.49063L4.74092 3.64387L4.64828 3.94314L4.89363 3.75997L5.14618 3.95192L5.05134 3.64221L5.30387 3.45363H4.9936L4.89725 3.13898ZM6.5659 3.13898L6.46849 3.45363H6.15928L6.40958 3.64387L6.31694 3.94314L6.56228 3.75997L6.81484 3.95192L6.72 3.64221L6.97252 3.45363H6.66226L6.5659 3.13898ZM8.23456 3.13898L8.13715 3.45363H7.82794L8.07824 3.64387L7.98559 3.94314L8.23094 3.75997L8.48349 3.95192L8.38865 3.64221L8.64118 3.45363H8.33092L8.23456 3.13898ZM9.90321 3.13898L9.8058 3.45363H9.49659L9.74688 3.64387L9.65424 3.94314L9.89959 3.75997L10.1521 3.95192L10.0573 3.64221L10.3098 3.45363H9.99957L9.90321 3.13898ZM2.46508 4.4392C2.3787 4.55432 2.29499 4.67141 2.214 4.79038L2.14533 5.01217L2.39062 4.82898L2.64323 5.02094L2.5484 4.71126L2.80085 4.52266H2.49064L2.46508 4.4392ZM4.06292 4.20801L3.96551 4.52265H3.6563L3.9066 4.7129L3.81395 5.01216L4.0593 4.82899L4.31186 5.02094L4.21702 4.71124L4.46954 4.52265H4.15928L4.06292 4.20801ZM5.73157 4.20801L5.63417 4.52265H5.32496L5.57525 4.7129L5.48261 5.01216L5.72796 4.82899L5.98051 5.02094L5.88567 4.71124L6.13819 4.52265H5.82793L5.73157 4.20801ZM7.40023 4.20801L7.30282 4.52265H6.99361L7.24391 4.7129L7.15127 5.01216L7.39661 4.82899L7.64917 5.02094L7.55433 4.71124L7.80685 4.52265H7.49659L7.40023 4.20801ZM9.06888 4.20801L8.97148 4.52265H8.66226L8.91256 4.7129L8.81992 5.01216L9.06526 4.82899L9.31782 5.02094L9.22298 4.71124L9.4755 4.52265H9.16524L9.06888 4.20801ZM1.73388 5.59169C1.67785 5.6967 1.62382 5.80277 1.57183 5.90984L1.80888 6.08997L1.71405 5.78029L1.96658 5.59169H1.73388ZM3.2286 5.27703L3.13119 5.59168H2.82197L3.07227 5.78192L2.97963 6.08119L3.22498 5.89801L3.47753 6.08996L3.38269 5.78026L3.63522 5.59168H3.32495L3.2286 5.27703ZM4.89725 5.27703L4.79984 5.59168H4.49063L4.74092 5.78192L4.64828 6.08119L4.89363 5.89801L5.14618 6.08996L5.05134 5.78026L5.30387 5.59168H4.9936L4.89725 5.27703ZM6.5659 5.27703L6.46849 5.59168H6.15928L6.40958 5.78192L6.31694 6.08119L6.56228 5.89801L6.81484 6.08996L6.72 5.78026L6.97252 5.59168H6.66226L6.5659 5.27703ZM8.23456 5.27703L8.13715 5.59168H7.82794L8.07824 5.78192L7.98559 6.08119L8.23094 5.89801L8.48349 6.08996L8.38865 5.78026L8.64118 5.59168H8.33092L8.23456 5.27703ZM9.90321 5.27703L9.8058 5.59168H9.49659L9.74688 5.78192L9.65424 6.08119L9.89959 5.89801L10.1521 6.08996L10.0573 5.78026L10.3098 5.59168H9.99957L9.90321 5.27703ZM2.39427 6.34601L2.29686 6.66066H1.98765L2.23795 6.8509L2.1453 7.15017L2.39065 6.967L2.6432 7.15895L2.54837 6.84924L2.80089 6.66066H2.49062L2.39427 6.34601ZM4.06292 6.34601L3.96551 6.66066H3.6563L3.9066 6.8509L3.81395 7.15017L4.0593 6.967L4.31186 7.15895L4.21702 6.84924L4.46954 6.66066H4.15928L4.06292 6.34601ZM5.73157 6.34601L5.63417 6.66066H5.32496L5.57525 6.8509L5.48261 7.15017L5.72796 6.967L5.98051 7.15895L5.88567 6.84924L6.13819 6.66066H5.82793L5.73157 6.34601ZM7.40023 6.34601L7.30282 6.66066H6.99361L7.24391 6.8509L7.15127 7.15017L7.39661 6.967L7.64917 7.15895L7.55433 6.84924L7.80685 6.66066H7.49659L7.40023 6.34601ZM9.06888 6.34601L8.97148 6.66066H8.66226L8.91256 6.8509L8.81992 7.15017L9.06526 6.967L9.31782 7.15895L9.22298 6.84924L9.4755 6.66066H9.16524L9.06888 6.34601ZM1.55994 7.41504L1.46253 7.72968H1.15332L1.40362 7.91993L1.31098 8.21919L1.55632 8.03602L1.80888 8.22797L1.71404 7.91827L1.96656 7.72968H1.6563L1.55994 7.41504ZM3.2286 7.41504L3.13119 7.72968H2.82197L3.07227 7.91993L2.97963 8.21919L3.22498 8.03602L3.47753 8.22797L3.38269 7.91827L3.63522 7.72968H3.32495L3.2286 7.41504ZM4.89725 7.41504L4.79984 7.72968H4.49063L4.74092 7.91993L4.64828 8.21919L4.89363 8.03602L5.14618 8.22797L5.05134 7.91827L5.30387 7.72968H4.9936L4.89725 7.41504ZM6.5659 7.41504L6.46849 7.72968H6.15928L6.40958 7.91993L6.31694 8.21919L6.56228 8.03602L6.81484 8.22797L6.72 7.91827L6.97252 7.72968H6.66226L6.5659 7.41504ZM8.23456 7.41504L8.13715 7.72968H7.82794L8.07824 7.91993L7.98559 8.21919L8.23094 8.03602L8.48349 8.22797L8.38865 7.91827L8.64118 7.72968H8.33092L8.23456 7.41504ZM9.90321 7.41504L9.8058 7.72968H9.49659L9.74688 7.91993L9.65424 8.21919L9.89959 8.03602L10.1521 8.22797L10.0573 7.91827L10.3098 7.72968H9.99957L9.90321 7.41504ZM2.39427 8.48406L2.29686 8.79871H1.98765L2.23795 8.98895L2.1453 9.28822L2.39065 9.10504L2.6432 9.29699L2.54837 8.98729L2.80089 8.79871H2.49062L2.39427 8.48406ZM4.06292 8.48406L3.96551 8.79871H3.6563L3.9066 8.98895L3.81395 9.28822L4.0593 9.10504L4.31186 9.29699L4.21702 8.98729L4.46954 8.79871H4.15928L4.06292 8.48406ZM5.73157 8.48406L5.63417 8.79871H5.32496L5.57525 8.98895L5.48261 9.28822L5.72796 9.10504L5.98051 9.29699L5.88567 8.98729L6.13819 8.79871H5.82793L5.73157 8.48406ZM7.40023 8.48406L7.30282 8.79871H6.99361L7.24391 8.98895L7.15127 9.28822L7.39661 9.10504L7.64917 9.29699L7.55433 8.98729L7.80685 8.79871H7.49659L7.40023 8.48406ZM9.06888 8.48406L8.97148 8.79871H8.66226L8.91256 8.98895L8.81992 9.28822L9.06526 9.10504L9.31782 9.29699L9.22298 8.98729L9.4755 8.79871H9.16524L9.06888 8.48406ZM1.55994 9.55304L1.46253 9.86769H1.15332L1.40362 10.0579L1.31098 10.3572L1.55632 10.174L1.80888 10.366L1.71404 10.0563L1.96656 9.86769H1.6563L1.55994 9.55304ZM3.2286 9.55304L3.13119 9.86769H2.82197L3.07227 10.0579L2.97963 10.3572L3.22498 10.174L3.47753 10.366L3.38269 10.0563L3.63522 9.86769H3.32495L3.2286 9.55304ZM4.89725 9.55304L4.79984 9.86769H4.49063L4.74092 10.0579L4.64828 10.3572L4.89363 10.174L5.14618 10.366L5.05134 10.0563L5.30387 9.86769H4.9936L4.89725 9.55304ZM6.5659 9.55304L6.46849 9.86769H6.15928L6.40958 10.0579L6.31694 10.3572L6.56228 10.174L6.81484 10.366L6.72 10.0563L6.97252 9.86769H6.66226L6.5659 9.55304ZM8.23456 9.55304L8.13715 9.86769H7.82794L8.07824 10.0579L7.98559 10.3572L8.23094 10.174L8.48349 10.366L8.38865 10.0563L8.64118 9.86769H8.33092L8.23456 9.55304ZM9.90321 9.55304L9.8058 9.86769H9.49659L9.74688 10.0579L9.65424 10.3572L9.89959 10.174L10.1521 10.366L10.0573 10.0563L10.3098 9.86769H9.99957L9.90321 9.55304Z" fill="white"/>
</g>
<defs>
<clipPath id="clip0_2973_11980">
<rect width="20" height="20" fill="white"/>
</clipPath>
</defs>
</svg>
