<svg width="33" height="33" viewBox="0 0 33 33" fill="none" xmlns="http://www.w3.org/2000/svg">
<path d="M28.5 10.808H18.5V22.808H28.5V10.808Z" fill="#3579F6"/>
<path fill-rule="evenodd" clip-rule="evenodd" d="M8.5 5.80798C6.29086 5.80798 4.5 7.59884 4.5 9.80798V23.808C4.5 26.0171 6.29086 27.808 8.5 27.808H24.5C26.7091 27.808 28.5 26.0171 28.5 23.808V22.808C28.5 21.7034 27.6046 20.808 26.5 20.808H22.5C20.8431 20.808 19.5 19.4649 19.5 17.808V15.808C19.5 14.1511 20.8431 12.808 22.5 12.808H26.5C27.6046 12.808 28.5 11.9126 28.5 10.808V9.80798C28.5 7.59884 26.7091 5.80798 24.5 5.80798H8.5Z" fill="white"/>
<path d="M23.5 18.808C24.6046 18.808 25.5 17.9126 25.5 16.808C25.5 15.7034 24.6046 14.808 23.5 14.808C22.3954 14.808 21.5 15.7034 21.5 16.808C21.5 17.9126 22.3954 18.808 23.5 18.808Z" fill="white"/>
</svg>
